<svg id="Layer_1" data-name="Layer 1" xmlns="http://www.w3.org/2000/svg" viewBox="0 .8 590 94.82"><defs><style>.cls-1{fill:#a2a2a2;}.cls-2{fill:#fff;}.cls-3{fill:#535353;}.cls-4{fill:#118669;}.cls-5{fill:#12a27e;}.cls-6{fill:#66534d;}.cls-7{fill:#99776b;}.cls-8{fill:#655A85;}</style></defs><title>bubblesbottom</title><path class="cls-1" d="M378.07,89.13a8.21,8.21,0,0,1-7.82,5.69h-248a8.2,8.2,0,0,1-7.79-5.69,8.34,8.34,0,0,1,.07-5.4l15.63-42.55a8.13,8.13,0,0,1,7.72-5.4H346.71A8.32,8.32,0,0,1,354,40l.75,1.36,22.78,41.18A8.18,8.18,0,0,1,378.07,89.13Z"/><path class="cls-2" d="M269.92,58c-6-3-16.88-2.51-23.54-2.51h-.19c-6.56,0-17.56-.48-23.54,2.51-6.46,3.18-2.22,10.22,4,10.42,6.47.29,13,.29,19.59.19,6.56.1,13.12.1,19.58-.19C272.14,68.19,276.29,61.15,269.92,58Z"/><path class="cls-3" d="M378.07,89.13a8.21,8.21,0,0,1-7.82,5.69h-248a8.2,8.2,0,0,1-7.79-5.69Z"/><path class="cls-4" d="M181.36,25l-25-25h23.43V20A8.86,8.86,0,0,0,181.36,25Z"/><path class="cls-5" d="M200,0H179.82V20a8.86,8.86,0,0,0,8.88,8.88h13.21A8.85,8.85,0,0,0,210.78,20V0Z"/><rect class="cls-2" x="141.41" width="6.68" height="30.97"/><path class="cls-6" d="M172.78,8.87V22.1A8.85,8.85,0,0,1,163.9,31H147.65V0H163.9A8.85,8.85,0,0,1,172.78,8.87Z"/><path class="cls-5" d="M141.62,0V31H60.21A16.18,16.18,0,0,1,44,14.77V2l.13-2Z"/><path class="cls-7" d="M366.55,0V40.46a139.91,139.91,0,0,0-29.58,4c-9,2.13-18.71-2-22.39-10.51-.86-2.13-1.73-4.25-2.6-6.47-3.67-8.49,2.51-19.1,14.47-22.09A178.5,178.5,0,0,1,366.55,0Z"/><path class="cls-8" d="M363.88,40.52H475.59A16.18,16.18,0,0,0,491.8,24.31V2l-.15-2H363.88Z"/></svg>