<svg xmlns="http://www.w3.org/2000/svg" width="137.5" height="30.6" viewBox="0 0 188.73 42"><title>fixagraphlogo</title><path d="M116.23,18.09,116,18Z" fill="#3c2c6a"/><path d="M188.41,30c-1.93,0-2.21-.51-2.21-1.84V18.4c0-5.47-2.81-8.14-7.27-8.14a7.6,7.6,0,0,0-7.77,5.93V.86h-9.94V4.59h.14c1.61,0,2.39.37,2.39,2.62V28c0,1.61-.32,2-1.93,2h-.6v3.4H174V30h-.46c-2.07,0-2.39-.28-2.39-1.66V21c0-3.87,1.79-6.07,4.46-6.07,2.12,0,3.17,1.19,3.17,3.72v9.66c0,1.47-.5,1.66-2.39,1.66h-.46v3.4h12.79V30Z" fill="#3c2c6a"/><path d="M152.66,10.26a7.45,7.45,0,0,0-7.54,6.16v-.23a15.68,15.68,0,0,0-1-5.38h-8.79v4h.14c1.61,0,2.39.37,2.39,2.63V29.53a6.89,6.89,0,0,1-1.8.33c-1.32-.05-1.88-.69-1.88-2.67V19.55a10.23,10.23,0,0,0-1.63-6.13,8.33,8.33,0,0,0-5.6-3,19.51,19.51,0,0,0-5.81,0,5.67,5.67,0,0,1,1.36,3.18,6.23,6.23,0,0,1,2.6.37,3.08,3.08,0,0,1,1.8,3.15c-.14,3.34-5.2,4-7.63,4.69-4,1.1-5.8,2.89-5.8,5.93v.05a6.35,6.35,0,0,0,.35,2.16,5.23,5.23,0,0,0,.81,1.53c1.66,2.21,4.73,2.8,7.33,2.32a6.33,6.33,0,0,0,5-4.32v.14c0,3.24,3,4.37,5.82,4.22a6,6,0,0,0,5.09-2.75v5.13c0,1.6-.32,2-1.93,2h-.6V41.6H148.8V38.19h-1.15c-2.07,0-2.39-.27-2.39-1.65V28.7c.78,3.08,3.17,5.15,7.08,5.15,5.57,0,9.52-4.32,9.52-12.14v-.05C161.86,15,158.6,10.26,152.66,10.26ZM126.78,25.81c0,1.53-.46,3.32-1.89,4.13a2.47,2.47,0,0,1-3.42-.72,2.38,2.38,0,0,1-.23-.45A4.73,4.73,0,0,1,121,27.1v-.23c0-2.07,1-2.81,2.4-3.55a10,10,0,0,0,3.4-2.3v.08h0Zm27.54-3.54c0,5.42-1.66,7.45-4.37,7.45s-4.69-2.44-4.69-7.64v-.83c0-4,2-6.57,4.69-6.57s4.37,2.11,4.37,6.16Z" fill="#3c2c6a"/><path d="M49,28.06l-4.78-6.67L48,16.51c1.24-1.61,1.88-2,3.26-2h.42v-3.7H41.46v3.73H42c1.66,0,2.21.83.69,2.85l-2,2.61-2.11-3.13c-1.06-1.51-.79-2.34.64-2.34h.55V10.81H27v3.73h.37c1.61,0,1.93.41,3.13,2.16l3.68,5.57-4,5.65c-1.24,1.8-1.66,2-3,2H26.3c-1.75,0-2.07-.32-2.07-2V10.81h-14V7.39c0-3.17,1.48-4.6,3.82-4.6A4.52,4.52,0,0,1,17,3.67a3.18,3.18,0,0,0-.12,1.73c.24,1,1.13,2.22,3.44,2.31A3.15,3.15,0,0,0,23.9,4.54C23.9,1.64,19.27,0,14.07,0,6.83,0,3.07,3,2.9,9.2v1.61H0v3.64H2.9V28c0,1.61-.32,2-1.93,2H.28v3.4H13.39V30H13c-2.34,0-2.67-.28-2.67-2V14.45h4.19c1.61,0,2.39.36,2.39,2.62V28c0,1.52-.28,2-1.66,2h-.5v3.4H37.09V30h-.65c-1.84,0-2.16-.88-.82-2.81L38,23.74l2.48,3.77c1.11,1.75.92,2.44-.78,2.44h-.55v3.4H52V30h-.23C50.38,30,50,29.44,49,28.06Z" fill="#3c2c6a"/><path d="M120.67,14a3.61,3.61,0,0,0-1.59-2.87,4.65,4.65,0,0,0-3.12-.54A6.9,6.9,0,0,0,111.31,14a8.77,8.77,0,0,0-1.23,3,1.61,1.61,0,0,0,0,.31v-.43a15.86,15.86,0,0,0-1.2-6.12H92.49a20.1,20.1,0,0,0-1.09,4.45C90,12,88,10.3,83.81,10.3c-5.53,0-9.51,4.13-9.51,10.77v.1c0,3.42.9,6.18,2.61,8l-.17.12a6.48,6.48,0,0,1-2.33.53c-1.32,0-1.89-.69-1.89-2.67v-7.6a10.16,10.16,0,0,0-1.62-6.13,8.33,8.33,0,0,0-5.6-3,19,19,0,0,0-7.9.38,8.25,8.25,0,0,0-4.17,2.32c-1,1.11-1.5,2.78-.36,4a3.73,3.73,0,0,0,4,.72A3.64,3.64,0,0,0,59,14h0a6.26,6.26,0,0,1,4.43,0,3.07,3.07,0,0,1,1.79,3.15c-.14,3.35-5.19,4-7.63,4.69-4,1.1-5.8,2.9-5.8,5.93v.05A6.65,6.65,0,0,0,52.14,30,5.67,5.67,0,0,0,53,31.47c1.67,2.21,4.74,2.8,7.33,2.32a6.32,6.32,0,0,0,5-4.31v.13c0,3.25,3,4.37,5.83,4.22A5.88,5.88,0,0,0,77,29.23a8.66,8.66,0,0,0,6.58,2.57c4.31,0,6.55-2.06,7.33-4.27v3c0,5.48-1.74,7.91-6.69,7.91a4.61,4.61,0,0,1-2.2-.36V37c0-2.21-1.56-3.08-3.48-3.08s-3.2,1.06-3.2,2.81c0,3.45,3.89,5.29,10,5.29,8.88,0,13-4.37,13-12.15V17.42c0-2.07.66-2.55,2-2.61h.13c1.61,0,2.4.37,2.4,2.62V28A1.94,1.94,0,0,1,101,30h-.75v3.4h13.47V30h-1c-2.07,0-2.58-.28-2.58-2.12v-3.5a12.52,12.52,0,0,1,1.65-6.44,6.8,6.8,0,0,1,2.06-2.24,2.73,2.73,0,0,0,2.42,2.46,3.62,3.62,0,0,0,3.88-1.64A4.43,4.43,0,0,0,120.67,14ZM65.14,25.81c0,1.53-.46,3.32-1.89,4.13a2.48,2.48,0,0,1-3.65-1.17,4.76,4.76,0,0,1-.27-1.67v-.23c0-2.07,1-2.81,2.39-3.55a9.84,9.84,0,0,0,3.4-2.3v.08h0Zm25.72-4.38c0,4.18-2,6.75-4.68,6.75S81.81,26,81.81,21.47v-.82c0-4,1.75-6.1,4.45-6.1s4.6,2.48,4.6,6.38Z" fill="#3c2c6a"/></svg>