<svg xmlns="http://www.w3.org/2000/svg" width="500" height="392" viewBox="0 0 500 392"><title>lifebuoy2</title><path d="M414.7,206A165,165,0,0,0,275,52.9a167.6,167.6,0,0,0-50,0A165,165,0,0,0,85.3,206q-.3,4.5-.3,9A165,165,0,0,0,225,379.1a167.6,167.6,0,0,0,50,0A165,165,0,0,0,415,215Q415,210.5,414.7,206Zm-83.1,26H331a82.51,82.51,0,0,1-161.9,0h-.7a91.05,91.05,0,0,1-.5-29c.1-1,.3-2,.5-3h.7A82.48,82.48,0,0,1,225,137.4c1.3-.4,2.5-.8,3.8-1.1a82.75,82.75,0,0,1,42.5,0c1.3.3,2.5.7,3.8,1.1A82.31,82.31,0,0,1,331,200h.6c.2,1,.3,2,.5,3A91.05,91.05,0,0,1,331.6,232Z" fill="#ede8fa"/><path d="M414.7,186A165,165,0,0,0,275,32.9a167.6,167.6,0,0,0-50,0A165,165,0,0,0,85.3,186q-.3,4.5-.3,9A165,165,0,0,0,225,359.1a167.6,167.6,0,0,0,50,0A165,165,0,0,0,415,195Q415,190.5,414.7,186Zm-83.1,26H331a82.51,82.51,0,0,1-161.9,0h-.7a91.05,91.05,0,0,1-.5-29c.1-1,.3-2,.5-3h.7A82.48,82.48,0,0,1,225,117.4c1.3-.4,2.5-.8,3.8-1.1a82.75,82.75,0,0,1,42.5,0c1.3.3,2.5.7,3.8,1.1A82.31,82.31,0,0,1,331,180h.6c.2,1,.3,2,.5,3A91.05,91.05,0,0,1,331.6,212Z" fill="#12a27e"/><path d="M314.8,275.3c-35.8,32.2-93.8,32.2-129.6,0-20.7-18.7-29.4-44-26.2-68.3,2.4,17.7,11.1,34.8,26.2,48.3,35.8,32.2,93.8,32.2,129.6,0,15.1-13.6,23.8-30.7,26.2-48.3C344.2,231.3,335.5,256.7,314.8,275.3Z" fill="#14b089"/><path d="M415,195q0,4.5-.3,9C409.2,113,331,43.8,240.1,49.2A165.11,165.11,0,0,0,85.3,204q-.3-4.5-.3-9t.3-9C90.8,95,169,25.8,260,31.2A165.11,165.11,0,0,1,414.8,186C414.9,189,415,192,415,195Z" fill="#14b089"/><path d="M250,31A163.94,163.94,0,0,0,142.3,71c.1.1.3.2.4.3l5,5a157.47,157.47,0,0,1,204.7,0l5-5a1.38,1.38,0,0,1,.4-.3A164.4,164.4,0,0,0,250,31ZM375,88.3c-.1.1-.2.3-.3.4l-5,5a157.47,157.47,0,0,1,0,204.7l5,5a1.38,1.38,0,0,1,.3.4A165.2,165.2,0,0,0,375,88.3ZM130.3,93.7l-5-5a1.38,1.38,0,0,1-.3-.4,165.07,165.07,0,0,0,0,215.4c.1-.1.2-.3.3-.4l5-5A157.33,157.33,0,0,1,130.3,93.7Zm227.1,227-5-5a157.47,157.47,0,0,1-204.7,0l-5,5a1.38,1.38,0,0,1-.4.3,165.07,165.07,0,0,0,215.4,0Z" fill="#0f8a6b"/><path d="M366.7,79.3a165,165,0,1,0,0,233.3h0C431.1,248.2,431.1,143.8,366.7,79.3ZM250,358.3A162.3,162.3,0,1,1,412.3,196,162.35,162.35,0,0,1,250,358.3Z" fill="#0e7d61"/><path d="M315.2,147A80.23,80.23,0,0,0,299,130.8a.78.78,0,0,1-.2-1,.1.1,0,0,1,.1-.1l.1-.1a82.51,82.51,0,0,0-98,0l.1.1a.67.67,0,0,1,0,1l-.1.1A80.23,80.23,0,0,0,184.8,147a.78.78,0,0,1-1,.2.1.1,0,0,1-.1-.1l-.1-.1a82.51,82.51,0,0,0,0,98l.1-.1a.67.67,0,0,1,1,0l.1.1A80.23,80.23,0,0,0,201,261.2a.78.78,0,0,1,.2,1,.1.1,0,0,1-.1.1l-.1.1a82.51,82.51,0,0,0,98,0l-.1-.1a.67.67,0,0,1,0-1l.1-.1A80.23,80.23,0,0,0,315.2,245a.78.78,0,0,1,1-.2.1.1,0,0,1,.1.1l.1.1a82.51,82.51,0,0,0,0-98l-.1.1a.71.71,0,0,1-1.1-.1Z" fill="none"/><path d="M192.1,120.7a94,94,0,0,1,39.6-18l-1.1,5.3a88.61,88.61,0,0,0-34.9,16.2Z" fill="#0f8a6b"/><path d="M307.9,120.7l-3.6,3.6a90,90,0,0,0-34.9-16.2l-1.1-5.3A93.81,93.81,0,0,1,307.9,120.7Z" fill="#0f8a6b"/><path d="M160,196a90,90,0,0,1,18.3-54.4l-3.6-3.6a94.84,94.84,0,0,0,0,115.8l3.6-3.6A89,89,0,0,1,160,196Z" fill="#0f8a6b"/><path d="M250,286a90,90,0,0,1-54.4-18.3l-3.6,3.6a94.84,94.84,0,0,0,115.8,0l-3.6-3.6A89,89,0,0,1,250,286Z" fill="#0f8a6b"/><path d="M340,196a90,90,0,0,1-18.3,54.4l3.6,3.6a94.84,94.84,0,0,0,0-115.8l-3.6,3.6A89,89,0,0,1,340,196Z" fill="#0f8a6b"/><path d="M321.7,141.6l-5.4,5.4a82.51,82.51,0,0,1,0,98l5.4,5.4a90,90,0,0,0,0-108.8Z" fill="#0e7d61"/><path d="M230.5,108.1l-1.8,8.2.4-.1a80.79,80.79,0,0,0-28.2,13.5l-5.4-5.3A89.77,89.77,0,0,1,230.5,108.1Z" fill="#0e7d61"/><path d="M238.7,114.3c1.1-.2,2.1-.3,3.2-.4C240.9,114,239.8,114.1,238.7,114.3Z" fill="#9e3f20"/><path d="M258.1,113.9c1.1.1,2.1.2,3.2.4C260.2,114.1,259.1,114,258.1,113.9Z" fill="#9e3f20"/><path d="M304.4,124.3l-5.4,5.4a81.72,81.72,0,0,0-28.2-13.5l.4.1-1.8-8.2A89.68,89.68,0,0,1,304.4,124.3Z" fill="#0e7d61"/><path d="M201,262.4l-5.4,5.4a89.86,89.86,0,0,0,108.7,0l-5.4-5.4A82.36,82.36,0,0,1,201,262.4Z" fill="#0e7d61"/><path d="M183.6,147l-5.4-5.4a89.86,89.86,0,0,0,0,108.7l5.4-5.4A82.36,82.36,0,0,1,183.6,147Z" fill="#0e7d61"/><path d="M184.8,147A80.23,80.23,0,0,1,201,130.8a.78.78,0,0,0,.2-1,.1.1,0,0,0-.1-.1l-.1-.1A82,82,0,0,0,183.6,147l.1.1a.71.71,0,0,0,1.1-.1Z" fill="#d8d7db"/><path d="M192.1,120.7a95.54,95.54,0,0,0-17.4,17.4L130.3,93.7a158.82,158.82,0,0,1,17.4-17.4Z" fill="#f7f5fd"/><path d="M195.6,124.3l-3.6-3.6a95.54,95.54,0,0,0-17.4,17.4l3.6,3.6A89.62,89.62,0,0,1,195.6,124.3Z" fill="#fff"/><path d="M191.7,137.7a78.51,78.51,0,0,1,9.3-8l-5.4-5.3a92.49,92.49,0,0,0-17.4,17.4l5.4,5.4A75,75,0,0,1,191.7,137.7Z" fill="#fff"/><path d="M352.4,315.7,308,271.3a95.54,95.54,0,0,0,17.4-17.4l44.4,44.4A158.82,158.82,0,0,1,352.4,315.7Z" fill="#f7f5fd"/><path d="M315.2,245A80.23,80.23,0,0,1,299,261.2a.78.78,0,0,0-.2,1,.1.1,0,0,0,.1.1l.1.1A82,82,0,0,0,316.4,245l-.1-.1a.71.71,0,0,0-1.1.1Z" fill="#fff"/><path d="M325.3,253.9l-3.6-3.6a92.49,92.49,0,0,1-17.4,17.4l3.6,3.6A95.55,95.55,0,0,0,325.3,253.9Z" fill="#fff"/><path d="M308.3,254.3a78.51,78.51,0,0,1-9.3,8l5.4,5.4a92.49,92.49,0,0,0,17.4-17.4l-5.4-5.3A89.94,89.94,0,0,1,308.3,254.3Z" fill="#fff"/><path d="M299,129.6h0c-.4.4-.4.8-.1,1.1l.1.1A80.23,80.23,0,0,1,315.2,147a.78.78,0,0,0,1,.2.1.1,0,0,0,.1-.1l.1-.1A84.41,84.41,0,0,0,299,129.6Z" fill="#d8d7db"/><path d="M369.7,93.7l-44.4,44.4a95.54,95.54,0,0,0-17.4-17.4l44.4-44.4A143,143,0,0,1,369.7,93.7Z" fill="#f7f5fd"/><path d="M308.3,137.7a78.51,78.51,0,0,1,8,9.3l5.4-5.4a92.49,92.49,0,0,0-17.4-17.4l-5.3,5.4A89.94,89.94,0,0,1,308.3,137.7Z" fill="#d8d7db"/><path d="M201,261.2A80.23,80.23,0,0,1,184.8,245a.78.78,0,0,0-1-.2.1.1,0,0,0-.1.1l-.1.1A82,82,0,0,0,201,262.4l.1-.1a.71.71,0,0,0-.1-1.1Z" fill="#fff"/><path d="M142.3,71A166.21,166.21,0,0,0,125,88.3a2.26,2.26,0,0,1,.2-2.6,104.58,104.58,0,0,1,14.5-14.5A2.26,2.26,0,0,1,142.3,71Z" fill="#d8d7db"/><path d="M374.9,306.3a104.58,104.58,0,0,1-14.5,14.5,2.11,2.11,0,0,1-2.6.1,157,157,0,0,0,17.3-17.3A2.85,2.85,0,0,1,374.9,306.3Z" fill="#d8d7db"/><path d="M375,88.3A166.21,166.21,0,0,0,357.7,71a2.27,2.27,0,0,1,2.6.2,104.58,104.58,0,0,1,14.5,14.5A2.26,2.26,0,0,1,375,88.3Z" fill="#d8d7db"/><path d="M142.3,321a2.66,2.66,0,0,1-1.2.3,2.39,2.39,0,0,1-1.4-.5,104.58,104.58,0,0,1-14.5-14.5,2.27,2.27,0,0,1-.2-2.6A157,157,0,0,0,142.3,321Z" fill="#d8d7db"/><path d="M192.1,271.3l-44.4,44.4a158.82,158.82,0,0,1-17.4-17.4l44.4-44.4A95.55,95.55,0,0,0,192.1,271.3Z" fill="#f7f5fd"/><path d="M178.3,250.4l-3.6,3.6a95.54,95.54,0,0,0,17.4,17.4l3.6-3.6A89.62,89.62,0,0,1,178.3,250.4Z" fill="#fff"/><path d="M191.7,254.3a78.51,78.51,0,0,1-8-9.3l-5.4,5.4a92.49,92.49,0,0,0,17.4,17.4l5.4-5.4A81.66,81.66,0,0,1,191.7,254.3Z" fill="#fff"/><path d="M308.3,254.3a78.51,78.51,0,0,1-9.3,8l5.4,5.4a92.49,92.49,0,0,0,17.4-17.4l-5.4-5.3A89.94,89.94,0,0,1,308.3,254.3Z" fill="#d8d7db"/><path d="M191.7,254.3a78.51,78.51,0,0,1-8-9.3l-5.4,5.4a92.49,92.49,0,0,0,17.4,17.4l5.4-5.4A81.66,81.66,0,0,1,191.7,254.3Z" fill="#d8d7db"/><path d="M147.6,76.3a158.82,158.82,0,0,0-17.4,17.4l-5-5a1.38,1.38,0,0,1-.3-.4A166.21,166.21,0,0,1,142.2,71c.1.1.3.2.4.3Z" fill="#e5e4e8"/><path d="M375,303.7A157,157,0,0,1,357.7,321c-.1-.1-.3-.2-.4-.3l-5-5a158.82,158.82,0,0,0,17.4-17.4l5,5A1.38,1.38,0,0,0,375,303.7Z" fill="#e5e4e8"/><path d="M375,88.3c-.1.1-.2.3-.3.4l-5,5a158.82,158.82,0,0,0-17.4-17.4l5-5a1.38,1.38,0,0,1,.4-.3A157,157,0,0,1,375,88.3Z" fill="#e5e4e8"/><path d="M321.7,141.6l3.6-3.6a95.54,95.54,0,0,0-17.4-17.4l-3.6,3.6A89.62,89.62,0,0,1,321.7,141.6Z" fill="#e5e4e8"/><path d="M147.6,315.7l-5,5a1.38,1.38,0,0,1-.4.3,157,157,0,0,1-17.3-17.3c.1-.1.2-.3.3-.4l5-5A158.82,158.82,0,0,0,147.6,315.7Z" fill="#e5e4e8"/><path d="M304.4,267.7l3.6,3.6a95.54,95.54,0,0,0,17.4-17.4l-3.6-3.6A89.62,89.62,0,0,1,304.4,267.7Z" fill="#e5e4e8"/><path d="M178.3,250.4l-3.6,3.6a95.54,95.54,0,0,0,17.4,17.4l3.6-3.6A89.62,89.62,0,0,1,178.3,250.4Z" fill="#e5e4e8"/><path d="M195.6,124.3l-3.6-3.6a95.54,95.54,0,0,0-17.4,17.4l3.6,3.6A89.62,89.62,0,0,1,195.6,124.3Z" fill="#e5e4e8"/><path d="M191.7,137.7a78.51,78.51,0,0,1,9.3-8l-5.4-5.3a92.49,92.49,0,0,0-17.4,17.4l5.4,5.4A75,75,0,0,1,191.7,137.7Z" fill="#d8d7db"/><path d="M264.5,141.5h-29c-1.8,0-3.2-1.2-3-2.6V110.7c.7-3.3,8.8-20.5,13.2-20.5h8.5c4.4,0,12.5,17.2,13.2,20.5v28.2C267.7,140.3,266.3,141.5,264.5,141.5Z" fill="#ede8fa"/><path d="M269.5,108.1a91.59,91.59,0,0,0-39,0l1.1-5.3a94.43,94.43,0,0,1,36.7,0Z" fill="#0e7d61"/><path d="M250,101a93.08,93.08,0,0,0-18.3,1.8l1.8-8.5c.8-3.9,5.6-6.7,11.2-6.7h10.7c5.6,0,10.3,2.9,11.2,6.7l1.8,8.5A94.85,94.85,0,0,0,250,101Z" fill="#0f8a6b"/><path d="M271.2,116.3l-.4-.1a28.17,28.17,0,0,0-3.1-.7c-1.1-.2-2.2-.5-3.3-.7s-2.1-.3-3.2-.5-2.1-.3-3.2-.4a38.66,38.66,0,0,0-4.8-.3h-6.4l-4.8.3c-1.1.1-2.1.2-3.2.4s-2.1.3-3.2.5-2.2.4-3.3.7-2.1.5-3.1.7l-.4.1,1.8-8.2a91.59,91.59,0,0,1,39,0Z" fill="#0d7057"/><path d="M264.5,117.5h-29a2.79,2.79,0,0,1-3-2.5v-.5l4.3-25.2c.7-3.9,4.4-6.7,8.9-6.7h8.5c4.5,0,8.2,2.9,8.9,6.7l4.3,25.2a2.79,2.79,0,0,1-2.5,3Z" fill="#e5e4e8"/><path d="M267.4,114.5a2.79,2.79,0,0,1-2.5,3h-30a2.87,2.87,0,0,1-2.6-2.5v-.5l.5-2.8h33.9Z" fill="#d8d7db"/><path d="M267.4,114.5a2.79,2.79,0,0,1-2.5,3H235a2.87,2.87,0,0,1-2.6-2.5v-.5Z" fill="#717073"/><path d="M174.11,92.65l-1.27-2.31a8.39,8.39,0,0,0,4.77-1c1.66-.92,2.11-1.74,1.53-2.79-.31-.55-.67-.76-1.52-.61-1.06.11-3,1-4.65,1a4,4,0,0,1-3.53-2.46c-1.68-3.05.08-5.62,2.69-7.06a6.18,6.18,0,0,1,4.62-.91l1.34,2.42A8.72,8.72,0,0,0,173.78,80c-1.26.7-2,1.4-1.44,2.45a1.21,1.21,0,0,0,1.48.6c1.33-.18,3.37-1.15,5-1.06a3.92,3.92,0,0,1,3.44,2.4c1.61,2.92.27,5.51-2.8,7.2C177.24,92.79,175.38,93.05,174.11,92.65Z" fill="#f7f5fd"/><path d="M184.52,86.26a2.29,2.29,0,0,1,1-3,2.25,2.25,0,1,1-1,3Z" fill="#f7f5fd"/><path d="M190.06,84.32l-1-2.44a8.3,8.3,0,0,0,4.86-.46c1.76-.71,2.31-1.47,1.86-2.58-.23-.58-.57-.83-1.43-.8-1.07,0-3.09.62-4.73.4a4,4,0,0,1-3.2-2.88c-1.3-3.22.77-5.56,3.53-6.67a6.23,6.23,0,0,1,4.7-.33l1,2.56a8.76,8.76,0,0,0-4.41.61c-1.34.53-2.19,1.13-1.74,2.25a1.22,1.22,0,0,0,1.4.78c1.34,0,3.49-.73,5.05-.45a3.91,3.91,0,0,1,3.12,2.81c1.24,3.09-.41,5.49-3.66,6.8C193.14,84.85,191.27,84.88,190.06,84.32Z" fill="#f7f5fd"/><path d="M201.16,79.26a2.22,2.22,0,1,1,4.21-1.4,2.22,2.22,0,1,1-4.21,1.4Z" fill="#f7f5fd"/><path d="M208.21,63.08l10.19-2.39.71,3.06-6.4,1.5.89,3.81,5.87-1.38.66,2.85-5.86,1.38,1.22,5.21-3.78.88Z" fill="#f7f5fd"/><path d="M221.47,60.19l3.84-.63,2.5,15.13-3.83.64Z" fill="#f7f5fd"/><path d="M233.15,66l-4.91-7,4.26-.38,3.35,5,2.43-5.49,3.85-.34-3.54,7.62L243.92,73l-4.28.38L235.9,67.9,233.14,74l-3.88.34Z" fill="#f7f5fd"/><path d="M254.43,70l-6-.09-1,3.17-3.6,0L249,57.72l5.76.09,4.57,15.4-4-.06Zm-5-2.94,4.22.07-2-7.16Z" fill="#f7f5fd"/><path d="M267.3,65.38l5.82.66-.79,7a8.06,8.06,0,0,1-5.91,1.43c-4.51-.52-7.07-3.73-6.48-8.9v-.05c.54-4.75,3.83-7.49,8.57-6.95a6.88,6.88,0,0,1,4.53,2l-.3,2.63a8.24,8.24,0,0,0-4-1.52,3.86,3.86,0,0,0-4.67,3.74l-.11.93c-.4,3.51.74,5,3.12,5.29a8.43,8.43,0,0,0,1.74,0l.37-3.24L267,68.15Z" fill="#f7f5fd"/><path d="M277.4,60.09l6,1.28c3.71.79,5.48,2.74,4.84,5.72-.48,2.25-2.07,3.46-4.54,3.42l3,7.24-4.3-.92-3-7.41L278,75.9l-3.8-.82Zm4,8.3c1.78.38,2.54-.19,2.86-1.67s-.29-2.22-1.81-2.55l-1.9-.4L279.68,68Z" fill="#f7f5fd"/><path d="M297.8,77.94l-5.67-1.83-1.87,2.75-3.42-1.1,9.37-13.1,5.48,1.77-.14,16.07-3.82-1.23Zm-4-4.28,4,1.3.18-7.44Z" fill="#f7f5fd"/><path d="M308.71,69l5.52,2.41c3.74,1.63,4.68,4.09,3.3,7.26s-3.86,4.15-7.66,2.49L308,80.3l-1.87,4.26L302.57,83Zm1.87,9.51c1.8.79,2.79.2,3.44-1.27s.41-2.52-1.24-3.24l-1.69-.74-2,4.6Z" fill="#f7f5fd"/><path d="M322.42,75.08,325.81,77l-2.95,5.25L327.7,85l2.94-5.25L334,81.59,326.51,95l-3.37-1.89,3.06-5.47-4.83-2.71-3.07,5.46-3.39-1.9Z" fill="#f7f5fd"/></svg>