<svg xmlns="http://www.w3.org/2000/svg" width="499" height="370" viewBox="0 0 499 370"><title>october2018</title><rect x="39.5" y="138.4" width="60" height="200" fill="#ede8fa"/><rect x="399.5" y="88.4" width="60" height="200" fill="#ede8fa"/><line x1="159.5" y1="94" x2="159.5" y2="131" fill="none" stroke="#12a27e" stroke-linecap="round" stroke-linejoin="round" opacity="0.75" style="isolation:isolate"/><line x1="99.5" y1="94" x2="99.5" y2="131" fill="none" stroke="#12a27e" stroke-linecap="round" stroke-linejoin="round" opacity="0.75" style="isolation:isolate"/><line x1="219.5" y1="94" x2="219.5" y2="131" fill="none" stroke="#12a27e" stroke-linecap="round" stroke-linejoin="round" opacity="0.75" style="isolation:isolate"/><line x1="279.5" y1="94" x2="279.5" y2="131" fill="none" stroke="#12a27e" stroke-linecap="round" stroke-linejoin="round" opacity="0.75" style="isolation:isolate"/><line x1="339.5" y1="94" x2="339.5" y2="131" fill="none" stroke="#12a27e" stroke-linecap="round" stroke-linejoin="round" opacity="0.75" style="isolation:isolate"/><line x1="159.5" y1="144" x2="159.5" y2="181" fill="none" stroke="#12a27e" stroke-linecap="round" stroke-linejoin="round" opacity="0.75" style="isolation:isolate"/><line x1="219.5" y1="144" x2="219.5" y2="181" fill="none" stroke="#12a27e" stroke-linecap="round" stroke-linejoin="round" opacity="0.75" style="isolation:isolate"/><line x1="279.5" y1="144" x2="279.5" y2="181" fill="none" stroke="#12a27e" stroke-linecap="round" stroke-linejoin="round" opacity="0.75" style="isolation:isolate"/><line x1="339.5" y1="144" x2="339.5" y2="181" fill="none" stroke="#12a27e" stroke-linecap="round" stroke-linejoin="round" opacity="0.75" style="isolation:isolate"/><line x1="159.5" y1="194" x2="159.5" y2="231" fill="none" stroke="#12a27e" stroke-linecap="round" stroke-linejoin="round" opacity="0.75" style="isolation:isolate"/><line x1="219.5" y1="194" x2="219.5" y2="231" fill="none" stroke="#12a27e" stroke-linecap="round" stroke-linejoin="round" opacity="0.75" style="isolation:isolate"/><line x1="279.5" y1="194" x2="279.5" y2="231" fill="none" stroke="#12a27e" stroke-linecap="round" stroke-linejoin="round" opacity="0.75" style="isolation:isolate"/><line x1="339.5" y1="194" x2="339.5" y2="231" fill="none" stroke="#12a27e" stroke-linecap="round" stroke-linejoin="round" opacity="0.75" style="isolation:isolate"/><line x1="159.5" y1="244" x2="159.5" y2="281" fill="none" stroke="#12a27e" stroke-linecap="round" stroke-linejoin="round" opacity="0.75" style="isolation:isolate"/><line x1="219.5" y1="244" x2="219.5" y2="281" fill="none" stroke="#12a27e" stroke-linecap="round" stroke-linejoin="round" opacity="0.75" style="isolation:isolate"/><line x1="279.5" y1="244" x2="279.5" y2="281" fill="none" stroke="#12a27e" stroke-linecap="round" stroke-linejoin="round" opacity="0.75" style="isolation:isolate"/><line x1="339.5" y1="244" x2="339.5" y2="281" fill="none" stroke="#12a27e" stroke-linecap="round" stroke-linejoin="round" opacity="0.75" style="isolation:isolate"/><line x1="159.5" y1="294" x2="159.5" y2="331" fill="none" stroke="#12a27e" stroke-linecap="round" stroke-linejoin="round" opacity="0.75" style="isolation:isolate"/><line x1="219.5" y1="294" x2="219.5" y2="331" fill="none" stroke="#12a27e" stroke-linecap="round" stroke-linejoin="round" opacity="0.75" style="isolation:isolate"/><line x1="279.5" y1="294" x2="279.5" y2="331" fill="none" stroke="#12a27e" stroke-linecap="round" stroke-linejoin="round" opacity="0.75" style="isolation:isolate"/><line x1="339.5" y1="294" x2="339.5" y2="331" fill="none" stroke="#12a27e" stroke-linecap="round" stroke-linejoin="round" opacity="0.75" style="isolation:isolate"/><line x1="399.5" y1="294" x2="399.5" y2="331" fill="none" stroke="#12a27e" stroke-linecap="round" stroke-linejoin="round" opacity="0.75" style="isolation:isolate"/><line x1="39.5" y1="88.4" x2="459.5" y2="88.4" fill="none" stroke="#12a27e" stroke-linejoin="round" stroke-width="3"/><line x1="39.5" y1="138.4" x2="459.5" y2="138.4" fill="none" stroke="#12a27e" stroke-linejoin="round" stroke-width="3"/><line x1="39.5" y1="188.4" x2="459.5" y2="188.4" fill="none" stroke="#12a27e" stroke-linejoin="round" stroke-width="3"/><line x1="39.5" y1="238.4" x2="459.5" y2="238.4" fill="none" stroke="#12a27e" stroke-linejoin="round" stroke-width="3"/><line x1="39.5" y1="288.4" x2="459.5" y2="288.4" fill="none" stroke="#12a27e" stroke-linejoin="round" stroke-width="3"/><line x1="39.5" y1="338.4" x2="459.5" y2="338.4" fill="none" stroke="#12a27e" stroke-linejoin="round" stroke-width="3"/><line x1="39.5" y1="63.4" x2="459.5" y2="63.4" fill="none" stroke="#12a27e" stroke-linejoin="round" stroke-width="3"/><path d="M183.4,38.8h0c0-7.3,4.5-12,11.6-12s11.6,4.7,11.6,11.9v.1c0,8.1-5.1,12.1-11.6,12.1S183.4,46.8,183.4,38.8Zm16.9.4V37.8c0-5.2-1.7-7.7-5.4-7.7s-5.4,2.5-5.4,7.7v1.4c0,6.3,1.9,8.6,5.4,8.6S200.3,45.5,200.3,39.2Z" fill="#3d384f"/><path d="M217.8,50.7c-5.7,0-9.2-3.4-9.2-9.3h0c0-6,4.2-9.2,9.3-9.2,3.9,0,6.8,1.5,6.8,4.6a2.29,2.29,0,0,1-2.4,2.3c-1.6,0-2.7-.7-2.7-2.8v-1a2.42,2.42,0,0,0-1.4-.3c-2.1,0-3.7,1.4-3.7,5.7v.8c0,4.1,1.5,5.9,5.2,5.9a9,9,0,0,0,4.7-1.4v2.3C223.4,49.5,221.2,50.7,217.8,50.7Z" fill="#3d384f"/><path d="M228.2,45.1V35.5H226V33.1c3.2-.3,4.4-1.7,5.2-5.1H234v4.6h5v2.8h-5v9c0,2.6.9,3.1,2.9,3.1a7.19,7.19,0,0,0,2.2-.4V49c-.7.9-2.2,1.8-5.1,1.8C230.8,50.8,228.2,49.5,228.2,45.1Z" fill="#3d384f"/><path d="M240.1,41.3h0c0-5.8,4-9.1,9.3-9.1s9.3,3.2,9.3,9v.1c0,6.7-4.5,9.4-9.3,9.4S240.1,48,240.1,41.3Zm12.7.6V40.6c0-4-1.3-5.5-3.4-5.5s-3.3,1.5-3.3,5.5v1.3c0,5,1.5,6.2,3.3,6.2S252.8,46.9,252.8,41.9Z" fill="#3d384f"/><path d="M267.2,36.5a5.81,5.81,0,0,1,5.8-4.2c4.7,0,7.2,3.7,7.2,8.9h0c0,6.1-3.1,9.5-7.5,9.5a5.66,5.66,0,0,1-5.9-4.6,6.77,6.77,0,0,1-1.6,4.2h-3.8V31.1c0-1.8-.6-2.1-1.9-2.1h-.2V26.1h7.8V36.5Zm7.1,5.2V40.6c0-3.2-1.2-4.9-3.5-4.9-2.1,0-3.6,2.1-3.6,5.2v.7c0,3.9,1.5,5.9,3.6,5.9S274.3,45.7,274.3,41.7Z" fill="#3d384f"/><path d="M288,42.4c.2,3.6,1.9,4.9,5.5,4.9a12.69,12.69,0,0,0,4.8-1v2.1c-.9,1.1-3.2,2.4-6.7,2.4-5.9,0-9.5-3.2-9.5-9.2h0c0-5.8,3.9-9.2,9-9.2,5.3,0,8,3,8,7.4a8.79,8.79,0,0,1-.5,2.8H288Zm0-2.4h5.9v-.3c0-3.4-.9-4.8-2.7-4.8C289.1,34.9,288.1,36.3,288,40Z" fill="#3d384f"/><path d="M300.7,50.3V47.6h.5c1.3,0,1.5-.3,1.5-1.5V37.9c0-1.8-.6-2.1-1.9-2.1h-.1V32.7h6.7a12.79,12.79,0,0,1,.9,4.8v.4c.6-3.8,3-5.4,5-5.4a2.81,2.81,0,0,1,3.1,3,2.79,2.79,0,0,1-2.8,3,2.53,2.53,0,0,1-2.6-1.9c-1.5,1-2.5,3.7-2.5,6.5v3c0,1.4.4,1.7,2,1.7h.8v2.7H300.7Z" fill="#3d384f"/><path d="M60.3,79.2c0-.8-.4-1-1.1-1.3a22.21,22.21,0,0,1-3.6-1,3,3,0,0,1-1.6-3c0-2.5,2-3.6,3.9-3.6a3,3,0,0,1,2.7,1.2,3.86,3.86,0,0,1,.5-1h1.4v3.3H60.7a2.08,2.08,0,0,0-2.3-1.9c-1.1,0-1.8.5-1.8,1.4,0,.7.3,1,1.1,1.3,1,.4,2.8.5,3.9,1.1a3,3,0,0,1,1.6,3c0,2.3-1.7,3.6-4.2,3.6a3.44,3.44,0,0,1-3.2-1.5,3.61,3.61,0,0,1-.4,1.3H54V78.5h1.8a2.47,2.47,0,0,0,2.6,2.3C59.4,80.7,60.3,80.2,60.3,79.2Z" fill="#514969"/><path d="M70.4,75.8c0-.9-.3-1-.9-1h-.1V73.2h3.9V80c0,.5.1.7.9.7h.2V82H70.9a4.46,4.46,0,0,1-.4-1.8v-.1a3,3,0,0,1-3,2.1c-1.9,0-2.9-1-2.9-3.3V75.7c0-.8-.2-1-.8-1h0V73.1h3.8v5.8c0,1.1.4,1.6,1.3,1.6s1.7-.8,1.7-2.4V75.8Z" fill="#514969"/><path d="M84.7,79.9c0,.5.1.7.9.7h.1V82h-5V80.7h.2c.7,0,.9-.1.9-.6V76.3q0-1.5-1.2-1.5c-1,0-1.7.9-1.7,2.4V80c0,.5.1.6.9.6H80V82H75V80.7h.2c.6,0,.8-.1.8-.8V75.8c0-.9-.3-1-.9-1H75V73.2h3.4a5.47,5.47,0,0,1,.4,2v.1a3,3,0,0,1,3.1-2.4c1.7,0,2.8,1,2.8,3.2Z" fill="#514969"/><path d="M117,70.5l2.1,7.6,2.1-7.6h5.5V72h-.4c-.6,0-.9.1-.9,1v6.8c0,.8.3,1,.9,1h.4V82h-5.8V80.6h.3c.8,0,1.1-.1,1.1-.8V72.2L119.6,82h-2.2l-2.7-9.7v7.5c0,.7.3.8,1.1.8h.3V82h-4.5V80.6h.4c.6,0,.9-.1.9-1V72.8c0-.8-.3-1-.9-1h-.4V70.3H117Z" fill="#514969"/><path d="M127.2,77.5h0a4.6,4.6,0,0,1,9.2,0h0a4.6,4.6,0,1,1-9.2,0Zm6.3.3v-.6c0-2-.7-2.8-1.7-2.8s-1.7.8-1.7,2.8v.6c0,2.5.7,3.1,1.7,3.1S133.5,80.3,133.5,77.8Z" fill="#514969"/><path d="M147,79.9c0,.5.1.7.9.7h.1V82h-5V80.7h.2c.7,0,.9-.1.9-.6V76.3q0-1.5-1.2-1.5c-1,0-1.7.9-1.7,2.4V80c0,.5.1.6.9.6h.2V82h-5V80.7h.2c.6,0,.8-.1.8-.8V75.8c0-.9-.3-1-.9-1h-.1V73.2h3.4a5.47,5.47,0,0,1,.4,2v.1a3,3,0,0,1,3.1-2.4c1.7,0,2.8,1,2.8,3.2v3.8Z" fill="#514969"/><path d="M296,72v7.7c0,.8.3,1,.9,1h.6V82h-6V80.6h.6c.6,0,.9-.1.9-1V72h-.4c-1.5,0-1.8.5-1.8,2.1v.6h-1.6V70.5h10.5v4.2h-1.6v-.6c0-1.6-.3-2.1-1.8-2.1Z" fill="#514969"/><path d="M310.3,79.9c0,.5.1.7.9.7h.1V82h-5V80.7h.2c.7,0,.9-.1.9-.6V76.3q0-1.5-1.2-1.5c-1,0-1.7.9-1.7,2.4V80c0,.5.1.6.9.6h.2V82h-5V80.7h.2c.6,0,.8-.1.8-.8V72.4c0-.9-.3-1-.9-1h-.1V69.9h3.9v5.4a2.93,2.93,0,0,1,3-2.3c1.7,0,2.8,1,2.8,3.2v3.7Z" fill="#514969"/><path d="M318.3,75.8c0-.9-.3-1-.9-1h-.1V73.2h3.9V80c0,.5.1.7.9.7h.2V82h-3.5a4.46,4.46,0,0,1-.4-1.8v-.1a3,3,0,0,1-3,2.1c-1.9,0-2.9-1-2.9-3.3V75.7c0-.8-.2-1-.8-1h0V73.1h3.8v5.8c0,1.1.4,1.6,1.3,1.6s1.7-.8,1.7-2.4V75.8Z" fill="#514969"/><path d="M322.9,82V80.7h.2c.6,0,.8-.1.8-.8V75.8c0-.9-.3-1-.9-1h-.1V73.2h3.4a5.86,5.86,0,0,1,.5,2.4v.2c.3-1.9,1.5-2.7,2.5-2.7a1.37,1.37,0,0,1,1.5,1.5,1.34,1.34,0,0,1-1.4,1.5,1.24,1.24,0,0,1-1.3-.9,4,4,0,0,0-1.3,3.2v1.5c0,.7.2.8,1,.8h.4V82Z" fill="#514969"/><path d="M362.3,79.7c0,.8.3.9,1.1.9h.5V82H358V80.6h.4c.6,0,.9-.1.9-1V72.8c0-.8-.3-1-.9-1H358V70.3h9.6v3.4H366v-.4c0-1.3-.3-1.5-1.7-1.5h-1.9v3.8h1c1,0,1.2-.2,1.2-1.2v-.3h1.3v4.5h-1.3v-.5c0-.9-.2-1.2-1.2-1.2h-1v2.8Z" fill="#514969"/><path d="M368.3,82V80.7h.2c.6,0,.8-.1.8-.8V75.8c0-.9-.3-1-.9-1h-.1V73.2h3.4a5.86,5.86,0,0,1,.5,2.4v.2c.3-1.9,1.5-2.7,2.5-2.7a1.37,1.37,0,0,1,1.5,1.5,1.34,1.34,0,0,1-1.4,1.5,1.24,1.24,0,0,1-1.3-.9,4,4,0,0,0-1.3,3.2v1.5c0,.7.2.8,1,.8h.4V82Z" fill="#514969"/><path d="M380.7,79.9c0,.6.1.8.8.8h.3V82h-5V80.7h.3c.6,0,.8-.1.8-.8V75.8c0-.9-.3-1-.9-1h-.1V73.2h3.9v6.7ZM377.6,71a1.5,1.5,0,1,1,1.5,1.5A1.54,1.54,0,0,1,377.6,71Z" fill="#514969"/><path d="M423.1,79.2c0-.8-.4-1-1.1-1.3a22.21,22.21,0,0,1-3.6-1,3,3,0,0,1-1.6-3c0-2.5,2-3.6,3.9-3.6a3,3,0,0,1,2.7,1.2,3.86,3.86,0,0,1,.5-1h1.4v3.3h-1.8a2.08,2.08,0,0,0-2.3-1.9c-1.1,0-1.8.5-1.8,1.4,0,.7.3,1,1.1,1.3,1,.4,2.8.5,3.9,1.1a3,3,0,0,1,1.6,3c0,2.3-1.7,3.6-4.2,3.6a3.44,3.44,0,0,1-3.2-1.5,3.61,3.61,0,0,1-.4,1.3h-1.4V78.5h1.8a2.47,2.47,0,0,0,2.6,2.3C422.2,80.7,423.1,80.2,423.1,79.2Z" fill="#514969"/><path d="M432.1,80.5h0a2.66,2.66,0,0,1-2.6,1.7,2.37,2.37,0,0,1-2.6-2.4h0c0-1.2.7-1.9,2.3-2.3,1.4-.4,3-.7,3-1.9,0-.8-.4-1.3-1.4-1.3a1.55,1.55,0,0,0-.8.2V75a1.26,1.26,0,0,1-1.4,1.4,1.16,1.16,0,0,1-1.2-1.2c0-1.5,1.9-2.3,3.7-2.3,3,0,4,1.3,4,3.6v3c0,.8.2,1,.7,1a.6.6,0,0,0,.4-.1v.9a2.49,2.49,0,0,1-2,.7C433,82.2,432.1,81.7,432.1,80.5ZM432,79V77.1a3.4,3.4,0,0,1-1.3.9,1.46,1.46,0,0,0-.9,1.4v.1c0,.8.4,1.2.9,1.2C431.4,80.8,432,80.2,432,79Z" fill="#514969"/><path d="M437.1,79.4V74.6H436V73.4c1.6-.2,2.2-.8,2.6-2.6H440v2.3h2.5v1.4H440V79c0,1.3.5,1.5,1.4,1.5a3.59,3.59,0,0,0,1.1-.2v.8c-.3.5-1.1.9-2.5.9C438.5,82.2,437.1,81.6,437.1,79.4Z" fill="#514969"/><path d="M181.3,72v7.7c0,.8.3,1,.9,1h.6V82h-6V80.6h.6c.6,0,.9-.1.9-1V72h-.4c-1.5,0-1.8.5-1.8,2.1v.6h-1.6V70.5H185v4.2h-1.6v-.6c0-1.6-.3-2.1-1.8-2.1Z" fill="#514969"/><path d="M192.4,75.8c0-.9-.3-1-.9-1h-.1V73.2h3.9V80c0,.5.1.7.9.7h.2V82h-3.5a4.46,4.46,0,0,1-.4-1.8v-.1a3,3,0,0,1-3,2.1c-1.9,0-2.9-1-2.9-3.3V75.7c0-.8-.2-1-.8-1h0V73.1h3.8v5.8c0,1.1.4,1.6,1.3,1.6s1.7-.8,1.7-2.4V75.8Z" fill="#514969"/><path d="M199.9,78c.1,1.8,1,2.4,2.8,2.4a7.19,7.19,0,0,0,2.4-.5v1a4.09,4.09,0,0,1-3.3,1.2c-3,0-4.7-1.6-4.7-4.6h0a4.33,4.33,0,0,1,4.5-4.6c2.6,0,4,1.5,4,3.7a2.65,2.65,0,0,1-.3,1.4Zm0-1.2h2.9v-.1c0-1.7-.5-2.4-1.4-2.4S200,75,199.9,76.8Z" fill="#514969"/><path d="M245.3,82h-3.1l-2.1-8.6L238,82h-3.2l-2-9.2c-.2-.7-.4-.8-1-.8h-.3V70.5H237V72h-.4c-.9,0-1.1.2-.9.9l1.3,6.8,2.2-9.2h2.7l2.2,9.2,1.3-6.4c.2-.9,0-1.3-1-1.3h-.3V70.5h4.4V72h-.3c-.6,0-.8.1-1,1Z" fill="#514969"/><path d="M251.2,78c.1,1.8,1,2.4,2.8,2.4a7.19,7.19,0,0,0,2.4-.5v1a4.09,4.09,0,0,1-3.3,1.2c-3,0-4.7-1.6-4.7-4.6h0a4.33,4.33,0,0,1,4.5-4.6c2.6,0,4,1.5,4,3.7a2.65,2.65,0,0,1-.3,1.4Zm0-1.2h2.9v-.1c0-1.7-.5-2.4-1.4-2.4S251.3,75,251.2,76.8Z" fill="#514969"/><path d="M264.2,72.4c0-.9-.3-1-.9-1H263V69.9h4.1V80c0,.5.1.7.9.7h.2V82h-3.5a5.86,5.86,0,0,1-.5-1.9,3,3,0,0,1-3,2.1c-2.3,0-3.6-1.9-3.6-4.6h0c0-3,1.6-4.6,3.7-4.6a2.93,2.93,0,0,1,2.8,1.9V72.4Zm-3.5,4.8v.6c0,1.8.6,2.7,1.7,2.7s1.8-1.2,1.8-2.8v-.3c0-1.9-.8-2.8-1.8-2.8S260.7,75.4,260.7,77.2Z" fill="#514969"/><path d="M125.8,121.8V120H127c.8,0,1.2-.2,1.2-1.3V109l-2.8,2.9v-2.6l2.8-2.8h3.9v12.2c0,1.1.4,1.3,1.2,1.3h.9v1.8Z" fill="#514969"/><path d="M184.6,121.8v-3c4.4-2.6,6.6-5.1,6.6-8,0-1.7-.8-2.7-2.2-2.7a2,2,0,0,0-1.1.3v.6a1.6,1.6,0,0,1-1.7,1.8,1.58,1.58,0,0,1-1.7-1.7c0-1.8,2.1-3,5-3,3.2,0,5.8,1.4,5.8,4.8,0,3.6-3.2,5.9-8.2,8.1h4.6c1.2,0,1.5-.3,1.5-1.2v-.3h2.1v4.2H184.6Z" fill="#514969"/><path d="M243.8,118.9a1.55,1.55,0,0,1,1.7-1.6,1.6,1.6,0,0,1,1.7,1.8v.7a2.27,2.27,0,0,0,1.3.3,2.48,2.48,0,0,0,2.8-2.6c0-1.8-.9-2.5-3-2.5h-1.5v-2h1.4c1.9,0,2.8-1,2.8-2.5a2.06,2.06,0,0,0-2.3-2.3,1.8,1.8,0,0,0-1.1.3v.6a1.6,1.6,0,0,1-1.7,1.8,1.58,1.58,0,0,1-1.7-1.7c0-1.8,1.9-3,4.9-3s5.6,1.3,5.6,4.1c0,2-1.3,3.3-3.8,3.6v.1c2.8.2,4.4,1.4,4.4,3.7,0,3-2.4,4.4-6.3,4.4C245.8,122,243.8,120.8,243.8,118.9Z" fill="#514969"/><path d="M303.7,115.6l6.7-9.1h3.7v9.1H316v1.9h-1.9v1.2c0,1.1.4,1.3,1.2,1.3h.7v1.8h-7.9V120h.8c.8,0,1.2-.2,1.2-1.3v-1.2h-6.5v-1.9Zm2.2,0h4.3v-5.9Z" fill="#514969"/><path d="M364.2,118.9a1.55,1.55,0,0,1,1.7-1.6,1.6,1.6,0,0,1,1.7,1.8v.8a3,3,0,0,0,1,.2c1.7,0,2.8-1,2.8-3a2.77,2.77,0,0,0-3.1-3,4,4,0,0,0-2.8,1h-.6v-8.7h9.7v4.3h-2.1v-.3c0-.8-.3-1.1-1.5-1.1h-3.9v3.6a6.68,6.68,0,0,1,3-.6c3,0,5.3,1.5,5.3,4.8,0,3.1-2.3,5-6.1,5C366.1,122,364.2,120.8,364.2,118.9Z" fill="#514969"/><path d="M429.7,122.1c-4.4,0-6.7-2.8-6.7-7.2v-1c0-5.2,3.2-7.9,7.7-7.9,3,0,4.9,1.2,4.9,3a1.58,1.58,0,0,1-1.7,1.7,1.6,1.6,0,0,1-1.7-1.8v-.6a2.68,2.68,0,0,0-1.1-.2c-2.5,0-3.9,1.8-3.9,5.4v.8a4.16,4.16,0,0,1,4.1-2.3c3.3,0,4.9,2,4.9,4.8v.1C436.1,119.9,433.8,122.1,429.7,122.1Zm2.4-5v-.2c0-1.9-.7-2.9-2.4-2.9s-2.6.9-2.6,2.8v.2c0,2.4,1,3.3,2.5,3.3C431.3,120.2,432.1,119.3,432.1,117.1Z" fill="#514969"/><path d="M419.1,171.8V170h1.2c.8,0,1.2-.2,1.2-1.3V159l-2.8,2.9v-2.6l2.8-2.8h3.9v12.2c0,1.1.4,1.3,1.2,1.3h.9v1.8Z" fill="#514969"/><path d="M428.7,168.9a1.55,1.55,0,0,1,1.7-1.6,1.6,1.6,0,0,1,1.7,1.8v.7a2.27,2.27,0,0,0,1.3.3,2.48,2.48,0,0,0,2.8-2.6c0-1.8-.9-2.5-3-2.5h-1.5v-2h1.4c1.9,0,2.8-1,2.8-2.5a2.06,2.06,0,0,0-2.3-2.3,1.8,1.8,0,0,0-1.1.3v.6a1.6,1.6,0,0,1-1.7,1.8,1.58,1.58,0,0,1-1.7-1.7c0-1.8,1.9-3,4.9-3s5.6,1.3,5.6,4.1c0,2-1.3,3.3-3.8,3.6v.1c2.8.2,4.4,1.4,4.4,3.7,0,3-2.4,4.4-6.3,4.4C430.7,172,428.7,170.8,428.7,168.9Z" fill="#514969"/><path d="M359.8,171.8V170H361c.8,0,1.2-.2,1.2-1.3V159l-2.8,2.9v-2.6l2.8-2.8h3.9v12.2c0,1.1.4,1.3,1.2,1.3h.9v1.8Z" fill="#514969"/><path d="M369.6,171.8v-3c4.4-2.6,6.6-5.1,6.6-8,0-1.7-.8-2.7-2.2-2.7a2,2,0,0,0-1.1.3v.6a1.6,1.6,0,0,1-1.7,1.8,1.58,1.58,0,0,1-1.7-1.7c0-1.8,2.1-3,5-3,3.2,0,5.8,1.4,5.8,4.8,0,3.6-3.2,5.9-8.2,8.1h4.6c1.2,0,1.5-.3,1.5-1.2v-.3h2.1v4.2H369.6Z" fill="#514969"/><path d="M301.1,171.8V170h1.2c.8,0,1.2-.2,1.2-1.3V159l-2.8,2.9v-2.6l2.8-2.8h3.9v12.2c0,1.1.4,1.3,1.2,1.3h.9v1.8Z" fill="#514969"/><path d="M311,171.8V170h1.2c.8,0,1.2-.2,1.2-1.3V159l-2.8,2.9v-2.6l2.8-2.8h3.9v12.2c0,1.1.4,1.3,1.2,1.3h.9v1.8Z" fill="#514969"/><path d="M238.4,171.8V170h1.2c.8,0,1.2-.2,1.2-1.3V159l-2.8,2.9v-2.6l2.8-2.8h3.9v12.2c0,1.1.4,1.3,1.2,1.3h.9v1.8Z" fill="#514969"/><path d="M247.7,164.2v-.4c0-5,2.9-7.7,7-7.7s7,2.8,7,7.7v.4c0,5.4-3.1,7.9-7,7.9S247.7,169.6,247.7,164.2Zm9.9.7V163c0-3.4-.9-4.7-2.9-4.7s-2.9,1.3-2.9,4.7v1.9c0,4.1,1.1,5.3,2.9,5.3S257.6,168.9,257.6,164.9Z" fill="#514969"/><path d="M184.1,169.2a1.58,1.58,0,0,1,1.7-1.7,1.6,1.6,0,0,1,1.7,1.8v.8a2.68,2.68,0,0,0,1.1.2c2.5,0,3.9-1.9,3.9-5.6v-.6a4.16,4.16,0,0,1-4.1,2.3c-3.3,0-4.9-2.1-4.9-4.8v-.1c0-3,2.3-5.4,6.4-5.4,4.4,0,6.7,2.8,6.7,7.2v1c0,5.2-3.2,7.9-7.7,7.9C186,172.1,184.1,170.9,184.1,169.2Zm8.4-7.5v-.2c0-2.4-1-3.3-2.5-3.3s-2.4.9-2.4,3.1v.2c0,1.9.7,2.9,2.4,2.9C191.5,164.5,192.5,163.6,192.5,161.7Z" fill="#514969"/><path d="M123.5,167.6v-.2c0-1.9,1.4-3.2,3.7-3.7-1.8-.5-3.1-1.6-3.1-3.4v-.2c0-2.2,2.1-3.9,5.6-3.9s5.6,1.8,5.6,4v.2c0,1.8-1.3,2.9-3.1,3.4,2.3.5,3.7,1.8,3.7,3.7v.2c0,2.9-2.6,4.5-6.2,4.5S123.5,170.5,123.5,167.6Zm8.5-.1V167c0-1.8-.8-2.6-2.2-2.6s-2.2.8-2.2,2.6v.5c0,1.9.9,2.6,2.2,2.6S132,169.5,132,167.5Zm-.2-6.7v-.4c0-1.5-.7-2.2-2-2.2s-2,.7-2,2.2v.4c0,1.5.8,2.2,2,2.2S131.8,162.3,131.8,160.8Z" fill="#514969"/><path d="M66.8,170.1a3.23,3.23,0,0,1,.6-1.8l5-8.9H68c-1.2,0-1.5.4-1.5,1.5v.4H64.4v-5H75v2.8l-4,10.6c-.5,1.3-1.1,2.2-2.4,2.2A1.63,1.63,0,0,1,66.8,170.1Z" fill="#514969"/><path d="M59.3,221.8V220h1.2c.8,0,1.2-.2,1.2-1.3V209l-2.8,2.9v-2.6l2.8-2.8h3.9v12.2c0,1.1.4,1.3,1.2,1.3h.9v1.8Z" fill="#514969"/><path d="M68,215.6l6.7-9.1h3.7v9.1h1.9v1.9H78.4v1.2c0,1.1.4,1.3,1.2,1.3h.7v1.8H72.4V220h.8c.8,0,1.2-.2,1.2-1.3v-1.2H68Zm2.1,0h4.3v-5.9Z" fill="#514969"/><path d="M119.6,221.8V220h1.2c.8,0,1.2-.2,1.2-1.3V209l-2.8,2.9v-2.6l2.8-2.8h3.9v12.2c0,1.1.4,1.3,1.2,1.3h.9v1.8Z" fill="#514969"/><path d="M129.1,218.9a1.55,1.55,0,0,1,1.7-1.6,1.6,1.6,0,0,1,1.7,1.8v.8a3,3,0,0,0,1,.2c1.7,0,2.8-1,2.8-3a2.77,2.77,0,0,0-3.1-3,4,4,0,0,0-2.8,1h-.6v-8.7h9.7v4.3h-2.1v-.3c0-.8-.3-1.1-1.5-1.1H132v3.6a6.68,6.68,0,0,1,3-.6c3,0,5.3,1.5,5.3,4.8,0,3.1-2.3,5-6.1,5C131.1,222,129.1,220.8,129.1,218.9Z" fill="#514969"/><path d="M179.1,221.8V220h1.2c.8,0,1.2-.2,1.2-1.3V209l-2.8,2.9v-2.6l2.8-2.8h3.9v12.2c0,1.1.4,1.3,1.2,1.3h.9v1.8Z" fill="#514969"/><path d="M195.2,222.1c-4.4,0-6.7-2.8-6.7-7.2v-1c0-5.2,3.2-7.9,7.7-7.9,3,0,4.9,1.2,4.9,3a1.58,1.58,0,0,1-1.7,1.7,1.6,1.6,0,0,1-1.7-1.8v-.6a2.68,2.68,0,0,0-1.1-.2c-2.5,0-3.9,1.8-3.9,5.4v.8a4.16,4.16,0,0,1,4.1-2.3c3.3,0,4.9,2,4.9,4.8v.1C201.6,219.9,199.3,222.1,195.2,222.1Zm2.3-5v-.2c0-1.9-.7-2.9-2.4-2.9s-2.6.9-2.6,2.8v.2c0,2.4,1,3.3,2.5,3.3C196.8,220.2,197.5,219.3,197.5,217.1Z" fill="#514969"/><path d="M240.4,221.8V220h1.2c.8,0,1.2-.2,1.2-1.3V209l-2.8,2.9v-2.6l2.8-2.8h3.9v12.2c0,1.1.4,1.3,1.2,1.3h.9v1.8Z" fill="#514969"/><path d="M251.7,220.1a3.23,3.23,0,0,1,.6-1.8l5-8.9h-4.4c-1.2,0-1.5.4-1.5,1.5v.4h-2.1v-5h10.6v2.8l-4,10.6c-.5,1.3-1.1,2.2-2.4,2.2A1.63,1.63,0,0,1,251.7,220.1Z" fill="#514969"/><path d="M299.2,221.8V220h1.2c.8,0,1.2-.2,1.2-1.3V209l-2.8,2.9v-2.6l2.8-2.8h3.9v12.2c0,1.1.4,1.3,1.2,1.3h.9v1.8Z" fill="#514969"/><path d="M308.8,217.6v-.2c0-1.9,1.4-3.2,3.7-3.7-1.8-.5-3.1-1.6-3.1-3.4v-.2c0-2.2,2.1-3.9,5.6-3.9s5.6,1.8,5.6,4v.2c0,1.8-1.3,2.9-3.1,3.4,2.3.5,3.7,1.8,3.7,3.7v.2c0,2.9-2.6,4.5-6.2,4.5S308.8,220.5,308.8,217.6Zm8.5-.1V217c0-1.8-.8-2.6-2.2-2.6s-2.2.8-2.2,2.6v.5c0,1.9.9,2.6,2.2,2.6S317.3,219.5,317.3,217.5Zm-.3-6.7v-.4c0-1.5-.7-2.2-2-2.2s-2,.7-2,2.2v.4c0,1.5.8,2.2,2,2.2S317,212.3,317,210.8Z" fill="#514969"/><path d="M358.8,221.8V220H360c.8,0,1.2-.2,1.2-1.3V209l-2.8,2.9v-2.6l2.8-2.8h3.9v12.2c0,1.1.4,1.3,1.2,1.3h.9v1.8Z" fill="#514969"/><path d="M368.8,219.2a1.58,1.58,0,0,1,1.7-1.7,1.6,1.6,0,0,1,1.7,1.8v.8a2.68,2.68,0,0,0,1.1.2c2.5,0,3.9-1.9,3.9-5.6v-.6a4.16,4.16,0,0,1-4.1,2.3c-3.3,0-4.9-2.1-4.9-4.8v-.1c0-3,2.3-5.4,6.4-5.4,4.4,0,6.7,2.8,6.7,7.2v1c0,5.2-3.2,7.9-7.7,7.9C370.7,222.1,368.8,220.9,368.8,219.2Zm8.4-7.5v-.2c0-2.4-1-3.3-2.5-3.3s-2.4.9-2.4,3.1v.2c0,1.9.7,2.9,2.4,2.9C376.2,214.5,377.2,213.6,377.2,211.7Z" fill="#514969"/><path d="M416.2,221.8v-3c4.4-2.6,6.6-5.1,6.6-8,0-1.7-.8-2.7-2.2-2.7a2,2,0,0,0-1.1.3v.6a1.6,1.6,0,0,1-1.7,1.8,1.58,1.58,0,0,1-1.7-1.7c0-1.8,2.1-3,5-3,3.2,0,5.8,1.4,5.8,4.8,0,3.6-3.2,5.9-8.2,8.1h4.6c1.2,0,1.5-.3,1.5-1.2v-.3h2.1v4.2H416.2Z" fill="#514969"/><path d="M428.6,214.2v-.4c0-5,2.9-7.7,7-7.7s7,2.8,7,7.7v.4c0,5.4-3.1,7.9-7,7.9S428.6,219.6,428.6,214.2Zm9.8.7V213c0-3.4-.9-4.7-2.9-4.7s-2.9,1.3-2.9,4.7v1.9c0,4.1,1.1,5.3,2.9,5.3S438.4,218.9,438.4,214.9Z" fill="#514969"/><path d="M418.2,271.8v-3c4.4-2.6,6.6-5.1,6.6-8,0-1.7-.8-2.7-2.2-2.7a2,2,0,0,0-1.1.3v.6a1.6,1.6,0,0,1-1.7,1.8,1.58,1.58,0,0,1-1.7-1.7c0-1.8,2.1-3,5-3,3.2,0,5.8,1.4,5.8,4.8,0,3.6-3.2,5.9-8.2,8.1h4.6c1.2,0,1.5-.3,1.5-1.2v-.3h2.1v4.2H418.2Z" fill="#514969"/><path d="M432.6,270.1a3.23,3.23,0,0,1,.6-1.8l5-8.9h-4.4c-1.2,0-1.5.4-1.5,1.5v.4h-2.1v-5h10.6v2.8l-4,10.6c-.5,1.3-1.1,2.2-2.4,2.2A1.63,1.63,0,0,1,432.6,270.1Z" fill="#514969"/><path d="M357.3,271.8v-3c4.4-2.6,6.6-5.1,6.6-8,0-1.7-.8-2.7-2.2-2.7a2,2,0,0,0-1.1.3v.6a1.6,1.6,0,0,1-1.7,1.8,1.58,1.58,0,0,1-1.7-1.7c0-1.8,2.1-3,5-3,3.2,0,5.8,1.4,5.8,4.8,0,3.6-3.2,5.9-8.2,8.1h4.6c1.2,0,1.5-.3,1.5-1.2v-.3H368v4.2H357.3Z" fill="#514969"/><path d="M375.9,272.1c-4.4,0-6.7-2.8-6.7-7.2v-1c0-5.2,3.2-7.9,7.7-7.9,3,0,4.9,1.2,4.9,3a1.58,1.58,0,0,1-1.7,1.7,1.6,1.6,0,0,1-1.7-1.8v-.6a2.68,2.68,0,0,0-1.1-.2c-2.5,0-3.9,1.8-3.9,5.4v.8a4.16,4.16,0,0,1,4.1-2.3c3.3,0,4.9,2,4.9,4.8v.1C382.4,269.9,380.1,272.1,375.9,272.1Zm2.4-5v-.2c0-1.9-.7-2.9-2.4-2.9s-2.6.9-2.6,2.8v.2c0,2.4,1,3.3,2.5,3.3C377.6,270.2,378.3,269.3,378.3,267.1Z" fill="#514969"/><path d="M298.3,271.8v-3c4.4-2.6,6.6-5.1,6.6-8,0-1.7-.8-2.7-2.2-2.7a2,2,0,0,0-1.1.3v.6a1.6,1.6,0,0,1-1.7,1.8,1.58,1.58,0,0,1-1.7-1.7c0-1.8,2.1-3,5-3,3.2,0,5.8,1.4,5.8,4.8,0,3.6-3.2,5.9-8.2,8.1h4.6c1.2,0,1.5-.3,1.5-1.2v-.3H309v4.2H298.3Z" fill="#514969"/><path d="M310.2,268.9a1.55,1.55,0,0,1,1.7-1.6,1.6,1.6,0,0,1,1.7,1.8v.8a3,3,0,0,0,1,.2c1.7,0,2.8-1,2.8-3a2.77,2.77,0,0,0-3.1-3,4,4,0,0,0-2.8,1h-.6v-8.7h9.7v4.3h-2.1v-.3c0-.8-.3-1.1-1.5-1.1h-3.9v3.6a6.68,6.68,0,0,1,3-.6c3,0,5.3,1.5,5.3,4.8,0,3.1-2.3,5-6.1,5C312.2,272,310.2,270.8,310.2,268.9Z" fill="#514969"/><path d="M237.8,271.8v-3c4.4-2.6,6.6-5.1,6.6-8,0-1.7-.8-2.7-2.2-2.7a2,2,0,0,0-1.1.3v.6a1.6,1.6,0,0,1-1.7,1.8,1.58,1.58,0,0,1-1.7-1.7c0-1.8,2.1-3,5-3,3.2,0,5.8,1.4,5.8,4.8,0,3.6-3.2,5.9-8.2,8.1h4.6c1.2,0,1.5-.3,1.5-1.2v-.3h2.1v4.2H237.8Z" fill="#514969"/><path d="M249.4,265.6l6.7-9.1h3.7v9.1h1.9v1.9h-1.9v1.2c0,1.1.4,1.3,1.2,1.3h.7v1.8h-7.9V270h.8c.8,0,1.2-.2,1.2-1.3v-1.2h-6.5v-1.9Zm2.1,0h4.3v-5.9Z" fill="#514969"/><path d="M238.8,318.9a1.55,1.55,0,0,1,1.7-1.6,1.6,1.6,0,0,1,1.7,1.8v.7a2.27,2.27,0,0,0,1.3.3,2.48,2.48,0,0,0,2.8-2.6c0-1.8-.9-2.5-3-2.5h-1.5v-2h1.4c1.9,0,2.8-1,2.8-2.5a2.06,2.06,0,0,0-2.3-2.3,1.8,1.8,0,0,0-1.1.3v.6a1.6,1.6,0,0,1-1.7,1.8,1.58,1.58,0,0,1-1.7-1.7c0-1.8,1.9-3,4.9-3s5.6,1.3,5.6,4.1c0,2-1.3,3.3-3.8,3.6v.1c2.8.2,4.4,1.4,4.4,3.7,0,3-2.4,4.4-6.3,4.4C240.8,322,238.8,320.8,238.8,318.9Z" fill="#514969"/><path d="M252.1,321.8V320h1.2c.8,0,1.2-.2,1.2-1.3V309l-2.8,2.9v-2.6l2.8-2.8h3.9v12.2c0,1.1.4,1.3,1.2,1.3h.9v1.8Z" fill="#514969"/><path d="M178.3,271.8v-3c4.4-2.6,6.6-5.1,6.6-8,0-1.7-.8-2.7-2.2-2.7a2,2,0,0,0-1.1.3v.6a1.6,1.6,0,0,1-1.7,1.8,1.58,1.58,0,0,1-1.7-1.7c0-1.8,2.1-3,5-3,3.2,0,5.8,1.4,5.8,4.8,0,3.6-3.2,5.9-8.2,8.1h4.6c1.2,0,1.5-.3,1.5-1.2v-.3H189v4.2H178.3Z" fill="#514969"/><path d="M190.2,268.9a1.55,1.55,0,0,1,1.7-1.6,1.6,1.6,0,0,1,1.7,1.8v.7a2.27,2.27,0,0,0,1.3.3,2.48,2.48,0,0,0,2.8-2.6c0-1.8-.9-2.5-3-2.5h-1.5v-2h1.4c1.9,0,2.8-1,2.8-2.5a2.06,2.06,0,0,0-2.3-2.3,1.8,1.8,0,0,0-1.1.3v.6a1.6,1.6,0,0,1-1.7,1.8,1.58,1.58,0,0,1-1.7-1.7c0-1.8,1.9-3,4.9-3s5.6,1.3,5.6,4.1c0,2-1.3,3.3-3.8,3.6v.1c2.8.2,4.4,1.4,4.4,3.7,0,3-2.4,4.4-6.3,4.4C192.2,272,190.2,270.8,190.2,268.9Z" fill="#514969"/><path d="M176.4,318.9a1.55,1.55,0,0,1,1.7-1.6,1.6,1.6,0,0,1,1.7,1.8v.7a2.27,2.27,0,0,0,1.3.3,2.48,2.48,0,0,0,2.8-2.6c0-1.8-.9-2.5-3-2.5h-1.5v-2h1.4c1.9,0,2.8-1,2.8-2.5a2.06,2.06,0,0,0-2.3-2.3,1.8,1.8,0,0,0-1.1.3v.6a1.6,1.6,0,0,1-1.7,1.8,1.58,1.58,0,0,1-1.7-1.7c0-1.8,1.9-3,4.9-3s5.6,1.3,5.6,4.1c0,2-1.3,3.3-3.8,3.6v.1c2.8.2,4.4,1.4,4.4,3.7,0,3-2.4,4.4-6.3,4.4C178.4,322,176.4,320.8,176.4,318.9Z" fill="#514969"/><path d="M189.3,314.2v-.4c0-5,2.9-7.7,7-7.7s7,2.8,7,7.7v.4c0,5.4-3.1,7.9-7,7.9S189.3,319.6,189.3,314.2Zm9.8.7V313c0-3.4-.9-4.7-2.9-4.7s-2.9,1.3-2.9,4.7v1.9c0,4.1,1.1,5.3,2.9,5.3S199.1,318.9,199.1,314.9Z" fill="#514969"/><path d="M118.2,271.8v-3c4.4-2.6,6.6-5.1,6.6-8,0-1.7-.8-2.7-2.2-2.7a2,2,0,0,0-1.1.3v.6a1.6,1.6,0,0,1-1.7,1.8,1.58,1.58,0,0,1-1.7-1.7c0-1.8,2.1-3,5-3,3.2,0,5.8,1.4,5.8,4.8,0,3.6-3.2,5.9-8.2,8.1h4.6c1.2,0,1.5-.3,1.5-1.2v-.3h2.1v4.2H118.2Z" fill="#514969"/><path d="M130.4,271.8v-3c4.4-2.6,6.6-5.1,6.6-8,0-1.7-.8-2.7-2.2-2.7a2,2,0,0,0-1.1.3v.6a1.6,1.6,0,0,1-1.7,1.8,1.58,1.58,0,0,1-1.7-1.7c0-1.8,2.1-3,5-3,3.2,0,5.8,1.4,5.8,4.8,0,3.6-3.2,5.9-8.2,8.1h4.6c1.2,0,1.5-.3,1.5-1.2v-.3h2.1v4.2H130.4Z" fill="#514969"/><path d="M59,271.8v-3c4.4-2.6,6.6-5.1,6.6-8,0-1.7-.8-2.7-2.2-2.7a2,2,0,0,0-1.1.3v.6a1.6,1.6,0,0,1-1.7,1.8,1.58,1.58,0,0,1-1.7-1.7c0-1.8,2.1-3,5-3,3.2,0,5.8,1.4,5.8,4.8,0,3.6-3.2,5.9-8.2,8.1h4.6c1.2,0,1.5-.3,1.5-1.2v-.3h2.1v4.2H59Z" fill="#514969"/><path d="M71.6,271.8V270h1.2c.8,0,1.2-.2,1.2-1.3V259l-2.8,2.9v-2.6l2.8-2.8h4v12.2c0,1.1.4,1.3,1.2,1.3h.9v1.8Z" fill="#514969"/><path d="M57.3,321.8v-3c4.4-2.6,6.6-5.1,6.6-8,0-1.7-.8-2.7-2.2-2.7a2,2,0,0,0-1.1.3v.6a1.6,1.6,0,0,1-1.7,1.8,1.58,1.58,0,0,1-1.7-1.7c0-1.8,2.1-3,5-3,3.2,0,5.8,1.4,5.8,4.8,0,3.6-3.2,5.9-8.2,8.1h4.6c1.2,0,1.5-.3,1.5-1.2v-.3H68v4.2H57.3Z" fill="#514969"/><path d="M69.4,317.6v-.2c0-1.9,1.4-3.2,3.7-3.7-1.8-.5-3.1-1.6-3.1-3.4v-.2c0-2.2,2.1-3.9,5.6-3.9s5.6,1.8,5.6,4v.2c0,1.8-1.3,2.9-3.1,3.4,2.3.5,3.7,1.8,3.7,3.7v.2c0,2.9-2.6,4.5-6.2,4.5S69.4,320.5,69.4,317.6Zm8.4-.1V317c0-1.8-.8-2.6-2.2-2.6s-2.2.8-2.2,2.6v.5c0,1.9.9,2.6,2.2,2.6S77.8,319.5,77.8,317.5Zm-.2-6.7v-.4c0-1.5-.7-2.2-2-2.2s-2,.7-2,2.2v.4c0,1.5.8,2.2,2,2.2S77.6,312.3,77.6,310.8Z" fill="#514969"/><path d="M117.1,321.8v-3c4.4-2.6,6.6-5.1,6.6-8,0-1.7-.8-2.7-2.2-2.7a2,2,0,0,0-1.1.3v.6a1.6,1.6,0,0,1-1.7,1.8,1.58,1.58,0,0,1-1.7-1.7c0-1.8,2.1-3,5-3,3.2,0,5.8,1.4,5.8,4.8,0,3.6-3.2,5.9-8.2,8.1h4.6c1.2,0,1.5-.3,1.5-1.2v-.3h2.1v4.2H117.1Z" fill="#514969"/><path d="M129.8,319.2a1.58,1.58,0,0,1,1.7-1.7,1.6,1.6,0,0,1,1.7,1.8v.8a2.68,2.68,0,0,0,1.1.2c2.5,0,3.9-1.9,3.9-5.6v-.6a4.16,4.16,0,0,1-4.1,2.3c-3.3,0-4.9-2.1-4.9-4.8v-.1c0-3,2.3-5.4,6.4-5.4,4.4,0,6.7,2.8,6.7,7.2v1c0,5.2-3.2,7.9-7.7,7.9C131.7,322.1,129.8,320.9,129.8,319.2Zm8.4-7.5v-.2c0-2.4-1-3.3-2.5-3.3s-2.4.9-2.4,3.1v.2c0,1.9.7,2.9,2.4,2.9C137.2,314.5,138.2,313.6,138.2,311.7Z" fill="#514969"/></svg>