<svg xmlns="http://www.w3.org/2000/svg" width="499" height="370" viewBox="0 0 499 370"><title>october2018</title><rect x="39.5" y="138.36" width="60" height="200" fill="#ede8fa"/><rect x="399.5" y="88.36" width="60" height="200" fill="#ede8fa"/><line x1="159.5" y1="93.96" x2="159.5" y2="130.96" fill="none" stroke="#12a27e" stroke-linecap="round" stroke-linejoin="round" opacity="0.75" style="isolation:isolate"/><line x1="99.5" y1="93.96" x2="99.5" y2="130.96" fill="none" stroke="#12a27e" stroke-linecap="round" stroke-linejoin="round" opacity="0.75" style="isolation:isolate"/><line x1="219.5" y1="93.96" x2="219.5" y2="130.96" fill="none" stroke="#12a27e" stroke-linecap="round" stroke-linejoin="round" opacity="0.75" style="isolation:isolate"/><line x1="279.5" y1="93.96" x2="279.5" y2="130.96" fill="none" stroke="#12a27e" stroke-linecap="round" stroke-linejoin="round" opacity="0.75" style="isolation:isolate"/><line x1="339.5" y1="93.96" x2="339.5" y2="130.96" fill="none" stroke="#12a27e" stroke-linecap="round" stroke-linejoin="round" opacity="0.75" style="isolation:isolate"/><line x1="159.5" y1="143.96" x2="159.5" y2="180.96" fill="none" stroke="#12a27e" stroke-linecap="round" stroke-linejoin="round" opacity="0.75" style="isolation:isolate"/><line x1="219.5" y1="143.96" x2="219.5" y2="180.96" fill="none" stroke="#12a27e" stroke-linecap="round" stroke-linejoin="round" opacity="0.75" style="isolation:isolate"/><line x1="279.5" y1="143.96" x2="279.5" y2="180.96" fill="none" stroke="#12a27e" stroke-linecap="round" stroke-linejoin="round" opacity="0.75" style="isolation:isolate"/><line x1="339.5" y1="143.96" x2="339.5" y2="180.96" fill="none" stroke="#12a27e" stroke-linecap="round" stroke-linejoin="round" opacity="0.75" style="isolation:isolate"/><line x1="159.5" y1="193.96" x2="159.5" y2="230.96" fill="none" stroke="#12a27e" stroke-linecap="round" stroke-linejoin="round" opacity="0.75" style="isolation:isolate"/><line x1="219.5" y1="193.96" x2="219.5" y2="230.96" fill="none" stroke="#12a27e" stroke-linecap="round" stroke-linejoin="round" opacity="0.75" style="isolation:isolate"/><line x1="279.5" y1="193.96" x2="279.5" y2="230.96" fill="none" stroke="#12a27e" stroke-linecap="round" stroke-linejoin="round" opacity="0.75" style="isolation:isolate"/><line x1="339.5" y1="193.96" x2="339.5" y2="230.96" fill="none" stroke="#12a27e" stroke-linecap="round" stroke-linejoin="round" opacity="0.75" style="isolation:isolate"/><line x1="159.5" y1="243.96" x2="159.5" y2="280.96" fill="none" stroke="#12a27e" stroke-linecap="round" stroke-linejoin="round" opacity="0.75" style="isolation:isolate"/><line x1="219.5" y1="243.96" x2="219.5" y2="280.96" fill="none" stroke="#12a27e" stroke-linecap="round" stroke-linejoin="round" opacity="0.75" style="isolation:isolate"/><line x1="279.5" y1="243.96" x2="279.5" y2="280.96" fill="none" stroke="#12a27e" stroke-linecap="round" stroke-linejoin="round" opacity="0.75" style="isolation:isolate"/><line x1="339.5" y1="243.96" x2="339.5" y2="280.96" fill="none" stroke="#12a27e" stroke-linecap="round" stroke-linejoin="round" opacity="0.75" style="isolation:isolate"/><line x1="159.5" y1="293.96" x2="159.5" y2="330.96" fill="none" stroke="#12a27e" stroke-linecap="round" stroke-linejoin="round" opacity="0.75" style="isolation:isolate"/><line x1="219.5" y1="293.96" x2="219.5" y2="330.96" fill="none" stroke="#12a27e" stroke-linecap="round" stroke-linejoin="round" opacity="0.75" style="isolation:isolate"/><line x1="279.5" y1="293.96" x2="279.5" y2="330.96" fill="none" stroke="#12a27e" stroke-linecap="round" stroke-linejoin="round" opacity="0.75" style="isolation:isolate"/><line x1="339.5" y1="293.96" x2="339.5" y2="330.96" fill="none" stroke="#12a27e" stroke-linecap="round" stroke-linejoin="round" opacity="0.75" style="isolation:isolate"/><line x1="399.5" y1="293.96" x2="399.5" y2="330.96" fill="none" stroke="#12a27e" stroke-linecap="round" stroke-linejoin="round" opacity="0.75" style="isolation:isolate"/><line x1="39.5" y1="88.36" x2="459.5" y2="88.36" fill="none" stroke="#12a27e" stroke-linejoin="round" stroke-width="3"/><line x1="39.5" y1="138.36" x2="459.5" y2="138.36" fill="none" stroke="#12a27e" stroke-linejoin="round" stroke-width="3" style="isolation:isolate"/><line x1="39.5" y1="188.36" x2="459.5" y2="188.36" fill="none" stroke="#12a27e" stroke-linejoin="round" stroke-width="3" style="isolation:isolate"/><line x1="39.5" y1="238.36" x2="459.5" y2="238.36" fill="none" stroke="#12a27e" stroke-linejoin="round" stroke-width="3" style="isolation:isolate"/><line x1="39.5" y1="288.36" x2="459.5" y2="288.36" fill="none" stroke="#12a27e" stroke-linejoin="round" stroke-width="3" style="isolation:isolate"/><line x1="39.5" y1="338.36" x2="459.5" y2="338.36" fill="none" stroke="#12a27e" stroke-linejoin="round" stroke-width="3" style="isolation:isolate"/><line x1="39.5" y1="63.36" x2="459.5" y2="63.36" fill="none" stroke="#12a27e" stroke-linejoin="round" stroke-width="3"/><path d="M183.37,38.77V38.7c0-7.2,4.47-11.88,11.56-11.88s11.55,4.68,11.55,11.88v.07c0,8.07-5.15,12.1-11.55,12.1S183.37,46.84,183.37,38.77Zm16.92.44V37.8c0-5.22-1.69-7.74-5.36-7.74s-5.37,2.52-5.37,7.74v1.41c0,6.33,1.95,8.56,5.37,8.56S200.29,45.54,200.29,39.21Z" fill="#30264d"/><path d="M217.79,50.72c-5.65,0-9.22-3.38-9.22-9.25v0c0-6,4.22-9.18,9.29-9.18,3.92,0,6.8,1.51,6.8,4.57a2.31,2.31,0,0,1-2.44,2.34c-1.62,0-2.7-.72-2.7-2.84v-1a2.61,2.61,0,0,0-1.37-.29c-2.05,0-3.75,1.44-3.75,5.69v.76c0,4.1,1.55,5.86,5.19,5.86a9.67,9.67,0,0,0,4.68-1.36v2.34C223.37,49.46,221.17,50.72,217.79,50.72Z" fill="#30264d"/><path d="M228.16,45.14V35.53h-2.23V33.16c3.24-.33,4.39-1.66,5.21-5.11H234v4.64h5v2.84h-5v9c0,2.55.94,3.09,2.88,3.09a7.16,7.16,0,0,0,2.23-.39V49c-.68.9-2.23,1.84-5.07,1.84C230.82,50.8,228.16,49.46,228.16,45.14Z" fill="#30264d"/><path d="M240.15,41.33v-.07c0-5.76,4-9,9.25-9s9.28,3.24,9.28,9v.07c0,6.73-4.5,9.43-9.28,9.43S240.15,48,240.15,41.33Zm12.63.54v-1.3c0-4-1.33-5.5-3.38-5.5s-3.35,1.54-3.35,5.5v1.3c0,5,1.47,6.19,3.35,6.19S252.78,46.87,252.78,41.87Z" fill="#30264d"/><path d="M267.22,36.51A5.85,5.85,0,0,1,273,32.26c4.68,0,7.23,3.71,7.23,8.92v0c0,6.12-3.09,9.5-7.49,9.5-3.2,0-5.11-1.72-5.93-4.64a7.54,7.54,0,0,1-1.59,4.25h-3.78V31.07c0-1.76-.61-2.05-1.87-2.05h-.18V26.1h7.85Zm7.09,5.18V40.57c0-3.24-1.23-4.86-3.46-4.86s-3.63,2.06-3.63,5.19v.68c0,3.85,1.51,5.94,3.63,5.94S274.31,45.72,274.31,41.69Z" fill="#30264d"/><path d="M288,42.41c.18,3.63,1.95,4.89,5.51,4.89a11.33,11.33,0,0,0,4.75-1v2.09c-.86,1.11-3.24,2.37-6.69,2.37-5.91,0-9.47-3.24-9.47-9.21v0c0-5.83,3.92-9.21,9-9.21,5.29,0,8,3,8,7.38a6.56,6.56,0,0,1-.54,2.77ZM288,40h5.87v-.29c0-3.42-.9-4.78-2.7-4.78C289.14,34.89,288.06,36.29,288,40Z" fill="#30264d"/><path d="M300.7,50.33V47.66h.46c1.26,0,1.52-.28,1.52-1.54V37.87c0-1.76-.62-2-1.88-2h-.1V32.69h6.73a12.55,12.55,0,0,1,.93,4.79v.39c.58-3.81,3-5.43,5-5.43a2.81,2.81,0,0,1,3.09,3,2.75,2.75,0,0,1-2.84,3A2.61,2.61,0,0,1,311,36.58c-1.51,1-2.52,3.7-2.52,6.48V46c0,1.44.4,1.65,2,1.65h.75v2.67Z" fill="#30264d"/><path d="M60.28,79.16c0-.76-.38-1-1.08-1.28a22.17,22.17,0,0,1-3.64-1,3.09,3.09,0,0,1-1.6-3c0-2.52,2-3.58,3.87-3.58a2.94,2.94,0,0,1,2.69,1.23,3.3,3.3,0,0,1,.46-1h1.39v3.29H60.59a2.12,2.12,0,0,0-2.31-1.94c-1.11,0-1.82.52-1.82,1.42,0,.68.31,1,1.08,1.26,1,.36,2.83.5,3.93,1.13a3,3,0,0,1,1.62,3c0,2.34-1.71,3.56-4.25,3.56a3.44,3.44,0,0,1-3.17-1.53A3.74,3.74,0,0,1,55.26,82H53.84V78.4h1.83a2.43,2.43,0,0,0,2.63,2.27C59.4,80.67,60.28,80.22,60.28,79.16Z" fill="#2d214f"/><path d="M70.38,75.77c0-.88-.31-1-.94-1h-.07V73.18h3.91V80c0,.52.11.72.86.72h.24V82h-3.5a5,5,0,0,1-.37-1.84v-.09a2.94,2.94,0,0,1-3,2.15c-1.85,0-2.93-1-2.93-3.3V75.77c0-.85-.22-1-.85-1h0V73.18h3.78v5.76c0,1.08.42,1.6,1.27,1.6,1,0,1.67-.84,1.67-2.43Z" fill="#2d214f"/><path d="M84.69,80c0,.52.11.72.86.72h.13V82h-5V80.67h.18c.73,0,.93-.07.93-.65V76.24c0-1-.41-1.46-1.24-1.46-1,0-1.75.87-1.75,2.38V80c0,.54.13.65.94.65h.18V82h-5V80.67h.24c.63,0,.75-.15.75-.78V75.77c0-.88-.3-1-.93-1h-.06V73.18h3.44a5.36,5.36,0,0,1,.4,2v.15A3,3,0,0,1,81.85,73c1.74,0,2.84,1.05,2.84,3.19Z" fill="#2d214f"/><path d="M117,70.5l2.06,7.61,2.07-7.61h5.45V72h-.41c-.63,0-.94.15-.94,1v6.75c0,.81.31,1,.94,1h.41V82h-5.76V80.61h.34c.81,0,1.12-.1,1.12-.82v-7.6L119.55,82h-2.16l-2.7-9.74v7.53c0,.72.31.82,1.12.82h.34V82h-4.49V80.61h.42c.63,0,.93-.14.93-1V72.91c0-.81-.3-1-.93-1h-.42V70.5Z" fill="#2d214f"/><path d="M127.2,77.5v0a4.64,4.64,0,0,1,9.27,0v0a4.64,4.64,0,1,1-9.27,0Zm6.32.27v-.65c0-2-.67-2.75-1.69-2.75s-1.68.77-1.68,2.75v.65c0,2.5.74,3.1,1.68,3.1S133.52,80.27,133.52,77.77Z" fill="#2d214f"/><path d="M147,80c0,.52.11.72.86.72H148V82h-5V80.67h.18c.74,0,.94-.07.94-.65V76.24c0-1-.41-1.46-1.24-1.46-1,0-1.75.87-1.75,2.38V80c0,.54.13.65.94.65h.18V82h-5V80.67h.24c.63,0,.75-.15.75-.78V75.77c0-.88-.3-1-.93-1h-.06V73.18h3.44a5.36,5.36,0,0,1,.4,2v.15A3,3,0,0,1,144.17,73C145.92,73,147,74,147,76.15Z" fill="#2d214f"/><path d="M296,72v7.67c0,.81.31,1,.94,1h.57V82h-6V80.61h.59c.63,0,.94-.14.94-1V72h-.42c-1.51,0-1.76.49-1.76,2.11v.55h-1.59V70.5h10.47v4.15H298.2V74.1c0-1.62-.25-2.11-1.76-2.11Z" fill="#2d214f"/><path d="M310.26,80c0,.52.11.72.87.72h.12V82h-5V80.67h.18c.73,0,.93-.07.93-.65V76.24c0-1-.41-1.46-1.24-1.46-1,0-1.75.87-1.75,2.38V80c0,.54.13.65.94.65h.18V82h-5V80.67h.24c.63,0,.75-.15.75-.78V72.37c0-.88-.3-1-.93-1h-.06V69.88h3.89v5.41A3,3,0,0,1,307.42,73c1.74,0,2.84,1.05,2.84,3.19Z" fill="#2d214f"/><path d="M318.32,75.77c0-.88-.3-1-.93-1h-.07V73.18h3.9V80c0,.52.11.72.87.72h.23V82h-3.49a4.91,4.91,0,0,1-.38-1.84v-.09a2.93,2.93,0,0,1-3,2.15c-1.86,0-2.94-1-2.94-3.3V75.77c0-.85-.22-1-.85-1h0V73.18h3.78v5.76c0,1.08.41,1.6,1.26,1.6,1,0,1.67-.84,1.67-2.43Z" fill="#2d214f"/><path d="M322.86,82V80.67h.23c.63,0,.76-.15.76-.78V75.77c0-.88-.31-1-.94-1h-.05V73.18h3.37a6.32,6.32,0,0,1,.46,2.39v.2c.29-1.91,1.48-2.72,2.51-2.72a1.41,1.41,0,0,1,1.55,1.51,1.38,1.38,0,0,1-1.43,1.5,1.3,1.3,0,0,1-1.31-.94,4.05,4.05,0,0,0-1.26,3.24v1.48c0,.72.2.83,1,.83h.37V82Z" fill="#2d214f"/><path d="M362.31,79.73c0,.79.31.88,1.12.88H364V82H358V80.61h.41c.63,0,.94-.14.94-1V72.91c0-.81-.31-1-.94-1H358V70.5h9.56v3.42H366v-.4c0-1.26-.27-1.53-1.75-1.53h-1.93v3.76h1c1,0,1.15-.19,1.15-1.19v-.34h1.28v4.52h-1.28v-.47c0-.91-.2-1.18-1.15-1.18h-1Z" fill="#2d214f"/><path d="M368.25,82V80.67h.24c.63,0,.75-.15.75-.78V75.77c0-.88-.3-1-.94-1h-.05V73.18h3.37a6.21,6.21,0,0,1,.47,2.39v.2c.28-1.91,1.47-2.72,2.5-2.72a1.41,1.41,0,0,1,1.55,1.51,1.38,1.38,0,0,1-1.43,1.5,1.3,1.3,0,0,1-1.31-.94,4.05,4.05,0,0,0-1.26,3.24v1.48c0,.72.2.83,1,.83h.38V82Z" fill="#2d214f"/><path d="M380.73,79.89c0,.65.12.78.81.78h.27V82h-5V80.67h.27c.63,0,.76-.15.76-.78V75.77c0-.88-.31-1-.94-1h-.09V73.18h3.93ZM377.59,71a1.55,1.55,0,1,1,1.55,1.53A1.56,1.56,0,0,1,377.59,71Z" fill="#2d214f"/><path d="M423.09,79.16c0-.76-.37-1-1.08-1.28a21.81,21.81,0,0,1-3.63-1,3.08,3.08,0,0,1-1.61-3c0-2.52,2-3.58,3.87-3.58a2.94,2.94,0,0,1,2.69,1.23,3.17,3.17,0,0,1,.47-1h1.38v3.29H423.4a2.11,2.11,0,0,0-2.3-1.94c-1.12,0-1.82.52-1.82,1.42,0,.68.3,1,1.08,1.26,1,.36,2.82.5,3.92,1.13a3,3,0,0,1,1.62,3c0,2.34-1.71,3.56-4.25,3.56a3.44,3.44,0,0,1-3.17-1.53,3.74,3.74,0,0,1-.41,1.28h-1.42V78.4h1.83a2.43,2.43,0,0,0,2.63,2.27C422.21,80.67,423.09,80.22,423.09,79.16Z" fill="#2d214f"/><path d="M432.06,80.54v-.05a2.52,2.52,0,0,1-2.63,1.74,2.4,2.4,0,0,1-2.65-2.41v0c0-1.18.69-1.89,2.27-2.32s3-.7,3-1.87c0-.76-.38-1.32-1.42-1.32a1.74,1.74,0,0,0-.83.17V75a1.26,1.26,0,0,1-1.37,1.44,1.17,1.17,0,0,1-1.22-1.19c0-1.51,1.87-2.27,3.7-2.27,3,0,4,1.33,4,3.64v3c0,.77.24,1,.74,1a2,2,0,0,0,.43,0v.92a2.49,2.49,0,0,1-2,.7C433,82.2,432.06,81.69,432.06,80.54ZM432,79V77.18a4.16,4.16,0,0,1-1.34.9,1.38,1.38,0,0,0-.93,1.38v.09c0,.81.37,1.24.93,1.24C431.39,80.79,432,80.2,432,79Z" fill="#2d214f"/><path d="M437.13,79.41V74.6H436V73.41c1.62-.16,2.19-.83,2.61-2.55H440v2.32h2.52V74.6H440v4.52c0,1.28.47,1.55,1.44,1.55a3.49,3.49,0,0,0,1.12-.2v.85a3.07,3.07,0,0,1-2.54.91C438.46,82.23,437.13,81.57,437.13,79.41Z" fill="#2d214f"/><path d="M181.31,72v7.67c0,.81.31,1,.94,1h.57V82h-6V80.61h.59c.63,0,.94-.14.94-1V72h-.42c-1.51,0-1.76.49-1.76,2.11v.55h-1.59V70.5h10.47v4.15h-1.59V74.1c0-1.62-.25-2.11-1.76-2.11Z" fill="#2d214f"/><path d="M192.38,75.77c0-.88-.31-1-.94-1h-.07V73.18h3.91V80c0,.52.11.72.86.72h.24V82h-3.49a4.91,4.91,0,0,1-.38-1.84v-.09a2.94,2.94,0,0,1-3,2.15c-1.85,0-2.93-1-2.93-3.3V75.77c0-.85-.22-1-.85-1h0V73.18h3.78v5.76c0,1.08.41,1.6,1.26,1.6,1,0,1.67-.84,1.67-2.43Z" fill="#2d214f"/><path d="M199.94,78c.09,1.82,1,2.45,2.75,2.45a5.67,5.67,0,0,0,2.38-.52v1a4.36,4.36,0,0,1-3.35,1.19c-2.95,0-4.73-1.62-4.73-4.61v0A4.3,4.3,0,0,1,201.47,73c2.65,0,4,1.5,4,3.69a3.37,3.37,0,0,1-.27,1.39Zm0-1.22h2.94v-.15c0-1.71-.46-2.39-1.36-2.39S200,75,199.94,76.82Z" fill="#2d214f"/><path d="M245.26,82h-3.12l-2.08-8.55L237.91,82h-3.18l-2-9.2c-.2-.74-.36-.85-1-.85h-.27V70.5H237V72h-.36c-.88,0-1.08.18-.92.94L237,79.68l2.23-9.18h2.7l2.24,9.16,1.31-6.39c.2-.92,0-1.32-1-1.32h-.31V70.5h4.39V72h-.28c-.65,0-.8.13-1,1Z" fill="#2d214f"/><path d="M251.21,78c.09,1.82,1,2.45,2.76,2.45a5.71,5.71,0,0,0,2.38-.52v1A4.38,4.38,0,0,1,253,82.2c-3,0-4.74-1.62-4.74-4.61v0A4.3,4.3,0,0,1,252.75,73c2.64,0,4,1.5,4,3.69a3.37,3.37,0,0,1-.27,1.39Zm0-1.22h2.94v-.15c0-1.71-.45-2.39-1.35-2.39S251.27,75,251.21,76.82Z" fill="#2d214f"/><path d="M264.25,72.37c0-.88-.31-1-.94-1H263V69.88h4.13V80c0,.52.1.72.86.72h.24V82h-3.46a4.88,4.88,0,0,1-.45-1.89,3,3,0,0,1-3,2.09c-2.28,0-3.56-1.93-3.56-4.61v0c0-3,1.58-4.59,3.74-4.59a2.76,2.76,0,0,1,2.76,1.89Zm-3.55,4.84v.6c0,1.8.59,2.73,1.73,2.73s1.82-1.15,1.82-2.75v-.33c0-1.87-.76-2.82-1.82-2.82S260.7,75.45,260.7,77.21Z" fill="#2d214f"/><path d="M125.84,121.77v-1.84H127c.84,0,1.25-.2,1.25-1.28V109l-2.79,2.88v-2.64l2.79-2.83h3.93v12.21c0,1.08.41,1.28,1.25,1.28h.94v1.84Z" fill="#3c2c6a"/><path d="M184.62,121.77v-3c4.37-2.64,6.62-5.06,6.62-8,0-1.7-.81-2.71-2.18-2.71a2.16,2.16,0,0,0-1.11.28V109a1.58,1.58,0,0,1-1.7,1.78,1.61,1.61,0,0,1-1.7-1.71c0-1.75,2.06-3,5-3,3.19,0,5.79,1.39,5.79,4.85s-3.24,5.88-8.21,8.11h4.61c1.17,0,1.51-.33,1.51-1.17v-.32h2.11v4.2Z" fill="#3c2c6a"/><path d="M243.83,118.94a1.71,1.71,0,0,1,3.41.19v.7a2.89,2.89,0,0,0,4.08-2.38c0-1.75-.89-2.52-3-2.52h-1.46v-2h1.41c1.92,0,2.76-1,2.76-2.5a2.05,2.05,0,0,0-2.28-2.32,1.87,1.87,0,0,0-1.05.26v.6a1.71,1.71,0,1,1-3.41.07c0-1.75,1.92-3,4.94-3s5.64,1.32,5.64,4.11c0,2-1.27,3.31-3.84,3.62v.07c2.79.24,4.4,1.44,4.4,3.72,0,2.95-2.4,4.39-6.34,4.39C245.78,122,243.83,120.79,243.83,118.94Z" fill="#3c2c6a"/><path d="M303.74,115.56l6.7-9.12h3.72v9.12H316v1.94h-1.87v1.15c0,1.08.41,1.28,1.25,1.28h.74v1.84h-7.94v-1.84H309c.84,0,1.25-.2,1.25-1.28V117.5h-6.48Zm2.16,0h4.32v-5.88Z" fill="#3c2c6a"/><path d="M364.16,118.94a1.71,1.71,0,0,1,3.41.19v.77a2.74,2.74,0,0,0,3.74-2.76c0-1.8-.95-3-3.07-3a4.1,4.1,0,0,0-2.78,1h-.6v-8.73h9.69v4.27h-2.11v-.31c0-.84-.31-1.11-1.51-1.11h-3.86v3.6a6.83,6.83,0,0,1,3-.64c3,0,5.33,1.51,5.33,4.75s-2.28,5-6.12,5C366.11,122,364.16,120.79,364.16,118.94Z" fill="#3c2c6a"/><path d="M429.69,122.13c-4.39,0-6.67-2.8-6.67-7.17v-1c0-5.18,3.22-7.87,7.66-7.87,3,0,4.87,1.2,4.87,3a1.71,1.71,0,1,1-3.41-.07v-.65a2.42,2.42,0,0,0-1.1-.21c-2.5,0-3.91,1.77-3.91,5.4v.77a4.09,4.09,0,0,1,4.05-2.31c3.27,0,4.95,2,4.95,4.78v.12C436.13,119.93,433.82,122.13,429.69,122.13Zm2.38-5.06v-.22c0-1.92-.72-2.92-2.38-2.92s-2.56.88-2.56,2.76v.16c0,2.43.95,3.32,2.54,3.32S432.07,119.3,432.07,117.07Z" fill="#3c2c6a"/><path d="M419.14,171.77v-1.84h1.18c.84,0,1.25-.2,1.25-1.28V159l-2.79,2.88v-2.64l2.79-2.83h3.93v12.21c0,1.08.41,1.28,1.25,1.28h.94v1.84Z" fill="#3c2c6a"/><path d="M428.72,168.94a1.71,1.71,0,0,1,3.41.19v.7a2.48,2.48,0,0,0,1.27.26,2.52,2.52,0,0,0,2.81-2.64c0-1.75-.89-2.52-3-2.52h-1.47v-2h1.42c1.92,0,2.76-1,2.76-2.5a2.05,2.05,0,0,0-2.28-2.32,1.91,1.91,0,0,0-1.06.26v.6a1.7,1.7,0,1,1-3.4.07c0-1.75,1.92-3,4.94-3s5.64,1.32,5.64,4.11c0,2-1.27,3.31-3.84,3.62v.07c2.79.24,4.39,1.44,4.39,3.72,0,2.95-2.4,4.39-6.33,4.39C430.66,172,428.72,170.79,428.72,168.94Z" fill="#3c2c6a"/><path d="M359.78,171.77v-1.84H361c.84,0,1.25-.2,1.25-1.28V159l-2.79,2.88v-2.64l2.79-2.83h3.93v12.21c0,1.08.41,1.28,1.25,1.28h.94v1.84Z" fill="#3c2c6a"/><path d="M369.55,171.77v-3c4.37-2.64,6.63-5.06,6.63-8,0-1.7-.82-2.71-2.19-2.71a2.09,2.09,0,0,0-1.1.28V159a1.59,1.59,0,0,1-1.71,1.78,1.61,1.61,0,0,1-1.7-1.71c0-1.75,2.06-3,5-3,3.19,0,5.78,1.39,5.78,4.85s-3.24,5.88-8.21,8.11h4.61c1.18,0,1.51-.33,1.51-1.17v-.32h2.11v4.2Z" fill="#3c2c6a"/><path d="M301.09,171.77v-1.84h1.18c.84,0,1.24-.2,1.24-1.28V159l-2.78,2.88v-2.64l2.78-2.83h3.94v12.21c0,1.08.41,1.28,1.25,1.28h.93v1.84Z" fill="#3c2c6a"/><path d="M311,171.77v-1.84h1.18c.84,0,1.25-.2,1.25-1.28V159l-2.79,2.88v-2.64l2.79-2.83h3.93v12.21c0,1.08.41,1.28,1.25,1.28h.94v1.84Z" fill="#3c2c6a"/><path d="M238.36,171.77v-1.84h1.18c.84,0,1.25-.2,1.25-1.28V159L238,161.91v-2.64l2.79-2.83h3.93v12.21c0,1.08.41,1.28,1.25,1.28h.94v1.84Z" fill="#3c2c6a"/><path d="M247.75,164.19v-.36c0-5,2.85-7.73,7-7.73s7,2.76,7,7.73v.36c0,5.4-3.1,7.94-7,7.94S247.75,169.59,247.75,164.19Zm9.84.67v-1.92c0-3.36-.94-4.68-2.86-4.68s-2.88,1.32-2.88,4.68v1.92c0,4.08,1.13,5.26,2.88,5.26S257.59,168.94,257.59,164.86Z" fill="#3c2c6a"/><path d="M184.07,169.18a1.7,1.7,0,1,1,3.4.07v.82a2.18,2.18,0,0,0,1.11.22c2.52,0,3.91-1.95,3.91-5.57v-.6a4.06,4.06,0,0,1-4.06,2.3,4.53,4.53,0,0,1-4.92-4.85v-.12c0-3,2.28-5.35,6.41-5.35,4.42,0,6.67,2.81,6.67,7.18v1c0,5.19-3.21,7.87-7.65,7.87C186,172.13,184.07,170.93,184.07,169.18Zm8.4-7.46v-.17c0-2.42-1-3.31-2.55-3.31s-2.42.86-2.42,3.09v.22c0,1.92.74,2.93,2.37,2.93A2.43,2.43,0,0,0,192.47,161.72Z" fill="#3c2c6a"/><path d="M123.55,167.65v-.2c0-1.89,1.39-3.21,3.7-3.74-1.85-.5-3.08-1.63-3.08-3.43v-.22c0-2.16,2.09-3.94,5.62-3.94s5.64,1.78,5.64,4v.22c0,1.75-1.27,2.86-3.12,3.36,2.28.53,3.72,1.85,3.72,3.72v.19c0,2.88-2.64,4.49-6.24,4.49S123.55,170.5,123.55,167.65Zm8.47-.1v-.5c0-1.76-.81-2.57-2.23-2.57s-2.23.81-2.23,2.57v.5c0,1.94.91,2.57,2.23,2.57S132,169.49,132,167.55Zm-.26-6.77v-.36c0-1.51-.7-2.23-2-2.23s-2,.72-2,2.23v.36c0,1.54.77,2.19,2,2.19S131.76,162.32,131.76,160.78Z" fill="#3c2c6a"/><path d="M66.78,170.14a3.47,3.47,0,0,1,.6-1.77l5-8.89H68.05c-1.2,0-1.54.41-1.54,1.52v.41H64.4v-5H75v2.8l-4,10.59c-.51,1.3-1.06,2.16-2.36,2.16A1.75,1.75,0,0,1,66.78,170.14Z" fill="#3c2c6a"/><path d="M59.28,221.77v-1.84h1.17c.84,0,1.25-.2,1.25-1.28V209l-2.78,2.88v-2.64l2.78-2.83h3.94v12.21c0,1.08.41,1.28,1.25,1.28h.93v1.84Z" fill="#3c2c6a"/><path d="M68,215.56l6.7-9.12h3.72v9.12h1.87v1.94H78.41v1.15c0,1.08.4,1.28,1.24,1.28h.75v1.84h-8v-1.84h.77c.84,0,1.25-.2,1.25-1.28V217.5H68Zm2.16,0h4.32v-5.88Z" fill="#3c2c6a"/><path d="M119.61,221.77v-1.84h1.18c.84,0,1.25-.2,1.25-1.28V209l-2.79,2.88v-2.64l2.79-2.83H126v12.21c0,1.08.41,1.28,1.25,1.28h.94v1.84Z" fill="#3c2c6a"/><path d="M129.14,218.94a1.71,1.71,0,0,1,3.41.19v.77a2.55,2.55,0,0,0,1,.19,2.61,2.61,0,0,0,2.76-3c0-1.8-1-2.95-3.07-2.95a4.08,4.08,0,0,0-2.78,1h-.6v-8.73h9.7v4.27h-2.12v-.31c0-.84-.31-1.11-1.51-1.11h-3.86v3.6a6.83,6.83,0,0,1,3-.64c3,0,5.33,1.51,5.33,4.75s-2.28,5-6.12,5C131.09,222,129.14,220.79,129.14,218.94Z" fill="#3c2c6a"/><path d="M179.11,221.77v-1.84h1.18c.84,0,1.24-.2,1.24-1.28V209l-2.78,2.88v-2.64l2.78-2.83h3.94v12.21c0,1.08.41,1.28,1.25,1.28h.93v1.84Z" fill="#3c2c6a"/><path d="M195.17,222.13c-4.4,0-6.68-2.8-6.68-7.17v-1c0-5.18,3.22-7.87,7.66-7.87,3,0,4.87,1.2,4.87,3a1.71,1.71,0,1,1-3.41-.07v-.65a2.39,2.39,0,0,0-1.1-.21c-2.5,0-3.91,1.77-3.91,5.4v.77a4.1,4.1,0,0,1,4.05-2.31c3.27,0,4.95,2,4.95,4.78v.12C201.6,219.93,199.29,222.13,195.17,222.13Zm2.37-5.06v-.22c0-1.92-.72-2.92-2.37-2.92s-2.57.88-2.57,2.76v.16c0,2.43,1,3.32,2.54,3.32S197.54,219.3,197.54,217.07Z" fill="#3c2c6a"/><path d="M240.37,221.77v-1.84h1.17c.84,0,1.25-.2,1.25-1.28V209L240,211.91v-2.64l2.78-2.83h3.94v12.21c0,1.08.4,1.28,1.24,1.28h.94v1.84Z" fill="#3c2c6a"/><path d="M251.67,220.14a3.47,3.47,0,0,1,.6-1.77l5-8.88h-4.37c-1.2,0-1.53.4-1.53,1.51v.41h-2.12v-5h10.59v2.81l-4,10.58c-.51,1.3-1.06,2.16-2.35,2.16A1.75,1.75,0,0,1,251.67,220.14Z" fill="#3c2c6a"/><path d="M299.23,221.77v-1.84h1.18c.84,0,1.24-.2,1.24-1.28V209l-2.78,2.88v-2.64l2.78-2.83h3.94v12.21c0,1.08.41,1.28,1.25,1.28h.94v1.84Z" fill="#3c2c6a"/><path d="M308.78,217.65v-.2c0-1.89,1.39-3.21,3.7-3.74-1.85-.5-3.07-1.63-3.07-3.43v-.22c0-2.16,2.08-3.93,5.61-3.93s5.64,1.77,5.64,4v.22c0,1.75-1.27,2.86-3.12,3.36,2.28.53,3.72,1.85,3.72,3.72v.19c0,2.88-2.64,4.49-6.24,4.49S308.78,220.5,308.78,217.65Zm8.47-.1v-.5c0-1.76-.81-2.57-2.23-2.57s-2.23.81-2.23,2.57v.5c0,1.94.91,2.57,2.23,2.57S317.25,219.49,317.25,217.55Zm-.26-6.77v-.36c0-1.51-.7-2.23-2-2.23s-2,.72-2,2.23v.36c0,1.54.77,2.19,2,2.19S317,212.32,317,210.78Z" fill="#3c2c6a"/><path d="M358.76,221.77v-1.84h1.18c.84,0,1.25-.2,1.25-1.28V209l-2.79,2.88v-2.64l2.79-2.83h3.93v12.21c0,1.08.41,1.28,1.25,1.28h.94v1.84Z" fill="#3c2c6a"/><path d="M368.82,219.18a1.71,1.71,0,1,1,3.41.07v.82a2.14,2.14,0,0,0,1.1.22c2.52,0,3.91-1.95,3.91-5.57v-.6a4,4,0,0,1-4.05,2.3,4.53,4.53,0,0,1-4.92-4.85v-.12c0-3,2.28-5.35,6.4-5.35,4.42,0,6.68,2.81,6.68,7.18v1c0,5.19-3.22,7.87-7.66,7.87C370.71,222.13,368.82,220.93,368.82,219.18Zm8.4-7.46v-.17c0-2.42-1-3.31-2.55-3.31s-2.42.86-2.42,3.09v.22c0,1.92.74,2.93,2.38,2.93A2.42,2.42,0,0,0,377.22,211.72Z" fill="#3c2c6a"/><path d="M416.24,221.77v-3c4.37-2.64,6.63-5.06,6.63-8,0-1.7-.82-2.71-2.19-2.71a2,2,0,0,0-1.1.29V209a1.58,1.58,0,0,1-1.71,1.78,1.61,1.61,0,0,1-1.7-1.71c0-1.75,2.06-3,5-3,3.19,0,5.78,1.39,5.78,4.85s-3.24,5.88-8.21,8.11h4.61c1.17,0,1.51-.33,1.51-1.17v-.32H427v4.2Z" fill="#3c2c6a"/><path d="M428.6,214.19v-.36c0-5,2.86-7.73,7-7.73s7,2.76,7,7.73v.36c0,5.4-3.09,7.94-7,7.94S428.6,219.59,428.6,214.19Zm9.84.67v-1.92c0-3.36-.94-4.68-2.86-4.68s-2.87,1.32-2.87,4.68v1.92c0,4.08,1.12,5.26,2.87,5.26S438.44,218.94,438.44,214.86Z" fill="#3c2c6a"/><path d="M418.18,271.77v-2.95c4.37-2.64,6.63-5.06,6.63-8,0-1.7-.82-2.71-2.18-2.71a2,2,0,0,0-1.11.29V259a1.58,1.58,0,0,1-1.7,1.78,1.62,1.62,0,0,1-1.71-1.71c0-1.75,2.07-2.95,5-2.95,3.19,0,5.78,1.39,5.78,4.85s-3.24,5.88-8.2,8.11h4.6c1.18,0,1.52-.33,1.52-1.17v-.32h2.11v4.2Z" fill="#3c2c6a"/><path d="M432.58,270.14a3.47,3.47,0,0,1,.6-1.77l5-8.88h-4.36c-1.2,0-1.54.4-1.54,1.51v.41h-2.11v-5h10.58v2.81l-4,10.58c-.5,1.3-1.05,2.16-2.35,2.16A1.76,1.76,0,0,1,432.58,270.14Z" fill="#3c2c6a"/><path d="M357.27,271.77v-2.95c4.37-2.64,6.63-5.06,6.63-8,0-1.7-.82-2.71-2.19-2.71a2,2,0,0,0-1.1.29V259a1.58,1.58,0,0,1-1.7,1.78,1.62,1.62,0,0,1-1.71-1.71c0-1.75,2.07-2.95,5-2.95,3.19,0,5.78,1.39,5.78,4.85s-3.24,5.88-8.21,8.11h4.61c1.18,0,1.52-.33,1.52-1.17v-.32H368v4.2Z" fill="#3c2c6a"/><path d="M376,272.13c-4.4,0-6.68-2.8-6.68-7.17v-1c0-5.18,3.22-7.87,7.66-7.87,3,0,4.87,1.2,4.87,2.95a1.71,1.71,0,1,1-3.41-.07v-.65a2.36,2.36,0,0,0-1.1-.21c-2.5,0-3.91,1.77-3.91,5.4v.77a4.11,4.11,0,0,1,4.06-2.31c3.26,0,4.94,2,4.94,4.78v.12C382.38,269.93,380.08,272.13,376,272.13Zm2.37-5.06v-.22c0-1.92-.72-2.92-2.37-2.92s-2.57.88-2.57,2.76v.16c0,2.43,1,3.32,2.54,3.32S378.32,269.3,378.32,267.07Z" fill="#3c2c6a"/><path d="M298.32,271.77v-2.95c4.37-2.64,6.62-5.06,6.62-8,0-1.7-.81-2.71-2.18-2.71a2.07,2.07,0,0,0-1.11.29V259a1.58,1.58,0,0,1-1.7,1.78,1.61,1.61,0,0,1-1.7-1.71c0-1.75,2.06-2.95,5-2.95,3.2,0,5.79,1.39,5.79,4.85s-3.24,5.88-8.21,8.11h4.61c1.17,0,1.51-.33,1.51-1.17v-.32h2.11v4.2Z" fill="#3c2c6a"/><path d="M310.22,268.94a1.71,1.71,0,0,1,3.41.19v.77a2.55,2.55,0,0,0,1,.19,2.62,2.62,0,0,0,2.77-2.95c0-1.8-1-2.95-3.08-2.95a4.08,4.08,0,0,0-2.78,1h-.6v-8.73h9.7v4.27H318.5v-.31c0-.84-.31-1.11-1.51-1.11h-3.86v3.6a6.83,6.83,0,0,1,3-.64c3,0,5.33,1.51,5.33,4.75s-2.28,5-6.12,5C312.17,272,310.22,270.79,310.22,268.94Z" fill="#3c2c6a"/><path d="M237.82,271.77v-2.95c4.37-2.64,6.63-5.06,6.63-8,0-1.7-.82-2.71-2.19-2.71a2,2,0,0,0-1.1.29V259a1.58,1.58,0,0,1-1.71,1.78,1.61,1.61,0,0,1-1.7-1.71c0-1.75,2.06-2.95,5-2.95,3.19,0,5.78,1.39,5.78,4.85s-3.24,5.88-8.21,8.11H245c1.18,0,1.51-.33,1.51-1.17v-.32h2.11v4.2Z" fill="#3c2c6a"/><path d="M249.39,265.56l6.7-9.12h3.72v9.12h1.87v1.94h-1.87v1.15c0,1.08.4,1.28,1.24,1.28h.75v1.84h-8v-1.84h.77c.84,0,1.25-.2,1.25-1.28V267.5h-6.48Zm2.16,0h4.32v-5.88Z" fill="#3c2c6a"/><path d="M238.84,318.94a1.71,1.71,0,0,1,3.41.19v.7a2.89,2.89,0,0,0,4.08-2.38c0-1.75-.89-2.52-3-2.52h-1.46v-2h1.41c1.92,0,2.76-1,2.76-2.49a2.06,2.06,0,0,0-2.28-2.33,1.87,1.87,0,0,0-1,.26v.6a1.71,1.71,0,1,1-3.41.07c0-1.75,1.92-2.95,4.94-2.95s5.64,1.32,5.64,4.11c0,2-1.27,3.31-3.84,3.62v.07c2.79.24,4.39,1.44,4.39,3.72,0,2.95-2.4,4.39-6.33,4.39C240.79,322,238.84,320.79,238.84,318.94Z" fill="#3c2c6a"/><path d="M252.07,321.77v-1.84h1.17c.84,0,1.25-.2,1.25-1.28V309l-2.78,2.88v-2.64l2.78-2.83h3.94v12.21c0,1.08.4,1.28,1.24,1.28h.94v1.84Z" fill="#3c2c6a"/><path d="M178.27,271.77v-2.95c4.37-2.64,6.62-5.06,6.62-8,0-1.7-.81-2.71-2.18-2.71a2,2,0,0,0-1.1.29V259a1.59,1.59,0,0,1-1.71,1.78,1.61,1.61,0,0,1-1.7-1.71c0-1.75,2.06-2.95,5-2.95,3.2,0,5.79,1.39,5.79,4.85s-3.24,5.88-8.21,8.11h4.61c1.17,0,1.51-.33,1.51-1.17v-.32H189v4.2Z" fill="#3c2c6a"/><path d="M190.22,268.94a1.71,1.71,0,0,1,3.41.19v.7a2.89,2.89,0,0,0,4.08-2.38c0-1.75-.89-2.52-3-2.52h-1.46v-2h1.41c1.92,0,2.76-1,2.76-2.49a2.06,2.06,0,0,0-2.28-2.33,1.87,1.87,0,0,0-1,.26v.6a1.71,1.71,0,1,1-3.41.07c0-1.75,1.92-2.95,4.94-2.95s5.64,1.32,5.64,4.11c0,2-1.27,3.31-3.84,3.62v.07c2.79.24,4.39,1.44,4.39,3.72,0,2.95-2.4,4.39-6.33,4.39C192.17,272,190.22,270.79,190.22,268.94Z" fill="#3c2c6a"/><path d="M176.43,318.94a1.71,1.71,0,0,1,3.41.19v.7a2.89,2.89,0,0,0,4.08-2.38c0-1.75-.89-2.52-3-2.52h-1.46v-2h1.41c1.92,0,2.76-1,2.76-2.49a2.06,2.06,0,0,0-2.28-2.33,1.87,1.87,0,0,0-1,.26v.6a1.71,1.71,0,1,1-3.41.07c0-1.75,1.92-2.95,4.94-2.95s5.64,1.32,5.64,4.11c0,2-1.27,3.31-3.84,3.62v.07c2.79.24,4.4,1.44,4.4,3.72,0,2.95-2.4,4.39-6.34,4.39C178.38,322,176.43,320.79,176.43,318.94Z" fill="#3c2c6a"/><path d="M189.3,314.19v-.36c0-5,2.85-7.73,7-7.73s7,2.76,7,7.73v.36c0,5.4-3.09,7.94-7,7.94S189.3,319.59,189.3,314.19Zm9.84.67v-1.92c0-3.36-.94-4.68-2.86-4.68s-2.88,1.32-2.88,4.68v1.92c0,4.08,1.13,5.26,2.88,5.26S199.14,318.94,199.14,314.86Z" fill="#3c2c6a"/><path d="M118.23,271.77v-2.95c4.37-2.64,6.63-5.06,6.63-8,0-1.7-.82-2.71-2.19-2.71a2,2,0,0,0-1.1.29V259a1.58,1.58,0,0,1-1.7,1.78,1.62,1.62,0,0,1-1.71-1.71c0-1.75,2.07-2.95,5-2.95,3.19,0,5.78,1.39,5.78,4.85s-3.24,5.88-8.21,8.11h4.61c1.18,0,1.52-.33,1.52-1.17v-.32H129v4.2Z" fill="#3c2c6a"/><path d="M130.38,271.77v-2.95c4.37-2.64,6.62-5.06,6.62-8,0-1.7-.81-2.71-2.18-2.71a2.07,2.07,0,0,0-1.11.29V259a1.58,1.58,0,0,1-1.7,1.78,1.61,1.61,0,0,1-1.7-1.71c0-1.75,2.06-2.95,5-2.95,3.19,0,5.79,1.39,5.79,4.85s-3.24,5.88-8.21,8.11h4.61c1.17,0,1.51-.33,1.51-1.17v-.32h2.11v4.2Z" fill="#3c2c6a"/><path d="M59.05,271.77v-2.95c4.37-2.64,6.62-5.06,6.62-8,0-1.7-.81-2.71-2.18-2.71a2,2,0,0,0-1.1.29V259a1.59,1.59,0,0,1-1.71,1.78,1.61,1.61,0,0,1-1.7-1.71c0-1.75,2.06-2.95,5-2.95,3.2,0,5.79,1.39,5.79,4.85s-3.24,5.88-8.21,8.11h4.61c1.17,0,1.51-.33,1.51-1.17v-.32H69.8v4.2Z" fill="#3c2c6a"/><path d="M71.65,271.77v-1.84h1.18c.84,0,1.24-.2,1.24-1.28V259l-2.78,2.88v-2.64l2.78-2.83H78v12.21c0,1.08.41,1.28,1.25,1.28h.93v1.84Z" fill="#3c2c6a"/><path d="M57.31,321.77v-2.95c4.37-2.64,6.62-5.06,6.62-8,0-1.7-.81-2.71-2.18-2.71a2,2,0,0,0-1.1.29V309a1.59,1.59,0,0,1-1.71,1.78,1.61,1.61,0,0,1-1.7-1.71c0-1.75,2.06-2.95,5-2.95,3.2,0,5.79,1.39,5.79,4.85s-3.24,5.88-8.21,8.11h4.61c1.17,0,1.51-.33,1.51-1.17v-.32h2.11v4.2Z" fill="#3c2c6a"/><path d="M69.36,317.65v-.2c0-1.89,1.39-3.21,3.69-3.74-1.84-.5-3.07-1.63-3.07-3.43v-.22c0-2.16,2.09-3.93,5.62-3.93s5.64,1.77,5.64,4v.22c0,1.75-1.27,2.86-3.12,3.36,2.28.53,3.72,1.85,3.72,3.72v.19c0,2.88-2.64,4.49-6.24,4.49S69.36,320.5,69.36,317.65Zm8.47-.1v-.5c0-1.76-.82-2.57-2.23-2.57s-2.23.81-2.23,2.57v.5c0,1.94.91,2.57,2.23,2.57S77.83,319.49,77.83,317.55Zm-.26-6.77v-.36c0-1.51-.7-2.23-2-2.23s-2,.72-2,2.23v.36c0,1.54.77,2.19,2,2.19S77.57,312.32,77.57,310.78Z" fill="#3c2c6a"/><path d="M117.09,321.77v-2.95c4.37-2.64,6.63-5.06,6.63-8,0-1.7-.82-2.71-2.19-2.71a2,2,0,0,0-1.1.29V309a1.58,1.58,0,0,1-1.7,1.78,1.62,1.62,0,0,1-1.71-1.71c0-1.75,2.07-2.95,5-2.95,3.19,0,5.78,1.39,5.78,4.85s-3.24,5.88-8.21,8.11h4.61c1.18,0,1.52-.33,1.52-1.17v-.32h2.11v4.2Z" fill="#3c2c6a"/><path d="M129.77,319.18a1.7,1.7,0,1,1,3.4.07v.82a2.18,2.18,0,0,0,1.11.22c2.52,0,3.91-2,3.91-5.57v-.6a4,4,0,0,1-4.06,2.3,4.53,4.53,0,0,1-4.92-4.85v-.12c0-3,2.28-5.35,6.41-5.35,4.42,0,6.67,2.81,6.67,7.18v1c0,5.19-3.21,7.87-7.65,7.87C131.66,322.13,129.77,320.93,129.77,319.18Zm8.4-7.46v-.17c0-2.42-1-3.31-2.55-3.31s-2.42.86-2.42,3.09v.22c0,1.92.74,2.93,2.37,2.93A2.43,2.43,0,0,0,138.17,311.72Z" fill="#3c2c6a"/></svg>