<svg xmlns="http://www.w3.org/2000/svg" width="500" height="392" viewBox="0 0 500 392"><title>opensign</title><path d="M21.9,42.3l455.3-7.9a12.08,12.08,0,0,1,12.3,11.9l5.3,302.9a12.08,12.08,0,0,1-11.9,12.3L27.6,369.4a12.08,12.08,0,0,1-12.3-11.9L10,54.6A12.08,12.08,0,0,1,21.9,42.3Z" fill="#ede8fa"/><path d="M18.9,36.2l455.3-7.9a12.08,12.08,0,0,1,12.3,11.9l5.3,302.9a12.08,12.08,0,0,1-11.9,12.3L24.6,363.3a12.08,12.08,0,0,1-12.3-11.9L7,48.6A12.23,12.23,0,0,1,18.9,36.2Z" fill="#514969"/><path d="M392.2,335.4l-308.8-20c-27.5-1.8-49.1-26.6-49.3-56.8L32.8,114.5c-.3-32.2,23.6-58.3,53-58l326.9,3.8c31.1.4,55.1,30.1,51.5,64L447.4,284.6C444.2,314.9,420,337.2,392.2,335.4Z" fill="#ede8fa"/><path d="M395.3,339.4c-1.1,0-2.2,0-3.4-.1l-308.8-20c-29.4-1.9-52.6-28.5-52.9-60.6L29,114.6A64,64,0,0,1,46,70C56.5,58.8,70.4,52.6,85.1,52.6h.6l326.9,3.8c15.8.2,30.4,7.3,41,20.1a65.18,65.18,0,0,1,14.3,48.2L451.1,285c-3.2,30.5-26.8,53.9-54.9,54.4Zm-311-279a46.14,46.14,0,0,0-33,15,55.77,55.77,0,0,0-14.8,39l1.3,144.2c.3,28,20.4,51.2,45.8,52.9l308.8,20a28.1,28.1,0,0,0,2.9.1c24.7,0,45.5-20.4,48.3-47.4l16.8-160.4A56.86,56.86,0,0,0,448,81.6c-9.2-11-21.8-17.2-35.4-17.4L85.1,60.5Z" fill="#3d384f" stroke="#ede8fa" stroke-miterlimit="10" stroke-width="0.75"/><path d="M85.1,53.9h.6l326.9,3.8c15.4.2,29.6,7.2,40,19.6a63.8,63.8,0,0,1,14,47.3L449.8,285c-3.1,30.2-26.3,52.8-53.6,53.2h-.9c-1.1,0-2.2,0-3.3-.1l-308.8-20c-28.7-1.9-51.4-28-51.7-59.4L30.2,114.5A62.16,62.16,0,0,1,46.9,70.8C57.2,59.9,70.7,53.9,85.1,53.9m310.2,279c25.2,0,46.7-20.7,49.6-48.5L461.6,124a58.61,58.61,0,0,0-12.7-43.2c-9.4-11.3-22.3-17.7-36.3-17.8L85.7,59.2H84.4A47.59,47.59,0,0,0,50.5,74.6a57.07,57.07,0,0,0-15.2,39.9l1.3,144.2c.3,28.7,20.9,52.4,47,54.1l308.8,20c1,0,2,.1,2.9.1M85.1,51.4h0a54.43,54.43,0,0,0-40,17.8,64.74,64.74,0,0,0-17.3,45.5l1.2,144c.3,32.8,24,59.9,54,61.9l308.8,20c1.1.1,2.3.1,3.4.1h.9c28.7-.5,52.8-24.4,56.1-55.5L469,124.9a66.72,66.72,0,0,0-14.5-49.2c-10.9-13-25.8-20.3-41.9-20.5L85.7,51.4Zm310.2,279a26.2,26.2,0,0,1-2.8-.1l-308.8-20c-24.8-1.6-44.4-24.3-44.6-51.6L37.8,114.5A54.64,54.64,0,0,1,52.3,76.3,45.27,45.27,0,0,1,84.4,61.7h1.3l326.9,3.8c13.2.2,25.5,6.2,34.5,16.9a56.11,56.11,0,0,1,12.2,41.3L442.5,284c-2.9,26.4-23.1,46.3-47.2,46.4Z" fill="#ede8fa"/><path d="M59.9,269.8c-.6-32.6,25.7-55.5,56-56.1,26.5-.5,40.6,13.7,41,35.7.5,28.3-21.2,54.2-56.7,54.9C80.9,304.6,60.4,296.3,59.9,269.8Zm64.3-24.1c-.1-8-2.9-11.4-8.9-11.3-13.3.2-22.4,23.6-22.2,38.5.1,7.8,3.5,11.1,8.9,11C116.1,283.6,124.5,258.5,124.2,245.7Z" fill="#514969"/><path d="M171.3,289.6c-.2-9.3,7-26.4,10.3-48.3a80.47,80.47,0,0,0-10.3,3.9l-3.3,6.2c-3.7-4-7-10.1-7.1-15.3-.3-17.1,19.6-23.5,40.5-23.8,33.4-.6,55.3,14.3,55.7,34.9.3,19.4-16.4,29.8-31.4,30.1-8.7.2-15.1-1.9-19.5-5.4-1.4,6.1-2.8,11.8-4.1,16.4l8.4,3.8c-7.2,7.9-15.4,10.8-22.7,10.9C176.6,303.1,171.4,297.4,171.3,289.6Zm40.1-50.3c-.7,7.5-1.8,14.9-3,21.8,11.9-1,18-6.3,17.9-11.7C226.3,245.8,221.1,241.1,211.4,239.3Z" fill="#514969"/><path d="M309.4,234.4c-2.9.1-6.5.4-10.5.5-.5,3.3-1,6.7-1.6,10.1a81,81,0,0,1,15.5-1.8c6-.1,10.8,1.7,10.9,8.3a24.51,24.51,0,0,1-3.1,11.3,62.55,62.55,0,0,0-12.3-.9c-3.1,0-9.4.3-14.8.7-1,3.8-1.9,7.4-2.9,10.8,9.8-1,19-1.7,24.9-1.8,12.2-.2,16.7,5.3,16.8,12.2.1,5.8-2.5,10.9-5.4,15.5-14.3-3.1-43.5-1.3-55.9-1.1-8.4.1-11.7-5.5-11.8-11.9-.1-3.4,1-5.9,1.9-9.4a411.52,411.52,0,0,0,8.3-41.2c-6.1-1.3-9.1-5-9.2-10.6a30.16,30.16,0,0,1,2.6-11.5c17.3-.3,44.7-3.8,58.3-4s17.6,4.7,17.8,11.1c.1,5.6-2.1,10.9-4.8,15.6C329.2,234.5,316.8,234.3,309.4,234.4Z" fill="#514969"/><path d="M341,284.9c-.3-15.1,9.9-38.3,17.5-51.3-4,.1-7.9.3-11.4.3a17.08,17.08,0,0,1-3-9.7c-.2-12.9,13.1-15.2,23.3-15.4a112.06,112.06,0,0,1,15.3.8c10.2,1.2,18.7,27.4,24.4,51.5,3.7-13.3,7.1-28,7.8-38.5l-6.9-4c6.1-6.4,14-10.3,22.1-10.4,10.7-.2,16.3,4.9,16.4,14.4.3,14.3-10.1,46-21,67.4-3,6-6.9,9-16.9,9.1-8,.1-10.9-1.2-13.3-8.6-4-11.9-9.6-29.9-14.2-43-3.6,12.4-7.7,28.2-8.6,38l6.9,4c-6.5,6.4-14.5,10.3-22,10.5C347,300.1,341.2,294.9,341,284.9Z" fill="#514969"/><path d="M54.8,266.9c-.6-32.6,25.7-55.5,56-56.1,26.5-.5,40.6,13.7,41,35.7.5,28.3-21.2,54.2-56.7,54.8C75.9,301.7,55.3,293.4,54.8,266.9Zm64.4-24.1c-.1-8-2.9-11.4-8.9-11.3-13.3.2-22.5,23.6-22.2,38.5.1,7.8,3.5,11.1,8.9,11C111,280.7,119.4,255.5,119.2,242.8Z" fill="#ede8fa"/><path d="M166.2,286.7c-.2-9.3,7-26.4,10.3-48.3a80.47,80.47,0,0,0-10.3,3.9l-3.3,6.2c-3.7-4-7-10.1-7.1-15.3-.3-17.1,19.6-23.5,40.5-23.8,33.4-.6,55.3,14.3,55.7,34.9.3,19.4-16.4,29.8-31.4,30.1-8.7.1-15.1-1.9-19.6-5.4-1.4,6.1-2.8,11.8-4.1,16.4l8.4,3.8c-7.2,7.9-15.4,10.8-22.7,10.9C171.6,300.2,166.3,294.4,166.2,286.7Zm40.2-50.4c-.7,7.5-1.8,14.9-3,21.8,12-1,18-6.3,17.9-11.7C221.2,242.9,216.1,238.2,206.4,236.3Z" fill="#ede8fa"/><path d="M304.4,231.5c-2.9.1-6.5.4-10.5.5-.5,3.3-1,6.7-1.6,10.1a81,81,0,0,1,15.5-1.8c6-.1,10.8,1.7,10.9,8.3a24.51,24.51,0,0,1-3.1,11.3,63.12,63.12,0,0,0-12.3-.9c-3.1,0-9.4.3-14.8.7-1,3.8-1.9,7.4-2.9,10.8,9.8-1,19-1.7,24.9-1.8,12.2-.2,16.7,5.3,16.8,12.2.1,5.8-2.5,10.9-5.5,15.5-14.3-3.1-43.5-1.3-55.9-1.1-8.4.1-11.7-5.5-11.8-11.9-.1-3.4,1-5.9,1.9-9.4a411.52,411.52,0,0,0,8.3-41.2c-6.1-1.3-9.1-5-9.2-10.6a28.51,28.51,0,0,1,2.7-11.5c17.3-.3,44.7-3.8,58.3-4s17.6,4.7,17.7,11.1c.1,5.6-2.1,10.9-4.8,15.6C324.1,231.6,311.7,231.4,304.4,231.5Z" fill="#ede8fa"/><path d="M336,282c-.3-15.1,9.9-38.3,17.5-51.3-4,.1-7.9.3-11.4.3a17.08,17.08,0,0,1-3-9.7c-.2-12.9,13.1-15.2,23.3-15.4a112.06,112.06,0,0,1,15.3.8c10.2,1.2,18.7,27.4,24.4,51.5,3.7-13.3,7.1-28,7.8-38.5l-6.9-4c6.1-6.4,14-10.3,22.1-10.4,10.7-.2,16.3,4.9,16.4,14.4.3,14.3-10.1,46-21,67.4-3,6-6.9,9-16.8,9.1-8,.1-10.9-1.2-13.3-8.6-4-11.9-9.6-29.9-14.2-43-3.6,12.4-7.7,28.1-8.6,38l6.9,4c-6.5,6.4-14.5,10.3-22,10.5C342,297.2,336.2,292,336,282Z" fill="#ede8fa"/><path d="M49.8,264c-.6-32.6,25.7-55.5,56-56.1,26.5-.5,40.6,13.7,41,35.7.5,28.3-21.2,54.2-56.7,54.8C70.8,298.8,50.3,290.5,49.8,264Zm64.3-24.1c-.1-8-2.9-11.4-8.9-11.3-13.3.2-22.4,23.6-22.2,38.5.1,7.8,3.4,11.1,8.9,11,14.1-.3,22.4-25.5,22.2-38.2Z" fill="#12a27e"/><path d="M161.1,283.8c-.2-9.3,7-26.4,10.3-48.3a80.47,80.47,0,0,0-10.3,3.9l-3.3,6.2c-3.7-4-7-10.1-7.1-15.3-.3-17.1,19.6-23.5,40.5-23.8,33.4-.6,55.3,14.3,55.7,34.9.3,19.5-16.4,29.8-31.4,30.1-8.7.1-15.1-1.9-19.6-5.4-1.4,6.1-2.8,11.7-4.1,16.4l8.4,3.8c-7.2,7.9-15.5,10.7-22.7,10.9C166.6,297.3,161.3,291.5,161.1,283.8Zm40.2-50.4c-.7,7.5-1.8,14.9-3,21.8,12-1,18-6.3,17.9-11.7C216.1,240,211,235.3,201.3,233.4Z" fill="#12a27e"/><path d="M299.3,228.6c-2.9,0-6.5.4-10.5.4-.5,3.3-1,6.7-1.6,10.1a81,81,0,0,1,15.5-1.8c6-.1,10.8,1.7,10.9,8.2a25.25,25.25,0,0,1-3.1,11.4,63.69,63.69,0,0,0-12.3-.9c-3.1.1-9.4.3-14.8.7-1,3.8-1.9,7.4-2.9,10.8,9.8-1,19-1.7,24.9-1.8,12.2-.2,16.7,5.3,16.8,12.2.1,5.9-2.5,10.9-5.5,15.5-14.3-3.1-43.5-1.3-55.9-1.1-8.4.1-11.7-5.5-11.8-11.9-.1-3.4,1-5.9,1.9-9.4a389.79,389.79,0,0,0,8.2-41.2c-6.1-1.3-9.1-5-9.2-10.6a28.51,28.51,0,0,1,2.7-11.5c17.3-.3,44.7-3.8,58.3-4s17.6,4.7,17.7,11.1c.1,5.6-2.1,10.9-4.8,15.6C319,228.6,306.7,228.5,299.3,228.6Z" fill="#12a27e"/><path d="M331,279c-.3-15.1,9.9-38.3,17.5-51.3-3.9.1-7.9.3-11.4.3a17.08,17.08,0,0,1-3-9.7c-.2-12.9,13.1-15.2,23.3-15.4a112.06,112.06,0,0,1,15.3.8c10.2,1.2,18.7,27.4,24.4,51.5,3.7-13.3,7.1-28,7.8-38.5l-6.9-4c6.1-6.4,14-10.3,22.1-10.4,10.7-.2,16.3,4.9,16.4,14.4.3,14.3-10.1,46-21,67.4-3,6-6.9,9-16.8,9.1-8,.1-10.9-1.2-13.4-8.6-4-11.9-9.6-29.9-14.2-43-3.6,12.4-7.7,28.1-8.6,38l6.9,4c-6.5,6.4-14.5,10.3-22,10.5C336.9,294.3,331.1,289.1,331,279Z" fill="#12a27e"/><path d="M135.4,98.3c4.2,1.4,5.9,5.2,6.4,9.9,1.1,8.6-1.9,20.4-1.3,26.2.2,2.8-2.4,4.5-5.2,4.9s-5.6-.6-5.9-2.8c-1-8.4,7-23.3,5.9-32.2a8.23,8.23,0,0,0-1.3-3.7c-11.8,1.7-21.4,35.1-18.9,55.4,1.2,9.5,5.1,16.2,12.8,15.3,9.1-1.1,14.1-10.6,17.6-18.8.5-1.2,1.1-2.1,1.9-2.2.3,0,.6.2.7.8a4.42,4.42,0,0,1-.2,2c-2,8.3-8.7,24.4-22.6,26.1-12.2,1.5-18.6-8.9-20.3-22.8-2.9-23.6,7.7-57.3,24.9-59.4C132.1,96.8,134.3,97.3,135.4,98.3Z" fill="#514969"/><path d="M175.9,159.3c-3.4,8.3-8.7,14.5-15.1,15.3-9,1.1-13.7-6.9-15-17.2a55.3,55.3,0,0,1,2.3-23.2c.6-2.1,2.2-5.1,5.1-5,1.3-7.3,5.2-13.3,12.3-14.2,9-1.1,13.6,6.1,14.8,15.7a58.84,58.84,0,0,1-3,25,12.51,12.51,0,0,0,10.1-8.4c.5-1.2,1-2.1,1.8-2.1a.74.74,0,0,1,.8.7,5,5,0,0,1-.2,2.1C188.8,152.3,183.5,158.3,175.9,159.3Zm-7.7-.2c-6.2-1.3-10.1-5.5-12.6-10.6a47.86,47.86,0,0,0,.1,10.7c.7,5.9,2.7,10.3,6.4,9.8a3.55,3.55,0,0,0,1-.2C165.2,168.1,166.9,164.3,168.2,159.1Zm-8.4-19.6c.8,6.6,3.6,13,9.3,15.5a95.45,95.45,0,0,0,1.1-25.9c-.7-5.8-2.3-10-4.9-9.6-3.9.4-6.7,10.2-5.5,20Z" fill="#514969"/><path d="M191.9,170.5a4.42,4.42,0,0,1-5.1-3.6v-.2c-.5-3.8.8-30.8,3.7-48.5a4.05,4.05,0,0,1,3.8-3.4,5.31,5.31,0,0,1,6.1,4.4v.1c.1.6.1,1.1-.6,5.5,2.8-8.1,6.6-13.9,11.9-14.6,9.8-1.2,10.1,8,9.4,15.1,2.7-9.7,6.7-17.1,11.9-17.8,6.6-.8,8.9,4.3,9.5,8.4,1.5,12.4-5.5,33.8-4.6,41.2.2,1.8.8,2.7,2.3,2.6,4.8-.6,9.6-17.7,10.5-20.2.4-1.3,1.1-2.1,1.7-2.1s.8.4.9,1.1a4.13,4.13,0,0,1-.2,1.9c-1.1,4.1-4.7,23.6-14.5,24.8-4.5.6-9.1-2.1-10-8.8-1.2-9.8,5.1-31.6,4.2-39-.2-1.7-.8-2.6-1.9-2.5-2.9.3-8.7,12.4-11.3,31.2-.5,5.4-1.1,11.4-1.6,18.1-.2,2.1-2.1,3.4-4.2,3.7a5.1,5.1,0,0,1-5.9-4.2.6.6,0,0,0-.1-.4c-.6-4.8,3.9-32,2.7-41.7-.3-2.5-1.1-4-2.3-3.8-5.1.6-11.4,24.1-12.2,48.9C195.9,168.9,194,170.2,191.9,170.5Z" fill="#514969"/><path d="M282.4,113.4c1.3,10.8-4.9,26.9-16.8,28.4a15.5,15.5,0,0,1-4.3-.1c.6,4.9,2.1,13.4,9,12.6,10.7-1.3,14.9-14.1,17.2-19.1.5-1.2,1-1.7,1.6-1.8s.8.4.9,1a8.6,8.6,0,0,1-.1,1.6c-3.5,13.2-10.1,24-23,25.6-9.6,1.2-14.6-7.1-16-17.7-2.1-16.7,4.9-39.5,16.7-41a11.46,11.46,0,0,1,6.6,1.1C279,103.9,281.7,107.9,282.4,113.4ZM262,138.6c6.6-.8,14-19.7,12.9-28.4-.2-1.8-.7-3.7-2.4-3.5-6.4.8-11.8,18.3-11.5,31.9Z" fill="#514969"/><path d="M320.4,143.6c.3,2.4,1,3.6,2.5,3.4,4.1-.5,8.6-14.8,9.6-17.5.5-1.3,1.1-2.1,1.7-2.1s.8.4.9,1a4.42,4.42,0,0,1-.2,2c-1.1,4.1-5.3,23.3-14.8,24.5-4.4.5-8.5-2.1-9.5-10.6-.8-6.7.9-28,3.4-45,.3-2,2-3.2,4.1-3.5a5.66,5.66,0,0,1,6.5,4.7v.3C325.4,106.8,319.4,134.9,320.4,143.6Zm-6.8-58c-.6-4.8,2.6-11.6,8.7-12.3,4.6-.6,7,1.9,7.3,5,.6,4.7-3.3,11.2-10.4,12.1C315.8,90.8,313.9,88.6,313.6,85.6Z" fill="#514969"/><path d="M337.3,153.1a4.81,4.81,0,0,1-5.5-4.2v-1.3c0-17.1,1.1-28.7,4.2-47.3a4.05,4.05,0,0,1,3.8-3.4,5.31,5.31,0,0,1,6.1,4.4v.1c.4,2.9-1,7.8-1.3,10.8,3.3-11.1,8-20,13.9-20.7,6.6-.8,9,5,9.6,9.2,1.5,12.7-6.9,33.4-6.1,40.3.2,1.5.9,2.3,2.1,2.1,4.9-.6,10.9-16.4,11.9-18.8.5-1.2,1.3-2.1,1.9-2.2.3,0,.6.2.6.7a5,5,0,0,1-.2,2.1c-.9,4.2-6.7,24-16.5,25.2-4.5.6-9.1-2.1-10-8.8-1.2-10.1,7-31.7,6.1-39.2-.2-1.5-.9-2.6-2.1-2.5-4.1.5-11.9,19.1-13.8,39.9l-.2.8c-.2,3.2-.3,5.9-.3,8.5A4.61,4.61,0,0,1,337.3,153.1Z" fill="#514969"/><path d="M286,130.3c-.6.1-1.1.6-1.6,1.8-2.4,4.9-6.6,17.8-17.2,19.1-7,.9-8.5-7.6-9.1-12.6a13,13,0,0,0,4.4.1c11.9-1.5,18.1-17.6,16.8-28.4-.7-5.5-3.3-9.5-8.1-9.5a10,10,0,0,0-6.6-1.1c-10.9,1.3-17.6,20.8-17,36.9-1,2.8-5.7,19.5-10.5,20.1-1.5.2-2-.8-2.3-2.6-.9-7.4,6.1-28.8,4.6-41.2-.5-4.2-2.8-9.2-9.5-8.4-5.3.7-9.3,8.1-11.9,17.8.7-7.2.4-16.3-9.4-15.1-5.3.6-9.1,6.5-11.9,14.6a26.74,26.74,0,0,0,.6-5.5,5.31,5.31,0,0,0-6-4.5h-.1a4.05,4.05,0,0,0-3.8,3.4c-1.5,8.8-2.5,19.8-3.1,29.2h0a12.51,12.51,0,0,1-10.1,8.4,58.84,58.84,0,0,0,3-25c-1.2-9.6-5.8-16.8-14.8-15.7-7.1.9-11,6.8-12.3,14.2-2.9-.1-4.4,2.8-5.1,5a55.24,55.24,0,0,0-2.6,18.5c-3.5,8.1-8.5,17.5-17.5,18.6-7.7.9-11.6-5.8-12.8-15.3-2.5-20.3,7.2-53.7,18.9-55.4a9.63,9.63,0,0,1,1.3,3.7c1.1,8.9-7,23.8-6,32.2.3,2.2,3.1,3.1,5.9,2.8s5.4-2,5.2-4.9c-.6-5.8,2.4-17.6,1.3-26.2-.6-4.7-2.3-8.5-6.4-9.9-1-1-3.3-1.5-5.5-1.3C109.5,96.2,99,130,101.9,153.5c1.7,13.9,8.1,24.3,20.3,22.8,11.1-1.4,17.6-11.8,20.8-20.2,1.6,9.5,6.3,16.6,14.7,15.5,6.4-.8,11.7-7,15.1-15.3a17.55,17.55,0,0,0,11.2-6.2c-.3,4.5-.4,9.1-.3,13.6a4.54,4.54,0,0,0,4.9,3.9h.3c2.1-.3,4-1.6,4.1-3.8.8-24.8,7.1-48.2,12.2-48.9,1.2-.2,2,1.3,2.3,3.8,1.2,9.6-3.3,36.8-2.7,41.7a5.14,5.14,0,0,0,5.5,4.7.9.9,0,0,0,.5-.1c2.1-.3,4-1.6,4.2-3.7.6-6.7,1.2-12.7,1.7-18.1,2.6-18.8,8.4-30.9,11.3-31.2,1.1-.1,1.7.8,1.9,2.5.9,7.4-5.4,29.2-4.2,39,.8,6.7,5.5,9.3,10,8.8,7-.9,10.9-11.2,12.9-18.4,1.8,9.1,6.8,15.8,15.5,14.7,12.9-1.6,19.5-12.4,23-25.6a4.33,4.33,0,0,0,.1-1.6C286.9,130.7,286.5,130.3,286,130.3ZM160,165.7a3.55,3.55,0,0,1-1,.2c-3.7.4-5.7-3.9-6.4-9.8a54.66,54.66,0,0,1-.1-10.7c2.5,5.2,6.4,9.3,12.6,10.6C163.8,161.4,162.1,165.1,160,165.7Zm6-13.7c-5.7-2.5-8.5-8.9-9.3-15.5-1.2-9.8,1.7-19.6,5.5-20,2.7-.3,4.2,3.8,4.9,9.6A95.45,95.45,0,0,1,166,152Zm103.5-48.3c1.7-.2,2.1,1.7,2.4,3.5,1.1,8.8-6.3,27.6-12.9,28.4a1.39,1.39,0,0,1-.9,0c-.4-13.6,4.9-31.2,11.4-31.9Z" fill="#3d384f" stroke="#ede8fa" stroke-miterlimit="10" stroke-width="0.75"/><path d="M316.2,87.4c7.1-.9,10.9-7.4,10.4-12.1-.4-3.1-2.7-5.6-7.3-5-6.2.8-9.3,7.5-8.7,12.3C310.8,85.6,312.7,87.9,316.2,87.4Z" fill="#3d384f" stroke="#ede8fa" stroke-miterlimit="10" stroke-width="0.75"/><path d="M375.4,119.8c-.1-.6-.3-.8-.7-.7-.6.1-1.4,1-1.9,2.2-1.1,2.4-7,18.2-11.9,18.8-1.2.1-1.9-.7-2.1-2.1-.8-6.8,7.6-27.6,6.1-40.3-.5-4.2-2.9-10-9.6-9.2-5.8.7-10.5,9.6-13.9,20.7.3-3,1.7-7.8,1.3-10.8a5.31,5.31,0,0,0-6-4.5h-.1a4.05,4.05,0,0,0-3.8,3.4,299.67,299.67,0,0,0-3.7,30c-1.3,3.9-5.5,16.3-9.3,16.7-1.5.2-2.2-1.1-2.5-3.4-1.1-8.6,4.9-36.8,4.2-42.8a5.56,5.56,0,0,0-6.2-5H315c-2.1.3-3.8,1.5-4.1,3.5-2.5,17-4.2,38.3-3.4,45,1,8.4,5.1,11.1,9.5,10.6,5.6-.7,9.3-7.6,11.7-14.1,0,2.2-.1,4.5-.1,6.9v1a4.93,4.93,0,0,0,5.3,4.5h.3a4.44,4.44,0,0,0,4.1-4.3c0-2.5.1-5.3.3-8.5l.2-.8c1.9-20.8,9.6-39.4,13.8-39.9,1.2-.2,2,1,2.1,2.5.9,7.5-7.4,29.1-6.1,39.2.8,6.7,5.5,9.4,10,8.8,9.8-1.2,15.6-21,16.5-25.3A5.11,5.11,0,0,0,375.4,119.8Z" fill="#3d384f" stroke="#ede8fa" stroke-miterlimit="10" stroke-width="0.75"/><path d="M225.9,186.9l-3.2-9.5,3.6-.3,1.8,5.6,2-5.6,2.8.2-3.2,8.7,2.1,5.6,4.8-14.3,2.9-.3-6.7,19.8-2.7.2-2.6-6.5-2.9,6.4-2.7.3-7-19.6,3.7-.5,5.2,15Z" fill="#3d384f"/><path d="M250.1,179.6a16.14,16.14,0,0,0-4.9-.2l.1,6c1.9,0,4.2-.2,6.1-.2a5.41,5.41,0,0,1-1.1,2.6c-1.7,0-3.2,0-5,.1l.1,6.4h3.3c1.1,0,2.1-.3,3-.2a11.42,11.42,0,0,1-.9,2.6l-9.4.2-.4-19.6,7.2-.1a15.06,15.06,0,0,1,3,.1A15.77,15.77,0,0,1,250.1,179.6Z" fill="#3d384f"/><path d="M253.2,178.6a6.14,6.14,0,0,1,1.7-1.9l1.2,1.2c.1.1,1.3,1.9-1.1,4.1,0,0-1,.6-1,.5s1-2,.5-2.5A5.54,5.54,0,0,1,253.2,178.6Z" fill="#30264d"/><path d="M258.5,176.9c2.6,0,5.6-.4,7.6.5a5.42,5.42,0,0,1,3.6,4.6c.3,3.1-2.4,4.5-4.1,5.4l5.5,7.6-3,2-5.6-7.7.1,7.1-3.7.3Zm3.7,2.5.1,7.1,2.3-1.1.4.5c1.7-1.1,1.4-4.6-.1-5.9a3.33,3.33,0,0,0-2.7-.6Z" fill="#3d384f"/><path d="M281.5,179a16.14,16.14,0,0,0-4.9-.2l.1,6c1.9,0,4.2-.2,6.1-.2a5.41,5.41,0,0,1-1.1,2.6c-1.7,0-3.2,0-5,.1l.1,6.4h3.3c1.1,0,2.1-.3,3-.2a11.42,11.42,0,0,1-.9,2.6l-9.4.2-.4-19.6,7.2-.1a15.06,15.06,0,0,1,3,.1A9.73,9.73,0,0,1,281.5,179Z" fill="#3d384f"/><circle cx="20" cy="49.2" r="3" fill="#fff"/><circle cx="473.5" cy="41.3" r="3" fill="#fff"/><circle cx="478.8" cy="342.5" r="3" fill="#fff"/><circle cx="25.2" cy="350.4" r="3" fill="#fff"/></svg>