<svg xmlns="http://www.w3.org/2000/svg" width="499" height="370" viewBox="0 0 499 370"><title>stopwatch</title><path d="M368.3,341.4l-12.4,1.5a883,883,0,0,1-223.3-1.1l-2.1-.3a26.63,26.63,0,0,1-22.9-23.1l-1.5-12.6a883,883,0,0,1,1.1-223.3l.3-2.2a26.53,26.53,0,0,1,23-22.9l8-1a885.25,885.25,0,0,1,223,.1l7.2.9a26.53,26.53,0,0,1,23,22.9l.3,2.2a883,883,0,0,1,1.1,223.3l-1.5,12.4A26.85,26.85,0,0,1,368.3,341.4Z" fill="#ede8fa"/><path d="M173.5,71.9l-1,1L132.6,33a5.09,5.09,0,0,0-3.5-1.5,5.45,5.45,0,0,0-2.2.5,82.67,82.67,0,0,0-21.3,15.2l.5-.5A84,84,0,0,1,127.9,31a5.85,5.85,0,0,1,2.2-.5,5,5,0,0,1,3.5,1.4Z" fill="#3c2c69"/><path d="M172.5,72.9l-41.4,41.4L91.2,74.5a5,5,0,0,1-.9-5.8,80.11,80.11,0,0,1,36.6-36.6,5.85,5.85,0,0,1,2.2-.5,5,5,0,0,1,3.5,1.4Z" fill="#292536"/><path d="M408.1,74.5l-39.9,39.9L325.8,72l1-1,38.4,38.4,39.9-39.9a5,5,0,0,0,.9-5.8c-.5-1-1.1-2.1-1.6-3.1a80.49,80.49,0,0,1,4.6,8.1A5,5,0,0,1,408.1,74.5Z"/><path d="M91.2,74.5l39.9,39.9L173.5,72l-1-1-38.4,38.4L94.2,69.5a5,5,0,0,1-.9-5.8c.5-1,1.1-2.1,1.6-3.1a80.49,80.49,0,0,0-4.6,8.1A5,5,0,0,0,91.2,74.5Z"/><path d="M405.1,69.5l-39.9,39.9L326.8,71l38.8-39a5.09,5.09,0,0,1,3.5-1.5,5.45,5.45,0,0,1,2.2.5,84.52,84.52,0,0,1,33,29.5c.6,1,1.1,2.1,1.6,3.1A5,5,0,0,1,405.1,69.5Z" fill="#292536"/><path d="M325.8,71.9l1,1L366.6,33a5.09,5.09,0,0,1,3.5-1.5,5.45,5.45,0,0,1,2.2.5,84.94,84.94,0,0,1,21.4,15.2l-.5-.5A82.85,82.85,0,0,0,371.3,31a5.85,5.85,0,0,0-2.2-.5,5,5,0,0,0-3.5,1.4Z" fill="#3c2c69"/><path d="M368.3,331.4l-12.4,1.5a883,883,0,0,1-223.3-1.1l-2.1-.3a26.63,26.63,0,0,1-22.9-23.1l-1.5-12.6a883,883,0,0,1,1.1-223.3l.3-2.2a26.53,26.53,0,0,1,23-22.9l8-1a885.25,885.25,0,0,1,223,.1l7.2.9a26.53,26.53,0,0,1,23,22.9l.3,2.2a883,883,0,0,1,1.1,223.3l-1.5,12.4A26.85,26.85,0,0,1,368.3,331.4Z" fill="#514969"/><path d="M362.8,325.6,351,327.1a833.57,833.57,0,0,1-212.9-1l-2-.3a25.47,25.47,0,0,1-21.8-22.3l-1.5-12.1a866.6,866.6,0,0,1,1-215.9l.3-2.2A25.37,25.37,0,0,1,136,51.2l7.6-1a831.23,831.23,0,0,1,212.6.1l6.8.9a25.37,25.37,0,0,1,21.9,22.1l.3,2.2a866.58,866.58,0,0,1,1,215.9l-1.5,12A25.17,25.17,0,0,1,362.8,325.6Z" fill="#645a82"/><path d="M362,322.8l-11.7,1.4a835.58,835.58,0,0,1-211.4-1l-2-.3A25.15,25.15,0,0,1,115.2,301l-1.5-11.9a835.58,835.58,0,0,1,1-211.4l.3-2.1a25.25,25.25,0,0,1,21.7-21.7l7.6-1a837.85,837.85,0,0,1,211.1.1l6.8.9a25.15,25.15,0,0,1,21.7,21.7l.3,2.1a835.58,835.58,0,0,1,1,211.4l-1.4,11.7A25.16,25.16,0,0,1,362,322.8Z" fill="#3d374f"/><path d="M356,317.6,344.9,319a785.3,785.3,0,0,1-200.3-1l-1.9-.3a23.89,23.89,0,0,1-20.5-21l-1.4-11.4a817.58,817.58,0,0,1,1-203.2l.3-2a23.88,23.88,0,0,1,20.6-20.8l7.2-.9a782.93,782.93,0,0,1,200,.1l6.4.8a24,24,0,0,1,20.5,20.8l.3,2a817.58,817.58,0,0,1,1,203.2l-1.4,11.3A23.7,23.7,0,0,1,356,317.6Z" fill="#645a82"/><path d="M356,315.7l-11.1,1.4a794.52,794.52,0,0,1-200.3-1l-1.9-.3a23.67,23.67,0,0,1-20.5-20.7l-1.4-11.3a793.71,793.71,0,0,1,1-200.2l.3-2a23.87,23.87,0,0,1,20.6-20.5l7.2-.9a792.12,792.12,0,0,1,200,.1l6.4.8a23.87,23.87,0,0,1,20.6,20.5l.3,2a793.71,793.71,0,0,1,1,200.2L376.8,295A23.88,23.88,0,0,1,356,315.7Z" fill="#514969"/><path d="M356.3,249.4H142.7c-7.7,0-14-4.5-14.5-10.4l-.9-10.9a884.72,884.72,0,0,1,.5-147.4h0c.7-8.3,9.1-15.1,20-16.2l5.7-.6a1008.63,1008.63,0,0,1,192.7.1l5,.5c10.9,1.1,19.3,7.8,20,16.2h0a886,886,0,0,1,.5,147.5l-.9,10.9C370.3,244.9,364,249.4,356.3,249.4Z" fill="none" stroke="#000" stroke-miterlimit="10" stroke-width="4"/><path d="M356.7,250.4H142.3c-7.7,0-14.1-4.6-14.6-10.4l-.9-11a883.63,883.63,0,0,1,.5-148.2h0c.7-8.4,9.2-15.2,20.1-16.2l5.8-.6a999.77,999.77,0,0,1,193.4.1l5,.5c10.9,1.1,19.3,7.9,20.1,16.2h0a894.37,894.37,0,0,1,.5,148.2l-.9,11C370.8,245.9,364.4,250.4,356.7,250.4Z" fill="#3d374f"/><path d="M356.3,249.4H142.7c-7.7,0-14-4.5-14.5-10.4l-.9-10.9a884.72,884.72,0,0,1,.5-147.4h0c.7-8.3,9.1-15.1,20-16.2l5.7-.6a1008.63,1008.63,0,0,1,192.7.1l5,.5c10.9,1.1,19.3,7.8,20,16.2h0a886,886,0,0,1,.5,147.5l-.9,10.9C370.3,244.9,364,249.4,356.3,249.4Z"/><path d="M361.6,86.5c-.7-7.7-8.4-13.9-18.4-14.9l-4.6-.4a922.34,922.34,0,0,0-177.4,0l-5.3.5a24.25,24.25,0,0,0-12.7,4.9,14.3,14.3,0,0,0-5.7,10c-2,23.5-3.1,46.9-3.1,70.4q0,32.7,2.6,65.3c.9,11,12.9,19.6,27.4,19.6H225V229.4H176.6c-12.4,0-22.7-6.8-23.5-15.6-1.5-17.3-2.3-34.7-2.3-52,0-18.7.9-37.4,2.6-56.1a11.2,11.2,0,0,1,4.9-7.9,21.48,21.48,0,0,1,10.9-3.9l4.5-.4a858.52,858.52,0,0,1,152.1,0l3.9.4c8.6.8,15.2,5.7,15.8,11.8,1.8,18.7,2.6,37.4,2.6,56.1,0,17.3-.8,34.7-2.3,52-.4,4.4-3.1,8.3-7.4,11.1a29.46,29.46,0,0,1-16.1,4.5H274V242h60.6a32.29,32.29,0,0,0,18.8-5.7c4.9-3.5,8.1-8.4,8.6-13.9,1.8-21.8,2.6-43.6,2.6-65.4Q364.6,121.75,361.6,86.5Z" fill="#12a27e"/><path d="M264.3,111.1c-.9,0-1-.2-1-.9v-4.6c0-2.6-1.3-3.9-3.5-3.9a3.57,3.57,0,0,0-3.7,2.8V97.2h-4.7V99h.1c.8,0,1.1.2,1.1,1.3v9.9c0,.8-.1.9-.9.9h-.3v1.6h6.1v-1.6h-.2c-1,0-1.1-.1-1.1-.8v-3.5c0-1.8.9-2.9,2.1-2.9q1.5,0,1.5,1.8v4.6c0,.7-.2.8-1.1.8h-.2v1.6h6.1v-1.6Z" fill="#12a27e"/><path d="M247.2,101.7a3.48,3.48,0,0,0-3.6,2.9v-.1a8,8,0,0,0-.5-2.6H239v1.9h0c.8,0,1.1.2,1.1,1.3v5.8c-.3.1-.6.1-.9.2-.6,0-.9-.3-.9-1.3v-3.6a4.28,4.28,0,0,0-.8-2.9,4,4,0,0,0-2.7-1.4,13.1,13.1,0,0,0-2.8,0,2.2,2.2,0,0,1,.6,1.5,2.54,2.54,0,0,1,1.2.2,1.65,1.65,0,0,1,.9,1.5c-.1,1.6-2.5,1.9-3.6,2.2-1.9.5-2.8,1.4-2.8,2.8h0a3.55,3.55,0,0,0,.2,1,1.61,1.61,0,0,0,.4.7,3.55,3.55,0,0,0,3.5,1.1,3.07,3.07,0,0,0,2.4-2v.1c0,1.6,1.4,2.1,2.8,2a2.81,2.81,0,0,0,2.4-1.3v2.4c0,.8-.2,1-.9,1H239v1.6h6.4V115h-.6c-1,0-1.1-.1-1.1-.8v-3.7a3.34,3.34,0,0,0,3.4,2.5c2.6,0,4.5-2.1,4.5-5.8h0C251.6,103.9,250.1,101.7,247.2,101.7Zm-12.3,7.4a2.25,2.25,0,0,1-.9,2,1.13,1.13,0,0,1-1.6-.3c0-.1-.1-.1-.1-.2a2.2,2.2,0,0,1-.1-.8v-.1a1.75,1.75,0,0,1,1.1-1.7,3.55,3.55,0,0,0,1.6-1.1h0Zm13.1-1.7c0,2.6-.8,3.6-2.1,3.6s-2.2-1.2-2.2-3.6V107c0-1.9.9-3.1,2.2-3.1s2.1,1,2.1,2.9Z" fill="#12a27e"/><path d="M229.6,101.8h.5a3.55,3.55,0,0,1,1,.2l.1.1a1.84,1.84,0,0,1,.8,1.4h0v.5h0v.6h0v.1h0v.1h0l-.1.1h-.4l-.1.1h-.1a.9.9,0,0,1-.5.1H230" fill="#d74d1f"/><path d="M197.8,110.2l-2.3-3.2,1.8-2.3c.6-.8.9-.9,1.6-.9h.2V102h-4.8v1.8h.2c.8,0,1,.4.3,1.4l-.9,1.2-1-1.5c-.5-.7-.4-1.1.3-1.1h.3V102h-6.1v1.8h.2c.8,0,.9.2,1.5,1l1.8,2.7-1.9,2.7c-.6.9-.8,1-1.4,1h-.4c-.8,0-1-.2-1-.9V102h-6.7v-1.7c0-1.5.7-2.2,1.8-2.2a2.3,2.3,0,0,1,1.4.4,2.49,2.49,0,0,0-.1.8c.1.5.5,1,1.6,1.1a1.55,1.55,0,0,0,1.7-1.3v-.2c0-1.4-2.2-2.2-4.7-2.2-3.4,0-5.2,1.4-5.3,4.4v.8h-1.4v1.7h1.4V110c0,.8-.1.9-.9.9h-.3v1.6H181V111h-.2c-1.1,0-1.3-.1-1.3-1v-6.4h2c.8,0,1.1.2,1.1,1.3v5.2c0,.7-.1.9-.8.9h-.2v1.6h10.7V111H192c-.9,0-1-.4-.4-1.3l1.1-1.6,1.2,1.8c.5.8.4,1.2-.4,1.2h-.3v1.6h6.1V111h-.1C198.5,111.1,198.3,110.8,197.8,110.2Z" fill="#12a27e"/><path d="M232,103.4a1.6,1.6,0,0,0-.8-1.4,2.54,2.54,0,0,0-1.5-.3,3.16,3.16,0,0,0-2.2,1.7,3.51,3.51,0,0,0-.6,1.4v0a7.17,7.17,0,0,0-.6-2.9h-7.8a8,8,0,0,0-.5,2.1,3.58,3.58,0,0,0-3.6-2.4c-2.6,0-4.5,2-4.5,5.1v.1a5.2,5.2,0,0,0,1.3,3.8l-.1.1-1.1.3c-.6,0-.9-.3-.9-1.3v-3.6a4.28,4.28,0,0,0-.8-2.9,4,4,0,0,0-2.7-1.4,9.76,9.76,0,0,0-3.8.2,3.6,3.6,0,0,0-2,1.1,1.4,1.4,0,0,0-.2,1.9,1.68,1.68,0,0,0,1.9.3,1.75,1.75,0,0,0,1-1.8h0a2.56,2.56,0,0,1,2.1,0,1.65,1.65,0,0,1,.9,1.5c-.1,1.6-2.5,1.9-3.6,2.2-1.9.5-2.8,1.4-2.8,2.8h0a3.55,3.55,0,0,0,.2,1,1.61,1.61,0,0,0,.4.7,3.55,3.55,0,0,0,3.5,1.1,3.19,3.19,0,0,0,2.4-2.1v.1c0,1.5,1.4,2.1,2.8,2a2.88,2.88,0,0,0,2.8-2.2,4.06,4.06,0,0,0,3.1,1.2c2.1,0,3.1-1,3.5-2v1.4c0,2.6-.8,3.8-3.2,3.8a1.8,1.8,0,0,1-1-.2v-.5c0-1-.7-1.5-1.7-1.5s-1.5.5-1.5,1.3c0,1.7,1.9,2.5,4.8,2.5,4.2,0,6.2-2.1,6.2-5.8v-5.9c0-1,.3-1.2,1-1.2h.1c.8,0,1.1.2,1.1,1.3v5a.9.9,0,0,1-.9.9h-.3v1.6h6.4V111h-.5c-1,0-1.2-.1-1.2-1v-1.7a6.81,6.81,0,0,1,.8-3.1,3.46,3.46,0,0,1,1-1.1,1.38,1.38,0,0,0,1.1,1.2,1.82,1.82,0,0,0,1.9-.8A2,2,0,0,0,232,103.4Zm-26.4,5.7a2.25,2.25,0,0,1-.9,2,1.13,1.13,0,0,1-1.6-.3c0-.1-.1-.1-.1-.2a2.2,2.2,0,0,1-.1-.8v-.1A1.75,1.75,0,0,1,204,108a3.55,3.55,0,0,0,1.6-1.1h0Zm12.2-2.1c0,2-.9,3.2-2.2,3.2s-2.1-1-2.1-3.2v-.4c0-1.9.8-2.9,2.1-2.9s2.2,1.2,2.2,3Z" fill="#12a27e"/><path d="M237,234.7h5.9v7a8.08,8.08,0,0,1-5.7,2.1c-4.5,0-7.4-2.9-7.4-8.1v-.1c0-4.8,3-7.9,7.7-7.9a6.65,6.65,0,0,1,4.7,1.5v2.7a8.69,8.69,0,0,0-4.1-1.1,3.9,3.9,0,0,0-4.2,3.5V236c0,3.5,1.3,4.9,3.7,4.9a8.81,8.81,0,0,0,1.7-.2v-3.3H237Z" fill="#12a27e"/><path d="M245.8,235.8h0c0-4.8,2.8-7.9,7.4-7.9s7.4,3.1,7.4,7.9h0c0,5.4-3.2,8.1-7.4,8.1S245.8,241.1,245.8,235.8Zm10.8.4v-1.1c0-2.7-1-4.3-3.4-4.3s-3.4,1.6-3.4,4.3v1.1c0,3.4,1.1,4.8,3.4,4.8S256.6,239.6,256.6,236.2Z" fill="#12a27e"/><path d="M266.7,238.3h-2.2l-1.1-10.6h4.4Zm-3.3,3.3a2.14,2.14,0,0,1,2.3-2,2.07,2.07,0,0,1,2,2,2.14,2.14,0,0,1-2.3,2A2.33,2.33,0,0,1,263.4,241.6Z" fill="#12a27e"/><path d="M299.9,102.3h-3.8V101h9.1v1.3h-3.8v10.2h-1.6V102.3Z" fill="#12a27e"/><path d="M304.8,107h3.3v1.3h-3.3Z" fill="#12a27e"/><path d="M312,102.4l-2.7,3h0v-1.7l2.4-2.7h2v11.5H312Z" fill="#12a27e"/><path d="M315.9,109.4v-.1a3.08,3.08,0,0,1,2.5-2.9,2.68,2.68,0,0,1-2.1-2.6v-.1c0-1.7,1.5-2.9,3.6-2.9s3.6,1.2,3.6,2.9v.1a2.76,2.76,0,0,1-2.1,2.6,3.19,3.19,0,0,1,2.5,2.9v.1c0,2.1-1.8,3.4-4,3.4S315.9,111.5,315.9,109.4Zm6.4,0V109a2.44,2.44,0,0,0-2.6-2.2,2.37,2.37,0,0,0-2.2,2.2v.3a2.11,2.11,0,0,0,2.4,2.2c1.4,0,2.4-.7,2.4-2.1ZM322,104v-.3a1.88,1.88,0,0,0-2.1-1.8,2,2,0,0,0-2.2,1.8v.3c0,1.3.9,1.9,2.2,1.9S322,105.3,322,104Z" fill="#12a27e"/><path d="M174.5,120.4h150a10,10,0,0,1,10,10v75a10,10,0,0,1-10,10h-150a10,10,0,0,1-10-10v-75A10,10,0,0,1,174.5,120.4Z" fill="#717073"/><path d="M177.9,123.3H321.1a8.45,8.45,0,0,1,8.4,8.4v54a8.45,8.45,0,0,1-8.4,8.4H177.9a8.45,8.45,0,0,1-8.4-8.4v-54A8.39,8.39,0,0,1,177.9,123.3Z" fill="#979699" stroke="#4b4b4d" stroke-miterlimit="10" stroke-width="0.5"/><path d="M182,128.2H317a7.49,7.49,0,0,1,7.5,7.5v45.8A7.49,7.49,0,0,1,317,189H182a7.49,7.49,0,0,1-7.5-7.5V135.7A7.55,7.55,0,0,1,182,128.2Z" fill="#d8d7db"/><path d="M184.1,130.7H314.9a7.13,7.13,0,0,1,7.1,7.1v41.6a7.13,7.13,0,0,1-7.1,7.1H184.1a7.13,7.13,0,0,1-7.1-7.1V137.8A7.13,7.13,0,0,1,184.1,130.7Z" fill="#4b4b4d"/><path d="M184,131.4H315a7,7,0,0,1,7,7v40.5a7,7,0,0,1-7,7H184a7,7,0,0,1-7-7V138.4A7,7,0,0,1,184,131.4Z" fill="#eeedf2"/><path d="M137,91.6a21.85,21.85,0,0,1,13.3-6.7L157,84a735.89,735.89,0,0,1,185.8.1l6,.8A22.41,22.41,0,0,1,362,91.6" fill="none" stroke="#000" stroke-miterlimit="10"/><path d="M315.1,78l.1-.9a3.84,3.84,0,0,0,2.3,1.1c1,.1,1.7-.2,1.8-1.3a.81.81,0,0,0-.3-.9c-.5-.4-2-.7-2.7-1.1a2,2,0,0,1-.8-1.9,2.31,2.31,0,0,1,2.4-2.1.37.37,0,0,1,.3.1,3.18,3.18,0,0,1,2,.8l-.1.9a4.55,4.55,0,0,0-1.9-.8c-.8-.1-1.7,0-1.8,1.1a1,1,0,0,0,.4,1c.8.5,2.1.6,2.8,1.2a1.83,1.83,0,0,1,.6,1.7,2.33,2.33,0,0,1-2.5,2.1h-.3A3.66,3.66,0,0,1,315.1,78Z"/><path d="M323.9,72.7l-2.5-.2.1-.9,6,.6-.1.9-2.5-.2-.6,6.7-1-.1Z"/><path d="M331.7,78l-3.3-.3-1,2.2-1-.1,3.3-7.4,1.7.2,1.9,7.9-1.1-.1Zm-2.9-1.2,2.7.3-1-4.2Z"/><path d="M335.1,72.9l2.6.3c1.6.2,2.4,1.1,2.2,2.4a2.17,2.17,0,0,1-2.6,1.9h-.2l2.7,3.6-1.3-.1-2.8-3.8-.3,3.5-1-.1Zm2,3.8c1.2.1,1.6-.3,1.7-1.3s-.2-1.3-1.4-1.4l-1.5-.1-.3,2.7Z"/><path d="M343.3,74.6l-2.5-.2.1-.9,6,.6-.1.9-2.5-.2-.6,6.7-1-.1Z"/><path d="M151.3,74.1l2.6-.3a2.17,2.17,0,0,1,2.7,2c.2,1.4-.7,2.2-2.2,2.3h-.2l3.3,3-1.3.1L152.7,78l.3,3.5-1,.1Zm2.7,3.3c1.2-.1,1.5-.6,1.4-1.6s-.5-1.3-1.6-1.2l-1.4.1.3,2.7Z"/><path d="M157.8,73.4l4.7-.5.1.9-3.7.3.2,2.5,3.4-.3.1.9-3.4.3.2,2.5,3.7-.4.1.8-4.7.5Z"/><path d="M164.4,79.8l-.1-.9a3.61,3.61,0,0,0,2.5.6c1-.1,1.7-.6,1.6-1.6,0-.3-.1-.7-.4-.8-.5-.3-2.1-.3-2.9-.6a1.85,1.85,0,0,1-1.1-1.7,2.23,2.23,0,0,1,2.3-2.4,3.08,3.08,0,0,1,2.1.4l.1.9a4.48,4.48,0,0,0-2-.4c-.8.1-1.6.3-1.5,1.4a1,1,0,0,0,.6.9c.8.4,2.2.1,3,.6a1.89,1.89,0,0,1,.9,1.6c.1,1.6-1,2.4-2.4,2.6A3.17,3.17,0,0,1,164.4,79.8Z"/><path d="M170.2,72.2l4.7-.5.1.9-3.7.3.2,2.5,3.5-.3.1.9-3.4.3.2,2.5,3.7-.4.1.8-4.7.4Z"/><path d="M178.5,72.3l-2.5.2-.1-.9,6-.6.1,1-2.5.2.6,6.7-1,.1Z"/><path d="M313.3,90l.1-.9a3.84,3.84,0,0,0,2.3,1.1c1,.1,1.7-.2,1.8-1.3a.81.81,0,0,0-.3-.9c-.5-.4-2-.7-2.7-1.1a2,2,0,0,1-.8-1.9,2.26,2.26,0,0,1,2.7-2,3.18,3.18,0,0,1,2,.8l-.1.9a4.55,4.55,0,0,0-1.9-.8c-.8-.1-1.7,0-1.8,1.1a1,1,0,0,0,.4,1c.8.5,2.1.6,2.8,1.2a1.83,1.83,0,0,1,.6,1.7,2.27,2.27,0,0,1-2.5,2.1.37.37,0,0,1-.3-.1A2.81,2.81,0,0,1,313.3,90Z"/><path d="M322,84.7l-2.5-.3.1-.9,6,.6-.1.9-2.5-.2-.6,6.7-1-.1Z"/><path d="M325.6,88h0c.2-2.4,1.5-3.8,3.8-3.6s3.2,1.9,3,4.3h0c-.3,2.7-1.7,3.9-3.8,3.7S325.3,90.7,325.6,88Zm5.7.8.1-.6c.1-1.6-.4-2.7-2.1-2.9s-2.5.9-2.6,2.4l-.1.6c-.2,2,.5,3,2.1,3.2s2.4-.7,2.6-2.7Z"/><path d="M334.1,85l2.7.3a2.22,2.22,0,0,1,2.2,2.2v.4c-.1,1.5-1.2,2.3-2.9,2.1l-1.5-.2-.3,2.9-1-.1Zm2,4.2c1.3.1,1.8-.4,1.9-1.4s-.2-1.6-1.4-1.7L335,86l-.3,3Z"/><path d="M182.7,147.6a7.52,7.52,0,0,1,1.6,1.5v10.1a7.52,7.52,0,0,1-1.6,1.5,7.52,7.52,0,0,1-1.6-1.5V149.1C181.6,148.6,182.1,148.1,182.7,147.6Zm0,14.5a7.52,7.52,0,0,1,1.6,1.5v10.1a7.52,7.52,0,0,1-1.6,1.5,7.52,7.52,0,0,1-1.6-1.5V163.6a7.52,7.52,0,0,1,1.6-1.5Zm2.1-16.7h10.1a7.52,7.52,0,0,1,1.5,1.6,7.52,7.52,0,0,1-1.5,1.6H184.8a7.52,7.52,0,0,1-1.5-1.6,7.52,7.52,0,0,1,1.5-1.6Zm-.1,14.5H195c.5.5.9,1,1.4,1.6a10.7,10.7,0,0,1-1.4,1.6H184.7a10.7,10.7,0,0,1-1.4-1.6,10.7,10.7,0,0,1,1.4-1.6Zm.1,14.4h10.1a7.52,7.52,0,0,1,1.5,1.6,7.52,7.52,0,0,1-1.5,1.6H184.8a7.52,7.52,0,0,1-1.5-1.6,7.52,7.52,0,0,1,1.5-1.6ZM197,147.6a7.52,7.52,0,0,1,1.6,1.5v10.1a11.37,11.37,0,0,1-1.6,1.5,7.52,7.52,0,0,1-1.6-1.5V149.1C195.9,148.6,196.4,148.1,197,147.6Zm0,14.6a7.52,7.52,0,0,1,1.6,1.5v10.1a7.52,7.52,0,0,1-1.6,1.5,7.52,7.52,0,0,1-1.6-1.5V163.7a7.52,7.52,0,0,1,1.6-1.5Z" fill="#dcdae4"/><path d="M206.2,147.6a7.52,7.52,0,0,1,1.6,1.5v10.1a11.37,11.37,0,0,1-1.6,1.5,7.52,7.52,0,0,1-1.6-1.5V149.1C205.1,148.6,205.6,148.1,206.2,147.6Zm0,14.5a7.52,7.52,0,0,1,1.6,1.5v10.1a11.37,11.37,0,0,1-1.6,1.5,7.52,7.52,0,0,1-1.6-1.5V163.6a7.52,7.52,0,0,1,1.6-1.5Zm2.1-16.7h10.1a7.52,7.52,0,0,1,1.5,1.6,7.52,7.52,0,0,1-1.5,1.6H208.3a7.52,7.52,0,0,1-1.5-1.6,7.52,7.52,0,0,1,1.5-1.6Zm-.1,14.5h10.3c.5.5.9,1,1.4,1.6a10.7,10.7,0,0,1-1.4,1.6H208.2c-.5-.5-.9-1-1.4-1.6a10.7,10.7,0,0,1,1.4-1.6Zm.1,14.4h10.1a7.52,7.52,0,0,1,1.5,1.6,7.52,7.52,0,0,1-1.5,1.6H208.3a7.52,7.52,0,0,1-1.5-1.6,7.52,7.52,0,0,1,1.5-1.6Zm12.2-26.7a7.52,7.52,0,0,1,1.6,1.5v10.1a7.52,7.52,0,0,1-1.6,1.5,7.52,7.52,0,0,1-1.6-1.5V149.1c.5-.5,1-1,1.6-1.5Zm0,14.6a7.52,7.52,0,0,1,1.6,1.5v10.1a7.52,7.52,0,0,1-1.6,1.5,7.52,7.52,0,0,1-1.6-1.5V163.7a7.52,7.52,0,0,1,1.6-1.5Z" fill="#dcdae4"/><path d="M235.1,147.6a7.52,7.52,0,0,1,1.6,1.5v10.1a7.52,7.52,0,0,1-1.6,1.5,7.52,7.52,0,0,1-1.6-1.5V149.1C234,148.6,234.5,148.1,235.1,147.6Zm0,14.5a7.52,7.52,0,0,1,1.6,1.5v10.1a7.52,7.52,0,0,1-1.6,1.5,7.52,7.52,0,0,1-1.6-1.5V163.6a7.52,7.52,0,0,1,1.6-1.5Zm2.1-16.7h10.1a5.72,5.72,0,0,1,1.5,1.6,7.52,7.52,0,0,1-1.5,1.6H237.2a7.52,7.52,0,0,1-1.5-1.6,7.52,7.52,0,0,1,1.5-1.6Zm-.1,14.5h10.3c.5.5.9,1,1.4,1.6a10.7,10.7,0,0,1-1.4,1.6H237.1c-.5-.5-.9-1-1.4-1.6a10.7,10.7,0,0,1,1.4-1.6Zm.1,14.4h10.1a7.52,7.52,0,0,1,1.5,1.6,7.52,7.52,0,0,1-1.5,1.6H237.2a7.52,7.52,0,0,1-1.5-1.6,7.52,7.52,0,0,1,1.5-1.6Zm12.2-26.7a7.52,7.52,0,0,1,1.6,1.5v10.1a7.52,7.52,0,0,1-1.6,1.5,7.52,7.52,0,0,1-1.6-1.5V149.1c.5-.5,1-1,1.6-1.5Zm0,14.6a7.52,7.52,0,0,1,1.6,1.5v10.1a7.52,7.52,0,0,1-1.6,1.5,7.52,7.52,0,0,1-1.6-1.5V163.7a7.52,7.52,0,0,1,1.6-1.5Z" fill="#dcdae4"/><path d="M258.6,147.6a7.52,7.52,0,0,1,1.6,1.5v10.1a7.52,7.52,0,0,1-1.6,1.5,7.52,7.52,0,0,1-1.6-1.5V149.1C257.5,148.6,258,148.1,258.6,147.6Zm0,14.5a7.52,7.52,0,0,1,1.6,1.5v10.1a7.52,7.52,0,0,1-1.6,1.5,7.52,7.52,0,0,1-1.6-1.5V163.6a7.52,7.52,0,0,1,1.6-1.5Zm2.1-16.7h10.1a11.37,11.37,0,0,1,1.5,1.6,7.52,7.52,0,0,1-1.5,1.6H260.7a7.52,7.52,0,0,1-1.5-1.6,11.37,11.37,0,0,1,1.5-1.6Zm-.1,14.5h10.3c.5.5.9,1,1.4,1.6a10.7,10.7,0,0,1-1.4,1.6H260.6c-.5-.5-.9-1-1.4-1.6.5-.6.9-1.1,1.4-1.6Zm.1,14.4h10.1a7.52,7.52,0,0,1,1.5,1.6,7.52,7.52,0,0,1-1.5,1.6H260.7a7.52,7.52,0,0,1-1.5-1.6,7.52,7.52,0,0,1,1.5-1.6Zm12.2-26.7a7.52,7.52,0,0,1,1.6,1.5v10.1a11.37,11.37,0,0,1-1.6,1.5,7.52,7.52,0,0,1-1.6-1.5V149.1c.5-.5,1.1-1,1.6-1.5Zm0,14.6a7.52,7.52,0,0,1,1.6,1.5v10.1a7.52,7.52,0,0,1-1.6,1.5,7.52,7.52,0,0,1-1.6-1.5V163.7a7.52,7.52,0,0,1,1.6-1.5Z" fill="#dcdae4"/><path d="M281.9,151a8.64,8.64,0,0,1,1.4,1.3v9a8.64,8.64,0,0,1-1.4,1.3,8.64,8.64,0,0,1-1.4-1.3v-9A8.64,8.64,0,0,1,281.9,151Zm0,12.8a8.64,8.64,0,0,1,1.4,1.3v9a8.64,8.64,0,0,1-1.4,1.3,8.64,8.64,0,0,1-1.4-1.3v-9a17.88,17.88,0,0,1,1.4-1.3Zm1.9-14.8h9a8.64,8.64,0,0,1,1.3,1.4,8.64,8.64,0,0,1-1.3,1.4h-9a8.64,8.64,0,0,1-1.3-1.4A8.64,8.64,0,0,1,283.8,149Zm-.1,12.9h9.2a17.41,17.41,0,0,1,1.2,1.4,17.41,17.41,0,0,1-1.2,1.4h-9.2a17.41,17.41,0,0,1-1.2-1.4,17.41,17.41,0,0,1,1.2-1.4Zm.1,12.8h9a8.64,8.64,0,0,1,1.3,1.4,8.64,8.64,0,0,1-1.3,1.4h-9a8.64,8.64,0,0,1-1.3-1.4A8.64,8.64,0,0,1,283.8,174.7ZM294.7,151a8.64,8.64,0,0,1,1.4,1.3v9a8.64,8.64,0,0,1-1.4,1.3,8.64,8.64,0,0,1-1.4-1.3v-9A5.84,5.84,0,0,1,294.7,151Zm0,12.9a8.64,8.64,0,0,1,1.4,1.3v9a8.64,8.64,0,0,1-1.4,1.3,8.64,8.64,0,0,1-1.4-1.3v-9a5.84,5.84,0,0,1,1.4-1.3Z" fill="#dcdae4"/><path d="M302.8,151a8.64,8.64,0,0,1,1.4,1.3v9a8.64,8.64,0,0,1-1.4,1.3,8.64,8.64,0,0,1-1.4-1.3v-9A8.64,8.64,0,0,1,302.8,151Zm0,12.8a8.64,8.64,0,0,1,1.4,1.3v9a8.64,8.64,0,0,1-1.4,1.3,8.64,8.64,0,0,1-1.4-1.3v-9a8.64,8.64,0,0,1,1.4-1.3Zm1.9-14.8h9a8.64,8.64,0,0,1,1.3,1.4,8.64,8.64,0,0,1-1.3,1.4h-9a8.64,8.64,0,0,1-1.3-1.4A8.64,8.64,0,0,1,304.7,149Zm-.1,12.9h9.2a17.41,17.41,0,0,1,1.2,1.4,17.41,17.41,0,0,1-1.2,1.4h-9.2a17.41,17.41,0,0,1-1.2-1.4A17.41,17.41,0,0,1,304.6,161.9Zm.1,12.8h9a8.64,8.64,0,0,1,1.3,1.4,8.64,8.64,0,0,1-1.3,1.4h-9a8.64,8.64,0,0,1-1.3-1.4A8.64,8.64,0,0,1,304.7,174.7ZM315.6,151a8.64,8.64,0,0,1,1.4,1.3v9a8.64,8.64,0,0,1-1.4,1.3,8.64,8.64,0,0,1-1.4-1.3v-9A5.84,5.84,0,0,1,315.6,151Zm0,12.9a8.64,8.64,0,0,1,1.4,1.3v9a8.64,8.64,0,0,1-1.4,1.3,8.64,8.64,0,0,1-1.4-1.3v-9a5.84,5.84,0,0,1,1.4-1.3Z" fill="#dcdae4"/><path d="M234.8,147.6a7.52,7.52,0,0,1,1.6,1.5v10.1a7.52,7.52,0,0,1-1.6,1.5,7.52,7.52,0,0,1-1.6-1.5V149.1C233.7,148.6,234.3,148.1,234.8,147.6Zm2.1-2.2H247a7.52,7.52,0,0,1,1.5,1.6,7.52,7.52,0,0,1-1.5,1.6H237a7.52,7.52,0,0,1-1.5-1.6,10.7,10.7,0,0,1,1.4-1.6Zm-.1,14.5h10.3c.5.5.9,1,1.4,1.6a10.7,10.7,0,0,1-1.4,1.6H236.8c-.5-.5-.9-1-1.4-1.6.5-.6,1-1.1,1.4-1.6Zm.1,14.4H247a7.52,7.52,0,0,1,1.5,1.6,7.52,7.52,0,0,1-1.5,1.6H237a7.52,7.52,0,0,1-1.5-1.6,10.7,10.7,0,0,1,1.4-1.6Zm12.3-12.1a7.52,7.52,0,0,1,1.6,1.5v10.1a7.52,7.52,0,0,1-1.6,1.5,7.52,7.52,0,0,1-1.6-1.5V163.7a7.52,7.52,0,0,1,1.6-1.5Z" fill="#3c2c6a"/><path d="M272.7,175.3a7.52,7.52,0,0,1-1.6-1.5V163.7a7.52,7.52,0,0,1,1.6-1.5,7.52,7.52,0,0,1,1.6,1.5v10.1A7.52,7.52,0,0,1,272.7,175.3Zm0-14.5a7.52,7.52,0,0,1-1.6-1.5V149.2a7.52,7.52,0,0,1,1.6-1.5,7.52,7.52,0,0,1,1.6,1.5v10.1A7.52,7.52,0,0,1,272.7,160.8Zm-2.1,16.7H260.5a7.52,7.52,0,0,1-1.5-1.6,7.52,7.52,0,0,1,1.5-1.6h10.1a7.52,7.52,0,0,1,1.5,1.6,7.52,7.52,0,0,1-1.5,1.6Zm.1-14.4H260.4c-.5-.5-.9-1-1.4-1.6a10.7,10.7,0,0,1,1.4-1.6h10.3c.5.5.9,1,1.4,1.6A20,20,0,0,1,270.7,163.1Zm-.1-14.5H260.5A7.52,7.52,0,0,1,259,147a7.52,7.52,0,0,1,1.5-1.6h10.1a7.52,7.52,0,0,1,1.5,1.6,7.52,7.52,0,0,1-1.5,1.6Zm-12.2,12.1a7.52,7.52,0,0,1-1.6-1.5V149.1a7.52,7.52,0,0,1,1.6-1.5,7.52,7.52,0,0,1,1.6,1.5v10.1a7.52,7.52,0,0,1-1.6,1.5Z" fill="#3c2c6a"/><path d="M315.3,175.5a8.64,8.64,0,0,1-1.4-1.3v-9a8.64,8.64,0,0,1,1.4-1.3,8.64,8.64,0,0,1,1.4,1.3v9A5.71,5.71,0,0,1,315.3,175.5Zm0-12.8a8.64,8.64,0,0,1-1.4-1.3v-9a8.64,8.64,0,0,1,1.4-1.3,8.64,8.64,0,0,1,1.4,1.3v9A8.64,8.64,0,0,1,315.3,162.7Zm-1.9,14.8h-9a8.64,8.64,0,0,1-1.3-1.4,8.64,8.64,0,0,1,1.3-1.4h9a8.64,8.64,0,0,1,1.3,1.4A8.64,8.64,0,0,1,313.4,177.5Zm.1-12.8h-9.2a17.41,17.41,0,0,1-1.2-1.4,17.41,17.41,0,0,1,1.2-1.4h9.2a17.41,17.41,0,0,1,1.2,1.4A17.41,17.41,0,0,0,313.5,164.7Zm-.1-12.9h-9a8.64,8.64,0,0,1-1.3-1.4,8.64,8.64,0,0,1,1.3-1.4h9a8.64,8.64,0,0,1,1.3,1.4A8.64,8.64,0,0,1,313.4,151.8Zm-10.9,10.8a8.64,8.64,0,0,1-1.4-1.3v-9a8.64,8.64,0,0,1,1.4-1.3,8.64,8.64,0,0,1,1.4,1.3v9A5.84,5.84,0,0,1,302.5,162.6Z" fill="#3c2c6a"/><path d="M294.6,175.5a8.64,8.64,0,0,1-1.4-1.3v-9a8.64,8.64,0,0,1,1.4-1.3,8.64,8.64,0,0,1,1.4,1.3v9A5.71,5.71,0,0,1,294.6,175.5Zm0-12.8a8.64,8.64,0,0,1-1.4-1.3v-9a8.64,8.64,0,0,1,1.4-1.3,8.64,8.64,0,0,1,1.4,1.3v9A8.64,8.64,0,0,1,294.6,162.7Zm-1.9,14.8h-9a8.64,8.64,0,0,1-1.3-1.4,8.64,8.64,0,0,1,1.3-1.4h9a8.64,8.64,0,0,1,1.3,1.4A8.64,8.64,0,0,1,292.7,177.5Zm.1-12.8h-9.2a17.41,17.41,0,0,1-1.2-1.4,17.41,17.41,0,0,1,1.2-1.4h9.2a17.41,17.41,0,0,1,1.2,1.4A13,13,0,0,1,292.8,164.7Zm-.1-12.9h-9a8.64,8.64,0,0,1-1.3-1.4,8.64,8.64,0,0,1,1.3-1.4h9a8.64,8.64,0,0,1,1.3,1.4A5.71,5.71,0,0,1,292.7,151.8Zm-10.8,10.8a8.64,8.64,0,0,1-1.4-1.3v-9a8.64,8.64,0,0,1,1.4-1.3,8.64,8.64,0,0,1,1.4,1.3v9A16.61,16.61,0,0,1,281.9,162.6Z" fill="#3c2c6a"/><path d="M182.8,147.6a7.52,7.52,0,0,1,1.6,1.5v10.1a7.52,7.52,0,0,1-1.6,1.5,7.52,7.52,0,0,1-1.6-1.5V149.1A11.72,11.72,0,0,1,182.8,147.6Zm2.1-2.2H195a7.52,7.52,0,0,1,1.5,1.6,7.52,7.52,0,0,1-1.5,1.6H184.9a7.52,7.52,0,0,1-1.5-1.6,7.52,7.52,0,0,1,1.5-1.6Zm-.1,14.5h10.3c.5.5.9,1,1.4,1.6a10.7,10.7,0,0,1-1.4,1.6H184.8c-.5-.5-.9-1-1.4-1.6a10.7,10.7,0,0,1,1.4-1.6Zm.1,14.4H195a7.52,7.52,0,0,1,1.5,1.6,7.52,7.52,0,0,1-1.5,1.6H184.9a7.52,7.52,0,0,1-1.5-1.6,7.52,7.52,0,0,1,1.5-1.6Zm12.2-12.1a7.52,7.52,0,0,1,1.6,1.5v10.1a7.52,7.52,0,0,1-1.6,1.5,7.52,7.52,0,0,1-1.6-1.5V163.7a7.52,7.52,0,0,1,1.6-1.5Z" fill="#3c2c6a"/><path d="M220.4,175.3a7.52,7.52,0,0,1-1.6-1.5V163.7a7.52,7.52,0,0,1,1.6-1.5,7.52,7.52,0,0,1,1.6,1.5v10.1A7.52,7.52,0,0,1,220.4,175.3Zm0-14.5a7.52,7.52,0,0,1-1.6-1.5V149.2a7.52,7.52,0,0,1,1.6-1.5,7.52,7.52,0,0,1,1.6,1.5v10.1A7.52,7.52,0,0,1,220.4,160.8Zm-2.1,16.7H208.2a7.52,7.52,0,0,1-1.5-1.6,7.52,7.52,0,0,1,1.5-1.6h10.1a7.52,7.52,0,0,1,1.5,1.6C219.3,176.5,218.8,177,218.3,177.5Zm.1-14.4H208c-.5-.5-.9-1-1.4-1.6a10.7,10.7,0,0,1,1.4-1.6h10.3a10.7,10.7,0,0,1,1.4,1.6Zm-.1-14.5H208.2a7.52,7.52,0,0,1-1.5-1.6,7.52,7.52,0,0,1,1.5-1.6h10.1a7.52,7.52,0,0,1,1.5,1.6C219.3,147.6,218.8,148.1,218.3,148.6ZM206,160.7a7.52,7.52,0,0,1-1.6-1.5V149.1a7.52,7.52,0,0,1,1.6-1.5,7.52,7.52,0,0,1,1.6,1.5v10.1A7.52,7.52,0,0,1,206,160.7Z" fill="#3c2c6a"/><path d="M224.8,144.7l.5-5.4h2.5l-1.4,5.4Z" fill="#3c2c6a"/><path d="M275.8,144.7l.5-5.4h2.5l-1.4,5.4Zm3.8,0,.5-5.4h2.5l-1.4,5.4Z" fill="#3c2c6a"/><path d="M197.3,198.6h1.6v7.7h-1v-6.7l-2.3,6.7h-1.2l-2.3-6.6v6.6h-1v-7.7h1.6l2.2,6.7Z"/><path d="M200.8,198.6h1v7.7h-1Z"/><path d="M203.7,198.6h1.7l3.4,6.7v-6.7h1v7.7h-1.5l-3.5-6.9v6.9h-1v-7.7Z"/><path d="M211.2,205.6a.7.7,0,0,1,1.4,0h0a.68.68,0,0,1-.7.7h0A.68.68,0,0,1,211.2,205.6Z"/><path d="M243.7,205.6v-.9a3.58,3.58,0,0,0,2.4.9c1,0,1.7-.4,1.7-1.4a1.4,1.4,0,0,0-.3-.9c-.5-.4-2.1-.4-2.8-.8a1.68,1.68,0,0,1-1-1.8,2.24,2.24,0,0,1,2.3-2.2h.3a3.22,3.22,0,0,1,2.1.6v.9a3.61,3.61,0,0,0-2-.6c-.8,0-1.6.2-1.6,1.3a1.05,1.05,0,0,0,.5.9c.8.5,2.1.4,2.9.9a1.81,1.81,0,0,1,.7,1.7,2.26,2.26,0,0,1-2.3,2.3h-.3A3.57,3.57,0,0,1,243.7,205.6Z"/><path d="M250.1,198.6h4.7v.9h-3.7V202h3.5v.9h-3.5v2.5h3.7v.9h-4.7Z"/><path d="M256,202.4h0c0-2.4,1.2-3.9,3.5-3.9a2.74,2.74,0,0,1,2.3.8v.9a3.51,3.51,0,0,0-2.3-.7c-1.7,0-2.5,1.1-2.5,2.7v.5c0,2,.9,3,2.6,3a3.49,3.49,0,0,0,2.2-.8v.9a2.74,2.74,0,0,1-2.3.8C257.4,206.4,256,205,256,202.4Z"/><path d="M262.8,205.6a.7.7,0,1,1,.7.7h0A.75.75,0,0,1,262.8,205.6Z"/><path d="M289.8,199.5l-1.8,2h0v-1.1l1.6-1.8h1.3v7.7h-1Z"/><path d="M293,207.4h-1l2.6-9.3h.9Z"/><path d="M298.1,199.5l-1.8,2h0v-1.1l1.6-1.8h1.3v7.7h-1Z"/><path d="M300.7,202.6v-.5c0-2.4,1.3-3.7,3-3.7s3,1.2,3,3.7v.5c0,2.7-1.4,3.8-3,3.8S300.7,205.3,300.7,202.6Zm5,.2v-1.1c0-1.5-.8-2.4-2-2.4s-2,.9-2,2.4v1.1c0,2,.9,2.8,2,2.8s2.1-.8,2-2.8Z"/><path d="M307.8,202.6v-.5c0-2.4,1.3-3.7,3-3.7s3,1.2,3,3.7v.5c0,2.7-1.4,3.8-3,3.8S307.8,205.3,307.8,202.6Zm5,.2v-1.1c0-1.5-.8-2.4-2-2.4s-2,.9-2,2.4v1.1c0,2,.9,2.8,2,2.8s2-.8,2-2.8Z"/></svg>