<svg xmlns="http://www.w3.org/2000/svg" width="499" height="370" viewBox="0 0 499 370"><title>stopwatch2</title><path d="M368.3,341.36l-12.36,1.52a885.53,885.53,0,0,1-223.33-1.06l-2.14-.29a26.54,26.54,0,0,1-22.88-23.1l-1.54-12.57a885,885,0,0,1,1.06-223.32l.3-2.23a26.56,26.56,0,0,1,23-22.87l8-1a884.78,884.78,0,0,1,223,.08l7.17.92a26.56,26.56,0,0,1,23,22.87l.3,2.24A884.91,884.91,0,0,1,393,305.86l-1.51,12.37A26.56,26.56,0,0,1,368.3,341.36Z" fill="#ede8fa"/><path d="M173.53,71.91l-1,1L132.65,33a5,5,0,0,0-5.77-.94A83.84,83.84,0,0,0,105.53,47.3l.5-.5a84.14,84.14,0,0,1,21.85-15.7,5,5,0,0,1,5.77.9Z" fill="#59419c"/><path d="M172.53,72.91,131.1,114.34,91.22,74.46a5,5,0,0,1-.93-5.77A79.6,79.6,0,0,1,126.88,32.1a5,5,0,0,1,5.77.9Z" fill="#30264d"/><path d="M408.06,74.46l-39.87,39.88L325.76,71.91l1-1,38.43,38.43,39.87-39.88a5,5,0,0,0,.94-5.77c-.52-1-1.07-2.09-1.64-3.11A81.25,81.25,0,0,1,409,68.69,5,5,0,0,1,408.06,74.46Z" fill="#0f8a6b"/><path d="M91.23,74.46l39.87,39.88,42.43-42.43-1-1L134.1,109.34,94.23,69.46a5,5,0,0,1-.94-5.77c.52-1,1.07-2.09,1.64-3.11a81.25,81.25,0,0,0-4.64,8.11A5,5,0,0,0,91.23,74.46Z"/><path d="M405.06,69.46l-39.87,39.88L326.76,70.91,365.64,32a5,5,0,0,1,5.77-.94,83.85,83.85,0,0,1,32.95,29.48c.57,1,1.12,2.06,1.64,3.11A5,5,0,0,1,405.06,69.46Z" fill="#12a27e"/><path d="M325.76,71.91l1,1L366.64,33a5,5,0,0,1,5.77-.94A83.84,83.84,0,0,1,393.76,47.3l-.5-.5a84.14,84.14,0,0,0-21.85-15.7,5,5,0,0,0-5.77.9Z" fill="#14b089"/><path d="M368.3,331.36l-12.36,1.52a885.53,885.53,0,0,1-223.33-1.06l-2.14-.29a26.54,26.54,0,0,1-22.88-23.1l-1.54-12.57a885,885,0,0,1,1.06-223.32l.3-2.23a26.56,26.56,0,0,1,23-22.87l8-1a884.78,884.78,0,0,1,223,.08l7.17.92a26.56,26.56,0,0,1,23,22.87l.3,2.24A884.91,884.91,0,0,1,393,295.86l-1.51,12.37A26.56,26.56,0,0,1,368.3,331.36Z" fill="#413468"/><path d="M362.76,325.63,351,327.09a832.67,832.67,0,0,1-212.9-1l-2-.28a25.49,25.49,0,0,1-21.82-22.33l-1.47-12.15a867.3,867.3,0,0,1,1-215.87l.28-2.15A25.48,25.48,0,0,1,136,51.18l7.65-1a832.67,832.67,0,0,1,212.61.08l6.84.89A25.49,25.49,0,0,1,385,73.27l.28,2.17a867.3,867.3,0,0,1,1,215.87l-1.45,12A25.49,25.49,0,0,1,362.76,325.63Z" fill="#514182"/><path d="M362,322.79l-11.71,1.43a838,838,0,0,1-211.41-1l-2-.26a25.14,25.14,0,0,1-21.66-21.87l-1.46-11.9a837.9,837.9,0,0,1,1-211.4l.27-2.11A25.15,25.15,0,0,1,136.75,54l7.6-1a838.56,838.56,0,0,1,211.13.08l6.79.87A25.14,25.14,0,0,1,384,75.65l.28,2.13a837.9,837.9,0,0,1,1,211.4l-1.43,11.71A25.16,25.16,0,0,1,362,322.79Z" fill="#30264d"/><path d="M356,317.59,344.94,319a782.17,782.17,0,0,1-200.25-1l-1.92-.26a24,24,0,0,1-20.52-21l-1.38-11.44a817.74,817.74,0,0,1,1-203.22l.26-2a24,24,0,0,1,20.62-20.82l7.2-.92a782.48,782.48,0,0,1,200,.08l6.43.83A24,24,0,0,1,376.91,80l.26,2a817.74,817.74,0,0,1,1,203.22l-1.36,11.25A24,24,0,0,1,356,317.59Z" fill="#514182"/><path d="M356,315.69l-11.09,1.36a793.64,793.64,0,0,1-200.25-.95l-1.92-.26a23.82,23.82,0,0,1-20.52-20.71l-1.38-11.27a794,794,0,0,1,1-200.24l.26-2a23.8,23.8,0,0,1,20.62-20.5l7.2-.91a793.52,793.52,0,0,1,200,.08l6.43.82A23.79,23.79,0,0,1,377,81.61l.26,2a794,794,0,0,1,1,200.24L376.77,295A23.8,23.8,0,0,1,356,315.69Z" fill="#413468"/><path d="M356.27,249.42H142.73c-7.68,0-14-4.54-14.5-10.36l-.88-10.91a884,884,0,0,1,.47-147.43h0c.72-8.33,9.11-15.1,20-16.15l5.72-.55a1005,1005,0,0,1,192.66.06l5,.48c10.89,1.06,19.27,7.83,20,16.15h0a884.27,884.27,0,0,1,.47,147.45l-.88,10.9C370.3,244.88,364,249.42,356.27,249.42Z" fill="none" stroke="#000" stroke-miterlimit="10" stroke-width="4"/><path d="M356.7,250.42H142.3c-7.71,0-14.08-4.56-14.56-10.42l-.88-11a890.15,890.15,0,0,1,.47-148.21h0c.73-8.37,9.15-15.18,20.09-16.23l5.75-.55a1006.39,1006.39,0,0,1,193.42.06l5,.48c10.93,1.06,19.34,7.86,20.07,16.23h0A889.31,889.31,0,0,1,372.13,229l-.87,11C370.79,245.86,364.41,250.42,356.7,250.42Z" fill="#514085"/><path d="M356.27,249.42H142.73c-7.68,0-14-4.54-14.5-10.36l-.88-10.91a884,884,0,0,1,.47-147.43h0c.72-8.33,9.11-15.1,20-16.15l5.72-.55a1005,1005,0,0,1,192.66.06l5,.48c10.89,1.06,19.27,7.83,20,16.15h0a884.27,884.27,0,0,1,.47,147.45l-.88,10.9C370.3,244.88,364,249.42,356.27,249.42Z"/><path d="M361.56,86.53c-.66-7.67-8.38-13.9-18.41-14.88l-4.59-.44a925.07,925.07,0,0,0-177.43,0l-5.27.5a23.83,23.83,0,0,0-12.72,4.93,14.48,14.48,0,0,0-5.7,10q-3.06,35.19-3.06,70.44,0,32.68,2.63,65.34c.88,11,12.89,19.6,27.4,19.6H225v-12.5H176.57c-12.44,0-22.73-6.83-23.49-15.6q-2.25-26-2.25-52,0-28.06,2.62-56.09a11.42,11.42,0,0,1,4.88-7.93A21.46,21.46,0,0,1,169.24,94l4.52-.41a853.57,853.57,0,0,1,152.08,0l3.93.36c8.6.77,15.21,5.73,15.78,11.84q2.63,28,2.62,56.1,0,26-2.25,52c-.38,4.38-3.14,8.28-7.36,11.08a29.42,29.42,0,0,1-16.12,4.51H274V242h60.6a32.52,32.52,0,0,0,18.81-5.66c4.92-3.52,8.14-8.42,8.58-13.92q2.63-32.65,2.63-65.36Q364.62,121.74,361.56,86.53Z" fill="#12a27e"/><path d="M231.48,105v0Z" fill="#d74d1f"/><path d="M231.94,104.11v.06C231.94,104.23,231.93,104.13,231.94,104.11Z" fill="#d74d1f"/><path d="M264.25,111.05c-.92,0-1.05-.24-1.05-.88v-4.62c0-2.61-1.34-3.88-3.47-3.88a3.63,3.63,0,0,0-3.7,2.82v-7.3H251.3V99h.06c.77,0,1.14.17,1.14,1.25v9.89c0,.76-.15.94-.92.94h-.28v1.62h6.09v-1.62h-.22c-1,0-1.14-.13-1.14-.79V106.8c0-1.84.86-2.89,2.13-2.89,1,0,1.51.57,1.51,1.78v4.6c0,.7-.24.79-1.14.79h-.22v1.62h6.09v-1.62Z" fill="#12a27e"/><path d="M247.22,101.67a3.54,3.54,0,0,0-3.59,2.94v-.11a7.51,7.51,0,0,0-.48-2.57H239v1.91h0c.76,0,1.14.17,1.14,1.25v5.76a3.17,3.17,0,0,1-.86.15c-.63,0-.9-.32-.9-1.27V106.1a4.91,4.91,0,0,0-.78-2.93,3.89,3.89,0,0,0-2.66-1.4,9.19,9.19,0,0,0-2.77,0,2.7,2.7,0,0,1,.65,1.52,2.93,2.93,0,0,1,1.24.18,1.47,1.47,0,0,1,.85,1.5c-.06,1.59-2.47,1.9-3.63,2.23-1.93.53-2.76,1.38-2.76,2.83h0a3.08,3.08,0,0,0,.16,1,2.57,2.57,0,0,0,.39.73,3.55,3.55,0,0,0,3.49,1.1,3,3,0,0,0,2.38-2v.06c0,1.55,1.44,2.08,2.77,2a2.87,2.87,0,0,0,2.43-1.31V114c0,.77-.16,1-.92,1H239v1.62h6.42V115h-.55c-1,0-1.14-.14-1.14-.79v-3.74a3.21,3.21,0,0,0,3.38,2.46c2.65,0,4.53-2.06,4.53-5.79h0C251.6,103.93,250.05,101.67,247.22,101.67Zm-12.33,7.41a2.2,2.2,0,0,1-.9,2,1.16,1.16,0,0,1-1.62-.33,1,1,0,0,1-.12-.23,2.12,2.12,0,0,1-.13-.79v-.11a1.71,1.71,0,0,1,1.14-1.69,4.82,4.82,0,0,0,1.62-1.09h0ZM248,107.39c0,2.58-.79,3.55-2.08,3.55s-2.24-1.16-2.24-3.64v-.39c0-1.93.95-3.14,2.24-3.14s2.08,1,2.08,2.94Z" fill="#12a27e"/><path d="M231.8,104.5v0Z" fill="#d74d1f"/><path d="M229.61,101.83h.13a2.54,2.54,0,0,1,.39,0,2.14,2.14,0,0,1,1,.21l.14.08a1.74,1.74,0,0,1,.75,1.37h0a4.86,4.86,0,0,1,0,.54h0v.43h0v.09h0v.07H232l-.06,0h-.24l-.13.06h-.11a2.1,2.1,0,0,1-.5.09h-.7" fill="#d74d1f"/><path d="M197.82,110.15,195.54,107l1.78-2.32c.59-.77.89-.94,1.55-.94h.2V102h-4.82v1.78h.24c.79,0,1,.39.33,1.36l-.92,1.24-1-1.49c-.5-.72-.37-1.11.31-1.11h.26V102h-6.09v1.78h.17c.77,0,.92.19,1.49,1l1.76,2.65-1.91,2.69c-.59.86-.79,1-1.4,1h-.43c-.83,0-1-.16-1-.94V102H179.4V100.3c0-1.51.7-2.19,1.82-2.19a2.13,2.13,0,0,1,1.36.42,1.56,1.56,0,0,0-.05.83c.11.49.54,1,1.64,1.1a1.5,1.5,0,0,0,1.69-1.26,2.18,2.18,0,0,0,0-.25c0-1.38-2.21-2.17-4.68-2.17-3.45,0-5.24,1.43-5.32,4.38v.77H174.5v1.73h1.38v6.45c0,.76-.15.94-.92.94h-.33v1.62h6.25v-1.62h-.2c-1.12,0-1.27-.13-1.27-1v-6.42h2c.77,0,1.14.18,1.14,1.25v5.2c0,.72-.13.94-.79.94h-.24v1.62h10.66V111h-.31c-.88,0-1-.42-.39-1.34l1.13-1.62,1.19,1.8c.52.83.44,1.16-.37,1.16h-.27v1.62h6.12V111h-.11C198.5,111.05,198.3,110.81,197.82,110.15Z" fill="#12a27e"/><path d="M232,103.43a1.73,1.73,0,0,0-.76-1.37,2.24,2.24,0,0,0-1.48-.26,3.3,3.3,0,0,0-2.22,1.66,4.2,4.2,0,0,0-.58,1.44v-.06a7.44,7.44,0,0,0-.57-2.91h-7.78a9,9,0,0,0-.52,2.12,3.48,3.48,0,0,0-3.62-2.36c-2.63,0-4.53,2-4.53,5.13v.05a5.51,5.51,0,0,0,1.25,3.82l-.08.06A3.26,3.26,0,0,1,210,111c-.63,0-.9-.33-.9-1.27v-3.64a4.88,4.88,0,0,0-.78-2.92,4,4,0,0,0-2.66-1.41,9,9,0,0,0-3.77.19,3.89,3.89,0,0,0-2,1.1,1.4,1.4,0,0,0-.17,1.91,1.79,1.79,0,0,0,1.91.34,1.75,1.75,0,0,0,1-1.85h0a3.06,3.06,0,0,1,2.11,0,1.47,1.47,0,0,1,.85,1.5c-.06,1.6-2.47,1.9-3.63,2.24-1.93.52-2.76,1.38-2.76,2.82h0a3.08,3.08,0,0,0,.16,1,2.57,2.57,0,0,0,.39.73,3.56,3.56,0,0,0,3.49,1.11,3,3,0,0,0,2.38-2.06v.07c0,1.54,1.44,2.08,2.77,2a2.8,2.8,0,0,0,2.78-2.19,4.15,4.15,0,0,0,3.13,1.22c2,0,3.12-1,3.49-2v1.43c0,2.6-.83,3.77-3.19,3.77a2.14,2.14,0,0,1-1-.18v-.53c0-1-.74-1.46-1.66-1.46s-1.53.5-1.53,1.33c0,1.65,1.86,2.52,4.76,2.52,4.23,0,6.17-2.08,6.17-5.78v-5.92c0-1,.31-1.21,1-1.24h.06c.77,0,1.14.17,1.14,1.25v5a.92.92,0,0,1-.92.92h-.28v1.62h6.42V111h-.46c-1,0-1.23-.13-1.23-1v-1.67a6.07,6.07,0,0,1,.79-3.06,3,3,0,0,1,1-1.07,1.29,1.29,0,0,0,1.15,1.17,1.76,1.76,0,0,0,1.85-.78A2.1,2.1,0,0,0,232,103.43Zm-26.45,5.65a2.2,2.2,0,0,1-.9,2,1.18,1.18,0,0,1-1.63-.35,1.64,1.64,0,0,1-.24-1v-.11a1.71,1.71,0,0,1,1.14-1.69,4.82,4.82,0,0,0,1.62-1.09h0ZM217.78,107c0,2-.94,3.22-2.23,3.22s-2.08-1-2.08-3.2v-.39c0-1.93.83-2.91,2.12-2.91s2.19,1.18,2.19,3Z" fill="#12a27e"/><path d="M237,234.73h5.85v7a8,8,0,0,1-5.71,2.09c-4.54,0-7.44-2.9-7.44-8.11v-.05c0-4.78,3-7.87,7.73-7.87a6.81,6.81,0,0,1,4.73,1.51V232a8.15,8.15,0,0,0-4.15-1.06,3.88,3.88,0,0,0-4.23,3.49,3.22,3.22,0,0,0,0,.76v.94c0,3.53,1.3,4.89,3.7,4.89a8.41,8.41,0,0,0,1.73-.19v-3.26H237Z" fill="#12a27e"/><path d="M245.8,235.76h0c0-4.8,2.79-7.92,7.45-7.92s7.41,3.12,7.41,7.92h0c0,5.38-3.22,8.07-7.41,8.07S245.8,241.14,245.8,235.76Zm10.85.44v-1.13c0-2.69-1-4.3-3.4-4.3s-3.41,1.61-3.41,4.3v1.13c0,3.38,1.15,4.8,3.41,4.8S256.65,239.58,256.65,236.2Z" fill="#12a27e"/><path d="M266.73,238.33h-2.21l-1.08-10.58h4.37Zm-3.29,3.22a2.19,2.19,0,1,1,2,2A2.19,2.19,0,0,1,263.44,241.55Z" fill="#12a27e"/><path d="M299.88,102.32h-3.76V101h9.09v1.35h-3.77V112.5h-1.56Z" fill="#12a27e"/><path d="M304.81,107h3.29v1.26h-3.29Z" fill="#12a27e"/><path d="M312,102.39l-2.72,3h0v-1.73L311.6,101h2v11.5H312Z" fill="#12a27e"/><path d="M315.86,109.36v-.14a3,3,0,0,1,2.45-2.89,2.65,2.65,0,0,1-2.09-2.57v-.09c0-1.71,1.49-2.93,3.64-2.93s3.62,1.22,3.62,2.91v.11a2.67,2.67,0,0,1-2.09,2.57,3,3,0,0,1,2.45,2.87v.14c0,2.13-1.84,3.39-4,3.39S315.86,111.47,315.86,109.36Zm6.39,0V109a2.41,2.41,0,0,0-4.8,0v.28c0,1.52,1,2.16,2.41,2.16s2.39-.6,2.39-2.12ZM322,104v-.27c0-1-.79-1.75-2.14-1.75s-2.16.76-2.16,1.75V104c0,1.29.86,1.89,2.16,1.89S322,105.27,322,104Z" fill="#12a27e"/><rect x="164.5" y="120.45" width="170" height="95" rx="10" ry="10" fill="#717073"/><rect x="169.5" y="123.25" width="160" height="70.8" rx="8.38" ry="8.38" fill="#979699" stroke="#4b4b4d" stroke-miterlimit="10" stroke-width="0.5"/><rect x="174.5" y="128.24" width="150" height="60.81" rx="7.52" ry="7.52" fill="#d8d7db"/><rect x="177" y="130.74" width="145" height="55.81" rx="7.08" ry="7.08" fill="#4b4b4d"/><rect x="177" y="131.4" width="145" height="54.5" rx="7" ry="7" fill="#eeedf2"/><path d="M137,91.57a22.1,22.1,0,0,1,13.26-6.71L157,84a737.67,737.67,0,0,1,185.79.07l6,.77A22.1,22.1,0,0,1,362,91.56" fill="none" stroke="#000" stroke-miterlimit="10"/><path d="M315.15,78l.08-.9a3.73,3.73,0,0,0,2.32,1.1c.95.09,1.74-.22,1.84-1.26a1,1,0,0,0-.25-.91c-.46-.44-2-.65-2.68-1.1a1.84,1.84,0,0,1-.8-1.89A2.24,2.24,0,0,1,318.07,71l.33.05a3.2,3.2,0,0,1,2,.8l-.08.87a4,4,0,0,0-1.93-.77c-.81-.07-1.66,0-1.77,1.13a1,1,0,0,0,.39,1c.75.54,2.09.55,2.79,1.16a1.92,1.92,0,0,1,.57,1.73,2.35,2.35,0,0,1-2.54,2.12l-.3,0A3.57,3.57,0,0,1,315.15,78Z"/><path d="M323.88,72.69l-2.5-.24.09-.9,6,.58-.09.9-2.49-.24-.65,6.73-1-.1Z"/><path d="M331.74,78l-3.29-.31-1,2.18-1-.09,3.32-7.38,1.69.16,1.85,7.88-1.07-.11Zm-2.9-1.15,2.7.25-1-4.16Z"/><path d="M335.09,72.86l2.58.25c1.64.16,2.37,1.11,2.24,2.45s-1.14,2-2.59,1.87h-.19L339.81,81l-1.27-.12-2.81-3.82-.34,3.51-1-.1Zm2.06,3.84c1.2.12,1.62-.31,1.71-1.27s-.23-1.33-1.4-1.45L336,73.85l-.26,2.72Z"/><path d="M343.3,74.56l-2.49-.24.08-.9,6,.58-.09.9-2.49-.24-.65,6.73-1-.1Z"/><path d="M151.25,74.05l2.58-.25c1.65-.16,2.54.63,2.67,2s-.74,2.19-2.18,2.33h-.19l3.31,3-1.26.12-3.49-3.2.34,3.51-1,.1ZM154,77.42c1.2-.11,1.53-.62,1.44-1.57s-.48-1.27-1.65-1.16l-1.42.14.26,2.72Z"/><path d="M157.8,73.42l4.73-.46.08.9-3.69.35.24,2.51,3.45-.33.09.87-3.45.33.24,2.51,3.69-.36.08.85-4.73.46Z"/><path d="M164.38,79.84l-.08-.9a3.69,3.69,0,0,0,2.48.64c1-.1,1.67-.55,1.57-1.59a1,1,0,0,0-.42-.85c-.54-.35-2.11-.25-2.85-.57a1.83,1.83,0,0,1-1.14-1.7c-.14-1.52,1-2.31,2.32-2.44a3.21,3.21,0,0,1,2.14.4l.08.87a4.16,4.16,0,0,0-2-.38c-.81.08-1.63.34-1.52,1.45a.94.94,0,0,0,.57.88c.84.39,2.16.14,3,.61a1.87,1.87,0,0,1,.89,1.59c.15,1.61-1,2.43-2.4,2.57A3.58,3.58,0,0,1,164.38,79.84Z"/><path d="M170.16,72.23l4.73-.46.09.9-3.69.35.24,2.51L175,75.2l.08.87-3.45.33.24,2.51,3.69-.36.08.85-4.72.45Z"/><path d="M178.5,72.33l-2.5.24-.08-.9,6-.58.08.9-2.49.24.65,6.73-1,.1Z"/><path d="M313.25,90l.09-.91a3.66,3.66,0,0,0,2.32,1.11c.95.09,1.74-.22,1.84-1.26a1,1,0,0,0-.25-.92c-.46-.44-2-.65-2.69-1.1a1.81,1.81,0,0,1-.79-1.88c.14-1.53,1.42-2.08,2.74-2a3.14,3.14,0,0,1,2,.79l-.09.87a4.07,4.07,0,0,0-1.92-.76c-.81-.08-1.67,0-1.77,1.13a1,1,0,0,0,.38,1c.76.54,2.1.55,2.8,1.16a1.84,1.84,0,0,1,.56,1.73A2.3,2.3,0,0,1,316,91.07a1.86,1.86,0,0,1-.34,0A3.52,3.52,0,0,1,313.25,90Z"/><path d="M322,84.71l-2.49-.25.09-.89,6,.58-.08.9-2.5-.24-.64,6.73-1-.1Z"/><path d="M325.58,88h0c.23-2.39,1.51-3.83,3.77-3.62s3.24,1.88,3,4.27h0c-.26,2.68-1.74,3.88-3.78,3.69S325.32,90.65,325.58,88Zm5.72.78.06-.62c.15-1.57-.4-2.74-2.1-2.9s-2.46.88-2.61,2.45l-.06.62c-.19,2,.49,3,2.07,3.16s2.44-.7,2.64-2.73Z"/><path d="M334.1,85l2.71.26A2.21,2.21,0,0,1,339,87.45a2,2,0,0,1,0,.42c-.15,1.54-1.17,2.28-2.89,2.12l-1.47-.15-.28,2.86-1-.1Zm2,4.17c1.33.13,1.82-.43,1.91-1.38s-.24-1.55-1.41-1.66L335.05,86l-.29,3Z"/><path d="M182.68,147.65a8.21,8.21,0,0,1,1.58,1.48v10.13a8.16,8.16,0,0,1-1.58,1.47,8.16,8.16,0,0,1-1.58-1.47V149.13A8.21,8.21,0,0,1,182.68,147.65Zm0,14.45a8.21,8.21,0,0,1,1.58,1.48v10.13a8.16,8.16,0,0,1-1.58,1.47,8.16,8.16,0,0,1-1.58-1.47V163.58a8.21,8.21,0,0,1,1.58-1.48Zm2.11-16.66h10.13a8.16,8.16,0,0,1,1.47,1.58,8.16,8.16,0,0,1-1.47,1.58H184.79a8.21,8.21,0,0,1-1.48-1.58,8.21,8.21,0,0,1,1.48-1.58Zm-.1,14.45H195a15.83,15.83,0,0,1,1.37,1.58,14.78,14.78,0,0,1-1.37,1.58H184.69a17.34,17.34,0,0,1-1.38-1.58,18.8,18.8,0,0,1,1.38-1.58Zm.1,14.45h10.13a8.16,8.16,0,0,1,1.47,1.58,8.16,8.16,0,0,1-1.47,1.58H184.79a8.21,8.21,0,0,1-1.48-1.58,8.21,8.21,0,0,1,1.48-1.58ZM197,147.65a8.86,8.86,0,0,1,1.58,1.48v10.13a8.48,8.48,0,0,1-1.58,1.47,8.52,8.52,0,0,1-1.59-1.47V149.13A8.92,8.92,0,0,1,197,147.65Zm0,14.56a8.21,8.21,0,0,1,1.58,1.48v10.12a8.21,8.21,0,0,1-1.58,1.48,8.27,8.27,0,0,1-1.59-1.48V163.69a8.27,8.27,0,0,1,1.59-1.48Z" fill="#dcdae4"/><path d="M206.19,147.65a8.86,8.86,0,0,1,1.58,1.48v10.13a8.48,8.48,0,0,1-1.58,1.47,8.52,8.52,0,0,1-1.59-1.47V149.13A8.92,8.92,0,0,1,206.19,147.65Zm0,14.45a8.86,8.86,0,0,1,1.58,1.48v10.13a8.48,8.48,0,0,1-1.58,1.47,8.52,8.52,0,0,1-1.59-1.47V163.58a8.92,8.92,0,0,1,1.59-1.48Zm2.1-16.66h10.13A8.1,8.1,0,0,1,219.9,147a7.93,7.93,0,0,1-1.48,1.58H208.29a8.16,8.16,0,0,1-1.47-1.58,8.05,8.05,0,0,1,1.47-1.56Zm-.1,14.45h10.34a20.68,20.68,0,0,1,1.37,1.58,18.68,18.68,0,0,1-1.37,1.58H208.19a14.78,14.78,0,0,1-1.37-1.58,15.83,15.83,0,0,1,1.37-1.58Zm.1,14.45h10.13a8.21,8.21,0,0,1,1.48,1.58,7.93,7.93,0,0,1-1.48,1.58H208.29a8.16,8.16,0,0,1-1.47-1.58,8.16,8.16,0,0,1,1.47-1.58Zm12.24-26.69a8.21,8.21,0,0,1,1.58,1.48v10.13a8.16,8.16,0,0,1-1.58,1.47,8.16,8.16,0,0,1-1.58-1.47V149.13a8.21,8.21,0,0,1,1.58-1.48Zm0,14.56a8.21,8.21,0,0,1,1.58,1.48v10.12a8.21,8.21,0,0,1-1.58,1.48,7.93,7.93,0,0,1-1.58-1.48V163.69a7.16,7.16,0,0,1,1.58-1.48Z" fill="#dcdae4"/><path d="M235.09,147.65a8.21,8.21,0,0,1,1.58,1.48v10.13a8.16,8.16,0,0,1-1.58,1.47,8.16,8.16,0,0,1-1.58-1.47V149.13A8.21,8.21,0,0,1,235.09,147.65Zm0,14.45a8.21,8.21,0,0,1,1.58,1.48v10.13a8.16,8.16,0,0,1-1.58,1.47,8.16,8.16,0,0,1-1.58-1.47V163.58a8.21,8.21,0,0,1,1.58-1.48Zm2.11-16.66h10.12A7.82,7.82,0,0,1,248.8,147a7.16,7.16,0,0,1-1.48,1.58H237.2a7.93,7.93,0,0,1-1.48-1.58,8.1,8.1,0,0,1,1.48-1.56Zm-.11,14.45h10.34a15.83,15.83,0,0,1,1.37,1.58,14.78,14.78,0,0,1-1.37,1.58H237.09a17,17,0,0,1-1.37-1.58,18.68,18.68,0,0,1,1.37-1.58Zm.11,14.45h10.12a8.21,8.21,0,0,1,1.48,1.58,7.16,7.16,0,0,1-1.48,1.58H237.2a7.93,7.93,0,0,1-1.48-1.58,8.21,8.21,0,0,1,1.48-1.58Zm12.23-26.69a8.21,8.21,0,0,1,1.58,1.48v10.13a8.16,8.16,0,0,1-1.58,1.47,8.48,8.48,0,0,1-1.58-1.47V149.13a8.86,8.86,0,0,1,1.58-1.48Zm0,14.56a7.16,7.16,0,0,1,1.58,1.48v10.12a7.93,7.93,0,0,1-1.58,1.48,8.21,8.21,0,0,1-1.58-1.48V163.69a8.21,8.21,0,0,1,1.58-1.48Z" fill="#dcdae4"/><path d="M258.59,147.65a8.21,8.21,0,0,1,1.58,1.48v10.13a8.16,8.16,0,0,1-1.58,1.47,8.48,8.48,0,0,1-1.58-1.47V149.13A8.86,8.86,0,0,1,258.59,147.65Zm0,14.45a8.21,8.21,0,0,1,1.58,1.48v10.13a8.16,8.16,0,0,1-1.58,1.47,8.48,8.48,0,0,1-1.58-1.47V163.58a8.86,8.86,0,0,1,1.58-1.48Zm2.11-16.66h10.13A8.05,8.05,0,0,1,272.3,147a8.16,8.16,0,0,1-1.47,1.58H260.7a8.16,8.16,0,0,1-1.47-1.58,8.05,8.05,0,0,1,1.47-1.56Zm-.1,14.45h10.33a15.83,15.83,0,0,1,1.37,1.58,14.78,14.78,0,0,1-1.37,1.58H260.6a14.78,14.78,0,0,1-1.37-1.58,15.83,15.83,0,0,1,1.37-1.58Zm.1,14.45h10.13a8.16,8.16,0,0,1,1.47,1.58,8.16,8.16,0,0,1-1.47,1.58H260.7a8.16,8.16,0,0,1-1.47-1.58,8.16,8.16,0,0,1,1.47-1.58Zm12.24-26.69a8.86,8.86,0,0,1,1.58,1.48v10.13a8.48,8.48,0,0,1-1.58,1.47,8.52,8.52,0,0,1-1.59-1.47V149.13a8.92,8.92,0,0,1,1.59-1.48Zm0,14.56a8.21,8.21,0,0,1,1.58,1.48v10.12a8.21,8.21,0,0,1-1.58,1.48,8.27,8.27,0,0,1-1.59-1.48V163.69a8.27,8.27,0,0,1,1.59-1.48Z" fill="#dcdae4"/><path d="M281.92,151a8,8,0,0,1,1.41,1.31v9a7.67,7.67,0,0,1-1.41,1.32,7.67,7.67,0,0,1-1.41-1.32v-9A8,8,0,0,1,281.92,151Zm0,12.84a7.67,7.67,0,0,1,1.41,1.32v9a8,8,0,0,1-1.41,1.31,8,8,0,0,1-1.41-1.31v-9a7.52,7.52,0,0,1,1.41-1.35ZM283.8,149h9a8,8,0,0,1,1.31,1.41,7.24,7.24,0,0,1-1.31,1.4h-9a6.75,6.75,0,0,1-1.32-1.4A7.67,7.67,0,0,1,283.8,149Zm-.1,12.85h9.19a16.31,16.31,0,0,1,1.22,1.4,13.71,13.71,0,0,1-1.22,1.41H283.7a18.12,18.12,0,0,1-1.22-1.41,16.31,16.31,0,0,1,1.22-1.4Zm.1,12.84h9a7.29,7.29,0,0,1,1.31,1.41,7.24,7.24,0,0,1-1.31,1.4h-9a6.75,6.75,0,0,1-1.32-1.4A7.36,7.36,0,0,1,283.8,174.69ZM294.67,151a8,8,0,0,1,1.41,1.31v9a7.67,7.67,0,0,1-1.41,1.32,7.67,7.67,0,0,1-1.41-1.32v-9A8,8,0,0,1,294.67,151Zm0,12.94a7.29,7.29,0,0,1,1.41,1.31v9a7.29,7.29,0,0,1-1.41,1.31,7.29,7.29,0,0,1-1.41-1.31v-9a7.16,7.16,0,0,1,1.41-1.34Z" fill="#dcdae4"/><path d="M302.81,151a8,8,0,0,1,1.41,1.31v9a7.67,7.67,0,0,1-1.41,1.32,6.75,6.75,0,0,1-1.4-1.32v-9A7.24,7.24,0,0,1,302.81,151Zm0,12.84a7.67,7.67,0,0,1,1.41,1.32v9a8,8,0,0,1-1.41,1.31,7.24,7.24,0,0,1-1.4-1.31v-9a6.89,6.89,0,0,1,1.4-1.35ZM304.69,149h9a8,8,0,0,1,1.31,1.41,7.24,7.24,0,0,1-1.31,1.4h-9a6.7,6.7,0,0,1-1.31-1.4A7.29,7.29,0,0,1,304.69,149Zm-.1,12.85h9.19a16.31,16.31,0,0,1,1.22,1.4,13.71,13.71,0,0,1-1.22,1.41h-9.19a13.62,13.62,0,0,1-1.21-1.41A14.63,14.63,0,0,1,304.59,161.85Zm.1,12.84h9A7.29,7.29,0,0,1,315,176.1a7.24,7.24,0,0,1-1.31,1.4h-9a6.7,6.7,0,0,1-1.31-1.4A7,7,0,0,1,304.69,174.69ZM315.56,151a8,8,0,0,1,1.41,1.31v9a7.67,7.67,0,0,1-1.41,1.32,6.75,6.75,0,0,1-1.4-1.32v-9A7.24,7.24,0,0,1,315.56,151Zm0,12.94a7.29,7.29,0,0,1,1.41,1.31v9a7.29,7.29,0,0,1-1.41,1.31,6.7,6.7,0,0,1-1.4-1.31v-9a6.85,6.85,0,0,1,1.4-1.34Z" fill="#dcdae4"/><path d="M234.84,147.65a8.21,8.21,0,0,1,1.58,1.48v10.13a8.16,8.16,0,0,1-1.58,1.47,8.48,8.48,0,0,1-1.58-1.47V149.13A8.86,8.86,0,0,1,234.84,147.65Zm2.11-2.21h10.13a8.16,8.16,0,0,1,1.47,1.58,8.16,8.16,0,0,1-1.47,1.58H237a8.16,8.16,0,0,1-1.47-1.58,8.16,8.16,0,0,1,1.47-1.58Zm-.1,14.45h10.33a15.83,15.83,0,0,1,1.37,1.58,14.78,14.78,0,0,1-1.37,1.58H236.85a14.78,14.78,0,0,1-1.37-1.58,15.83,15.83,0,0,1,1.37-1.58Zm.1,14.45h10.13a8.16,8.16,0,0,1,1.47,1.58,8.16,8.16,0,0,1-1.47,1.58H237a8.16,8.16,0,0,1-1.47-1.58,8.16,8.16,0,0,1,1.47-1.58Zm12.24-12.13a8.21,8.21,0,0,1,1.58,1.48v10.12a8.21,8.21,0,0,1-1.58,1.48,8.27,8.27,0,0,1-1.59-1.48V163.69a8.27,8.27,0,0,1,1.59-1.48Z" fill="#3c2c6a"/><path d="M272.72,175.29a8.21,8.21,0,0,1-1.58-1.48V163.69a8.21,8.21,0,0,1,1.58-1.48,7.16,7.16,0,0,1,1.58,1.48v10.12A7.93,7.93,0,0,1,272.72,175.29Zm0-14.45a8.21,8.21,0,0,1-1.58-1.48V149.24a8.21,8.21,0,0,1,1.58-1.48,7.16,7.16,0,0,1,1.58,1.48v10.12A7.93,7.93,0,0,1,272.72,160.84Zm-2.11,16.66H260.49a8.21,8.21,0,0,1-1.48-1.58,8.21,8.21,0,0,1,1.48-1.58h10.12a8.21,8.21,0,0,1,1.48,1.58,8.21,8.21,0,0,1-1.48,1.58Zm.11-14.45H260.38a17,17,0,0,1-1.37-1.58,18.68,18.68,0,0,1,1.37-1.58h10.34a15.83,15.83,0,0,1,1.37,1.58A14.78,14.78,0,0,1,270.72,163.05Zm-.11-14.45H260.49A7.8,7.8,0,0,1,259,147a8.21,8.21,0,0,1,1.48-1.58H270.6a8.21,8.21,0,0,1,1.48,1.58,7.44,7.44,0,0,1-1.47,1.6Zm-12.23,12.13a8.16,8.16,0,0,1-1.58-1.47V149.13a8.21,8.21,0,0,1,1.58-1.48,8.21,8.21,0,0,1,1.58,1.48v10.13a8.16,8.16,0,0,1-1.58,1.47Z" fill="#3c2c6a"/><path d="M315.28,175.53a7.29,7.29,0,0,1-1.41-1.31v-9a7.29,7.29,0,0,1,1.41-1.31,7.29,7.29,0,0,1,1.41,1.31v9A7.29,7.29,0,0,1,315.28,175.53Zm0-12.84a8,8,0,0,1-1.41-1.31v-9a7.67,7.67,0,0,1,1.41-1.32,7.67,7.67,0,0,1,1.41,1.32v9A8,8,0,0,1,315.28,162.69ZM313.4,177.5h-9a7.24,7.24,0,0,1-1.31-1.4,7.29,7.29,0,0,1,1.31-1.41h9a7.36,7.36,0,0,1,1.32,1.41A6.75,6.75,0,0,1,313.4,177.5Zm.1-12.84h-9.19a13.71,13.71,0,0,1-1.22-1.41,16.31,16.31,0,0,1,1.22-1.4h9.19a16.31,16.31,0,0,1,1.22,1.4A18.12,18.12,0,0,1,313.5,164.66Zm-.1-12.85h-9a7.24,7.24,0,0,1-1.31-1.4A8,8,0,0,1,304.4,149h9a7.67,7.67,0,0,1,1.32,1.41A6.75,6.75,0,0,1,313.4,151.81ZM302.53,162.6a7.67,7.67,0,0,1-1.41-1.32v-9a8,8,0,0,1,1.41-1.31,8,8,0,0,1,1.41,1.31v9A7.67,7.67,0,0,1,302.53,162.6Z" fill="#3c2c6a"/><path d="M294.6,175.53a7.29,7.29,0,0,1-1.41-1.31v-9a7.29,7.29,0,0,1,1.41-1.31,6.7,6.7,0,0,1,1.4,1.31v9A6.7,6.7,0,0,1,294.6,175.53Zm0-12.84a8,8,0,0,1-1.41-1.31v-9a7.67,7.67,0,0,1,1.41-1.32,6.75,6.75,0,0,1,1.4,1.32v9A7.24,7.24,0,0,1,294.6,162.69Zm-1.88,14.81h-9a7.24,7.24,0,0,1-1.31-1.4,7.29,7.29,0,0,1,1.31-1.41h9A7.13,7.13,0,0,1,294,176.1,7.08,7.08,0,0,1,292.72,177.5Zm.1-12.84h-9.19a13.71,13.71,0,0,1-1.22-1.41,16.31,16.31,0,0,1,1.22-1.4h9.19a16.31,16.31,0,0,1,1.22,1.4A18.12,18.12,0,0,1,292.82,164.66Zm-.1-12.85h-9a7.24,7.24,0,0,1-1.31-1.4,8,8,0,0,1,1.31-1.41h9a7.67,7.67,0,0,1,1.32,1.41A6.75,6.75,0,0,1,292.72,151.81ZM281.85,162.6a7.67,7.67,0,0,1-1.41-1.32v-9a8,8,0,0,1,1.41-1.31,7.24,7.24,0,0,1,1.4,1.31v9A6.75,6.75,0,0,1,281.85,162.6Z" fill="#3c2c6a"/><path d="M182.75,147.65a8.21,8.21,0,0,1,1.58,1.48v10.13a8.16,8.16,0,0,1-1.58,1.47,8.16,8.16,0,0,1-1.58-1.47V149.13A8.21,8.21,0,0,1,182.75,147.65Zm2.11-2.21H195a8.21,8.21,0,0,1,1.48,1.58A7.16,7.16,0,0,1,195,148.6H184.86a7.16,7.16,0,0,1-1.48-1.58,8.21,8.21,0,0,1,1.48-1.58Zm-.11,14.45h10.34a18.68,18.68,0,0,1,1.37,1.58,17,17,0,0,1-1.37,1.58H184.75a17,17,0,0,1-1.37-1.58,18.68,18.68,0,0,1,1.37-1.58Zm.11,14.45H195a8.21,8.21,0,0,1,1.48,1.58A7.16,7.16,0,0,1,195,177.5H184.86a7.16,7.16,0,0,1-1.48-1.58,8.21,8.21,0,0,1,1.48-1.58Zm12.23-12.13a7.16,7.16,0,0,1,1.58,1.48v10.12a7.93,7.93,0,0,1-1.58,1.48,8.21,8.21,0,0,1-1.58-1.48V163.69a8.21,8.21,0,0,1,1.58-1.48Z" fill="#3c2c6a"/><path d="M220.36,175.29a7.93,7.93,0,0,1-1.58-1.48V163.69a7.16,7.16,0,0,1,1.58-1.48,8.21,8.21,0,0,1,1.58,1.48v10.12A8.21,8.21,0,0,1,220.36,175.29Zm0-14.45a7.93,7.93,0,0,1-1.58-1.48V149.24a7.16,7.16,0,0,1,1.58-1.48,8.21,8.21,0,0,1,1.58,1.48v10.12A8.21,8.21,0,0,1,220.36,160.84Zm-2.11,16.66H208.12a8.16,8.16,0,0,1-1.47-1.58,8.16,8.16,0,0,1,1.47-1.58h10.13a8.21,8.21,0,0,1,1.48,1.58A8.21,8.21,0,0,1,218.25,177.5Zm.1-14.45H208a14.78,14.78,0,0,1-1.37-1.58,15.83,15.83,0,0,1,1.37-1.58h10.33a18.8,18.8,0,0,1,1.38,1.58A16.93,16.93,0,0,1,218.35,163.05Zm-.1-14.45H208.12a8.16,8.16,0,0,1-1.47-1.58,8.16,8.16,0,0,1,1.47-1.58h10.13a8.21,8.21,0,0,1,1.48,1.58A8.21,8.21,0,0,1,218.25,148.6ZM206,160.73a8.48,8.48,0,0,1-1.58-1.47V149.13a8.86,8.86,0,0,1,1.58-1.48,8.92,8.92,0,0,1,1.59,1.48v10.13A8.52,8.52,0,0,1,206,160.73Z" fill="#3c2c6a"/><path d="M224.78,144.66l.52-5.35h2.53l-1.4,5.35Z" fill="#3c2c6a"/><path d="M275.78,144.66l.51-5.35h2.54l-1.4,5.35Zm3.86,0,.52-5.35h2.53l-1.4,5.35Z" fill="#3c2c6a"/><path d="M197.25,198.59h1.6v7.66h-1v-6.7l-2.27,6.7H194.4l-2.25-6.63v6.63h-1v-7.66h1.63L195,205.3Z"/><path d="M200.75,198.59h1v7.66h-1Z"/><path d="M203.69,198.59h1.67l3.4,6.72v-6.72h1v7.66h-1.54l-3.53-6.85v6.85h-1Z"/><path d="M211.21,205.64a.73.73,0,0,1,.71-.71.71.71,0,0,1,.71.71h0a.7.7,0,0,1-.71.69h0A.72.72,0,0,1,211.21,205.64Z"/><path d="M243.66,205.61v-.91a3.67,3.67,0,0,0,2.41.88c1,0,1.71-.39,1.71-1.43a1,1,0,0,0-.33-.89c-.51-.39-2.08-.45-2.79-.84a1.81,1.81,0,0,1-1-1.79,2.25,2.25,0,0,1,2.27-2.23l.27,0a3.17,3.17,0,0,1,2.09.6v.87a4.06,4.06,0,0,0-2-.57c-.81,0-1.65.18-1.65,1.29a1,1,0,0,0,.48.94c.8.47,2.13.35,2.89.89a1.88,1.88,0,0,1,.73,1.66,2.33,2.33,0,0,1-2.31,2.35l-.32,0A3.52,3.52,0,0,1,243.66,205.61Z"/><path d="M250.14,198.59h4.74v.9h-3.7V202h3.47v.88h-3.47v2.52h3.7v.85h-4.74Z"/><path d="M256,202.36h0c0-2.39,1.24-3.92,3.47-3.92a3,3,0,0,1,2.32.8v.85a3.58,3.58,0,0,0-2.25-.72c-1.74,0-2.5,1.06-2.5,2.69v.48c0,2,.89,3,2.61,3a3.39,3.39,0,0,0,2.17-.81v.85a3,3,0,0,1-2.25.84C257.44,206.43,256,205,256,202.36Z"/><path d="M262.83,205.64a.73.73,0,0,1,.71-.71.71.71,0,0,1,.71.71.7.7,0,0,1-.71.69h0A.72.72,0,0,1,262.83,205.64Z"/><path d="M289.83,199.53l-1.81,2h0v-1.15l1.57-1.77h1.32v7.66h-1.05Z"/><path d="M293,207.43h-1l2.64-9.25h.91Z"/><path d="M298.09,199.53l-1.81,2h0v-1.15l1.57-1.77h1.32v7.66h-1Z"/><path d="M300.71,202.59v-.51c0-2.43,1.27-3.66,3-3.66s3.05,1.23,3.05,3.66v.51c0,2.72-1.43,3.84-3.05,3.84S300.71,205.31,300.71,202.59Zm5,.23v-1.09c0-1.51-.76-2.41-2-2.41s-2,.9-2,2.41v1.09c0,2,.86,2.76,2,2.76s2-.81,2-2.76Z"/><path d="M307.79,202.59v-.51c0-2.43,1.27-3.66,3-3.66s3,1.23,3,3.66v.51c0,2.72-1.43,3.84-3,3.84S307.79,205.31,307.79,202.59Zm5,.23v-1.09c0-1.51-.76-2.41-2-2.41s-2,.9-2,2.41v1.09c0,2,.86,2.76,2,2.76s2-.81,2-2.76Z"/></svg>