<svg xmlns="http://www.w3.org/2000/svg" width="250" height="250" viewBox="0 0 250 250"><title>chat</title><circle cx="125" cy="125" r="125" fill="#f7f5fd"/><path d="M142.5,31.5H78.17a27.06,27.06,0,0,0-12.94,3.27A28.06,28.06,0,0,0,50.64,59.48V94.22a35.28,35.28,0,0,1-17.29,30.46,34.18,34.18,0,0,0,31.88,1.42,27.06,27.06,0,0,0,12.94,3.27H142.5a27.77,27.77,0,0,0,27.54-28h0V59.48a27.76,27.76,0,0,0-27.54-28Z" fill="#118669" stroke="#514969" stroke-linecap="round" stroke-linejoin="round" stroke-width="10"/><rect x="113.74" y="73.35" width="13.93" height="35.39" rx="5.58" ry="5.58" fill="#f7f5fd"/><rect x="134.64" y="52.13" width="13.93" height="35.39" rx="5.58" ry="5.58" fill="#f7f5fd"/><rect x="92.85" y="52.12" width="13.93" height="56.62" rx="5.58" ry="5.58" fill="#f7f5fd"/><rect x="71.96" y="52.12" width="13.93" height="56.62" rx="5.58" ry="5.58" fill="#f7f5fd"/><rect x="113.75" y="52.13" width="13.93" height="14.15" rx="5.58" ry="5.58" fill="#f7f5fd"/><rect x="134.64" y="94.59" width="13.93" height="14.15" rx="5.58" ry="5.58" fill="#f7f5fd"/><rect x="78.09" y="73.36" width="22.62" height="14.15" rx="5.58" ry="5.58" fill="#f7f5fd"/><path d="M102.5,129.13h64.33a27.06,27.06,0,0,1,12.94,3.27,28.08,28.08,0,0,1,14.59,24.71v7.24a35.26,35.26,0,0,0,17.29,30.46,34.18,34.18,0,0,1-31.88,1.42,27.06,27.06,0,0,1-12.94,3.27H102.5A27.77,27.77,0,0,1,75,171.5h0V157.1A27.75,27.75,0,0,1,102.5,129.13Z" fill="#f7f5fd" stroke="#f7f5fd" stroke-linejoin="round" stroke-width="20"/><path d="M102.5,129.13h64.33a27.06,27.06,0,0,1,12.94,3.27,28.08,28.08,0,0,1,14.59,24.71v7.24a35.26,35.26,0,0,0,17.29,30.46,34.18,34.18,0,0,1-31.88,1.42,27.06,27.06,0,0,1-12.94,3.27H102.5A27.77,27.77,0,0,1,75,171.5h0V157.1A27.75,27.75,0,0,1,102.5,129.13Z" fill="#f7f5fd" stroke="#514969" stroke-linecap="round" stroke-linejoin="round" stroke-width="10"/><path d="M136.44,178.07h-3.17a6.38,6.38,0,0,1-6.38-6.38h0V163.9a2,2,0,0,1,2-2h11.92a2,2,0,0,1,2,2v7.79a6.38,6.38,0,0,1-6.38,6.38h0Z" fill="#12a37f"/><rect x="103" y="153.8" width="15.92" height="16.18" rx="6.38" ry="6.38" fill="#514969"/><rect x="150.77" y="153.8" width="15.92" height="16.18" rx="6.38" ry="6.38" fill="#514969"/></svg>