<svg xmlns="http://www.w3.org/2000/svg" width="300" height="300" viewBox="0 0 300 300"><title>chat</title><circle cx="150" cy="150" r="150" fill="#f7f5fd"/><path d="M168.26,56.12H96a30.36,30.36,0,0,0-14.54,3.67A31.56,31.56,0,0,0,65,87.56v39a39.62,39.62,0,0,1-19.42,34.22,38.41,38.41,0,0,0,35.82,1.6A30.36,30.36,0,0,0,96,166.08h72.28a31.19,31.19,0,0,0,30.94-31.45h0V87.56a31.19,31.19,0,0,0-30.94-31.44Z" fill="#118669"/><path d="M65,171.7a43.89,43.89,0,0,1-22.26-6,5.62,5.62,0,0,1,0-9.68,34.13,34.13,0,0,0,16.68-29.37v-39a37.11,37.11,0,0,1,19.31-32.7,36.2,36.2,0,0,1,17.2-4.36H168.3a36.81,36.81,0,0,1,36.52,37.1v47A36.85,36.85,0,0,1,168.3,171.7H95.93a36.21,36.21,0,0,1-14.64-3.11A44,44,0,0,1,65,171.7ZM56.7,159.39A32.79,32.79,0,0,0,79,157.33a5.63,5.63,0,0,1,5.07.14,24.92,24.92,0,0,0,11.83,3h72.32a25.6,25.6,0,0,0,25.32-25.8V87.56a25.56,25.56,0,0,0-25.34-25.82H96a24.92,24.92,0,0,0-11.84,3A25.9,25.9,0,0,0,70.66,87.54v39.05A45.42,45.42,0,0,1,56.7,159.39Z" fill="#3c2c6a"/><rect x="135.94" y="103.14" width="15.65" height="39.76" rx="6.27" ry="6.27" fill="#f7f5fd"/><rect x="159.43" y="79.3" width="15.65" height="39.76" rx="6.27" ry="6.27" fill="#f7f5fd"/><rect x="112.47" y="79.29" width="15.65" height="63.62" rx="6.27" ry="6.27" fill="#f7f5fd"/><rect x="89" y="79.29" width="15.65" height="63.62" rx="6.27" ry="6.27" fill="#f7f5fd"/><rect x="135.95" y="79.3" width="15.65" height="15.9" rx="6.27" ry="6.27" fill="#f7f5fd"/><rect x="159.43" y="127.01" width="15.65" height="15.9" rx="6.27" ry="6.27" fill="#f7f5fd"/><rect x="95.89" y="103.15" width="25.42" height="15.9" rx="6.27" ry="6.27" fill="#f7f5fd"/><path d="M123.31,165.81H195.6a30.47,30.47,0,0,1,14.53,3.68,31.55,31.55,0,0,1,16.4,27.76v8.14A39.62,39.62,0,0,0,246,239.61a38.44,38.44,0,0,1-35.82,1.6,30.35,30.35,0,0,1-14.53,3.67H123.31a31.2,31.2,0,0,1-30.94-31.46h0V197.24A31.2,31.2,0,0,1,123.31,165.81Z" fill="#f7f5fd"/><path d="M226.53,258.93a52.25,52.25,0,0,1-16.11-2.54,44.56,44.56,0,0,1-14.79,2.54H123.2a45.3,45.3,0,0,1-44.87-45.56V197.24a45.26,45.26,0,0,1,44.87-45.47h72.4a44.73,44.73,0,0,1,21.22,5.37,45.55,45.55,0,0,1,23.75,40.16v8.09a25.71,25.71,0,0,0,12.54,22.14,14,14,0,0,1-.06,24.2A52.39,52.39,0,0,1,226.53,258.93ZM123.38,230.84H195.6a16.63,16.63,0,0,0,7.85-2,14,14,0,0,1,12.68-.35c.64.3,1.29.57,2,.82a53.71,53.71,0,0,1-5.6-24v-8.09a17.49,17.49,0,0,0-9.09-15.44,16.36,16.36,0,0,0-7.76-1.95H123.38a17.17,17.17,0,0,0-17,17.27v16.29a.49.49,0,0,1,0,.12A17.19,17.19,0,0,0,123.38,230.84Z" fill="#f7f5fd"/><path d="M123.31,165.81H195.6a30.47,30.47,0,0,1,14.53,3.68,31.55,31.55,0,0,1,16.4,27.76v8.14A39.62,39.62,0,0,0,246,239.61a38.44,38.44,0,0,1-35.82,1.6,30.35,30.35,0,0,1-14.53,3.67H123.31a31.2,31.2,0,0,1-30.94-31.46h0V197.24A31.2,31.2,0,0,1,123.31,165.81Z" fill="#f7f5fd"/><path d="M226.53,250.5a44,44,0,0,1-16.25-3.11,36.22,36.22,0,0,1-14.65,3.11H123.31a36.88,36.88,0,0,1-36.56-37.12V197.24a36.84,36.84,0,0,1,36.52-37h72.37a36.16,36.16,0,0,1,17.17,4.35,37.15,37.15,0,0,1,19.34,32.72v8.12a34.11,34.11,0,0,0,16.67,29.39,5.62,5.62,0,0,1,0,9.68A44,44,0,0,1,226.53,250.5Zm-16.4-14.91a5.6,5.6,0,0,1,2.4.54,32.79,32.79,0,0,0,22.34,2.06,45.47,45.47,0,0,1-14-32.82v-8.12a25.9,25.9,0,0,0-13.47-22.83,24.89,24.89,0,0,0-11.81-3H123.34A25.61,25.61,0,0,0,98,197.2v16.22a25.61,25.61,0,0,0,25.37,25.84h72.27a24.91,24.91,0,0,0,11.83-3A5.61,5.61,0,0,1,210.13,235.59Z" fill="#118669"/><path d="M161.45,219h-3.56a7.17,7.17,0,0,1-7.17-7.17h0v-8.75a2.25,2.25,0,0,1,2.25-2.25h13.39a2.25,2.25,0,0,1,2.25,2.25v8.75a7.17,7.17,0,0,1-7.17,7.17h0Z" fill="#d74d1f"/><rect x="123.88" y="191.71" width="17.89" height="18.18" rx="7.17" ry="7.17" fill="#3c2c6a"/><rect x="177.55" y="191.71" width="17.89" height="18.18" rx="7.17" ry="7.17" fill="#3c2c6a"/></svg>