<svg xmlns="http://www.w3.org/2000/svg" width="300" height="300" viewBox="0 0 300 300"><title>editing</title><circle cx="150" cy="150" r="150" fill="#f7f5fd"/><rect x="80.52" y="60.06" width="138.97" height="179.88" rx="4.05" ry="4.05" transform="translate(-23.77 28.33) rotate(-10)" fill="#118669"/><rect x="60.06" y="80.52" width="179.88" height="138.97" rx="4.05" ry="4.05" transform="translate(-23.77 271.68) rotate(-80)" fill="#413468"/><rect x="80.35" y="60.28" width="138.97" height="179.88" rx="4.05" ry="4.05" fill="#f7f5fd"/><rect x="105.94" y="85.06" width="23.19" height="13.91" rx="4.83" ry="4.83" fill="#413468"/><rect x="138.4" y="85.06" width="23.19" height="13.91" rx="4.83" ry="4.83" fill="#413468"/><rect x="170.87" y="85.06" width="23.19" height="13.91" rx="4.83" ry="4.83" fill="#413468"/><rect x="154.64" y="201.02" width="39.43" height="13.91" rx="4.07" ry="4.07" fill="#413468"/><rect x="105.94" y="201.02" width="39.43" height="13.91" rx="4.07" ry="4.07" fill="#413468"/><rect x="154.64" y="108.25" width="39.43" height="13.91" rx="4.07" ry="4.07" fill="#413468"/><rect x="105.94" y="108.25" width="39.43" height="13.91" rx="4.07" ry="4.07" fill="#413468"/><rect x="105.94" y="177.83" width="88.13" height="13.91" rx="4.83" ry="4.83" fill="#413468"/><path d="M139.29,168.55h21.42a5.52,5.52,0,0,0,5.52-5.52h0v-6.8a1.57,1.57,0,0,0-1.56-1.58H135.34a1.57,1.57,0,0,0-1.57,1.57h0V163a5.52,5.52,0,0,0,5.49,5.55Z" fill="#413468"/><rect x="52.59" y="143.51" width="46.38" height="46.38" rx="4.05" ry="4.05" transform="translate(-104.85 196.76) rotate(-75)" fill="#118669"/><path d="M80.61,170.14l-6.42-1.72-.33-.09-11.2-3A2.11,2.11,0,0,1,60.91,163l.25-.92a2.12,2.12,0,0,1,2.7-1.19l11.2,3,.33.09,6.42,1.72a2.12,2.12,0,0,1,1.75,2.3l-.25.92A2.11,2.11,0,0,1,80.61,170.14Z" fill="#413468"/><rect x="60.79" y="168.02" width="4.64" height="9.28" rx="2.03" ry="2.03" transform="translate(-120 188.94) rotate(-75)" fill="#413468"/><path d="M83.45,161.3,79,160.1l-.91-.25-4.49-1.2a1.85,1.85,0,0,1-1.3-2.25l.25-.92a1.87,1.87,0,0,1,2.26-1.31l4.48,1.2.92.25,4.48,1.2a1.85,1.85,0,0,1,1.3,2.26l-.25.92a1.86,1.86,0,0,1-2.27,1.31Z" fill="#413468"/><rect x="63.36" y="151.82" width="4.64" height="4.64" rx="2.03" ry="2.03" transform="translate(-100.21 177.69) rotate(-75)" fill="#413468"/><rect x="90.24" y="159.02" width="4.64" height="4.64" rx="2.03" ry="2.03" transform="translate(-87.24 208.99) rotate(-75)" fill="#413468"/><rect x="201.02" y="107.34" width="46.38" height="46.38" rx="4.05" ry="4.05" transform="translate(-26.14 62.48) rotate(-15)" fill="#118669"/><rect x="211.7" y="140.16" width="9.28" height="4.64" rx="2.03" ry="2.03" transform="translate(-29.51 60.85) rotate(-15)" fill="#413468"/><rect x="227.06" y="116.84" width="9.28" height="4.64" rx="2.03" ry="2.03" transform="translate(-22.95 64.03) rotate(-15)" fill="#413468"/><path d="M219.32,124.88l-4.48,1.2-.92.24-4.48,1.2a1.84,1.84,0,0,1-2.26-1.29h0l-.24-.92a1.85,1.85,0,0,1,1.3-2.26l4.48-1.2.92-.24,4.48-1.2a1.85,1.85,0,0,1,2.26,1.3l.24.92A1.85,1.85,0,0,1,219.32,124.88Z" fill="#413468"/><path d="M235.16,130.23,230,131.61l-.27.07-9,2.4a1.85,1.85,0,0,1-2.26-1.3l-.24-.92a1.85,1.85,0,0,1,1.3-2.26l9-2.4.27-.07,5.13-1.38a1.87,1.87,0,0,1,2.26,1.31l.25.92A1.84,1.84,0,0,1,235.16,130.23Z" fill="#413468"/><rect x="209.38" y="131.8" width="4.64" height="4.64" rx="2.03" ry="2.03" transform="translate(-27.5 59.36) rotate(-15)" fill="#413468"/><path d="M198.58,177.16c2.61-1.13,1.16-.5,6.34-2.67" fill="none" stroke="#b36a7c" stroke-linecap="round" stroke-linejoin="round" stroke-width="3"/><line x1="201.72" y1="179.01" x2="196.18" y2="178.57" fill="none" stroke="#b36a7c" stroke-linecap="round" stroke-linejoin="round" stroke-width="3"/><line x1="198.34" y1="173.81" x2="196.18" y2="178.56" fill="none" stroke="#b36a7c" stroke-linecap="round" stroke-linejoin="round" stroke-width="3"/><path d="M190.15,82.5c-13-10.78-25.72,1.26-25.72,8.73,0,7.08,5.5,12.56,18.13,12.56h-.08c12.63,0,18.47-8,18.47-14.45s-6.69-16.89-23.79-6.84" fill="none" stroke="#b36a7c" stroke-linecap="round" stroke-linejoin="round" stroke-width="3"/><path d="M149.88,109c0-15,12.29-1.67,18.6-8" fill="none" stroke="#b36a7c" stroke-linecap="round" stroke-linejoin="round" stroke-width="3"/><line x1="154.04" y1="106.67" x2="149.88" y2="112.63" fill="none" stroke="#b36a7c" stroke-linecap="round" stroke-linejoin="round" stroke-width="3"/><line x1="145.96" y1="107.03" x2="149.86" y2="112.63" fill="none" stroke="#b36a7c" stroke-linecap="round" stroke-linejoin="round" stroke-width="3"/><path d="M105.94,101.88c2.89,0,2.89,3.48,5.79,3.48s2.9-3.48,5.8-3.48,2.9,3.48,5.8,3.48,2.9-3.48,5.8-3.48" fill="none" stroke="#b36a7c" stroke-linecap="round" stroke-linejoin="round" stroke-width="3"/><path d="M156,218.24c3.05,0,3.05,3.67,6.1,3.67s3.06-3.67,6.11-3.67,3,3.67,6.1,3.67,3.06-3.67,6.11-3.67,3.06,3.67,6.11,3.67,3.06-3.67,6.11-3.67" fill="none" stroke="#b36a7c" stroke-linecap="round" stroke-linejoin="round" stroke-width="3"/><line x1="208.95" y1="164.88" x2="209.92" y2="175.97" fill="none" stroke="#b36a7c" stroke-linecap="round" stroke-linejoin="round" stroke-width="3"/><line x1="210.49" y1="182.43" x2="210.49" y2="182.43" fill="none" stroke="#b36a7c" stroke-linecap="round" stroke-linejoin="round" stroke-width="3"/><rect x="121.5" y="131.59" width="13.62" height="13.62" rx="5.41" ry="5.41" fill="#413468"/><rect x="164.89" y="131.59" width="13.62" height="13.62" rx="5.41" ry="5.41" fill="#413468"/></svg>