<svg xmlns="http://www.w3.org/2000/svg" width="300" height="300" viewBox="0 0 300 300"><title>typewriter</title><circle cx="150" cy="150" r="150" fill="#f7f5fd"/><path d="M242.68,122.72H60.38l3.28-70.64A10.08,10.08,0,0,1,73.72,42l68.83-4.74a142.8,142.8,0,0,1,17.06,0l70,4.74a10.08,10.08,0,0,1,10.06,10.06Z" fill="#118669"/><path d="M49.65,131.31V100.68a1.37,1.37,0,0,0-.12-.68,1.56,1.56,0,0,0-1.47-1.24H38.34A1.57,1.57,0,0,0,36.87,100a1.48,1.48,0,0,0-.11.68v30.63a1.48,1.48,0,0,0,.11.68,1.57,1.57,0,0,0,1.47,1.24h9.72A1.56,1.56,0,0,0,49.53,132,1.37,1.37,0,0,0,49.65,131.31Z" fill="#118669"/><path d="M48.06,134.93H38.34a3.56,3.56,0,0,1-3.27-3.62V100.68a3.33,3.33,0,0,1,.18-1.2,3.27,3.27,0,0,1,3.09-2.42h9.72a3.25,3.25,0,0,1,3.09,2.43,3.09,3.09,0,0,1,.19,1.19v30.63a3.09,3.09,0,0,1-.19,1.19A3.25,3.25,0,0,1,48.06,134.93Zm-9.54-3.39h9.37l.06-.23V100.63l-.06-.17H38.52l-.06.22v30.68Z" fill="#118669"/><path d="M228.22,263H74.74A10.82,10.82,0,0,1,64,252.58l-1.81-89.29H240.88l-1.81,89.29A10.85,10.85,0,0,1,228.22,263Z" fill="#514969"/><path d="M22,106.9H35.07v18.31H22a4,4,0,0,1-4-4h0V110.74A3.91,3.91,0,0,1,22,106.9Z" fill="#12a37f"/><path d="M266.3,131.31V100.68a1.48,1.48,0,0,0-.11-.68,1.56,1.56,0,0,0-1.47-1.24H255a1.56,1.56,0,0,0-1.47,1.24,1.48,1.48,0,0,0-.11.68v30.63a1.48,1.48,0,0,0,.11.68,1.56,1.56,0,0,0,1.47,1.24h9.72a1.56,1.56,0,0,0,1.47-1.24C266.19,131.76,266.3,131.54,266.3,131.31Z" fill="#118669"/><path d="M264.72,134.93H255a3.56,3.56,0,0,1-3.27-3.62V100.68A3.56,3.56,0,0,1,255,97.06h9.72a3.25,3.25,0,0,1,3.09,2.43,3.09,3.09,0,0,1,.19,1.19v30.63a2.65,2.65,0,0,1-.11.75h0l0,.22A3.24,3.24,0,0,1,264.72,134.93Zm-9.54-3.39h9.36q0-.18.06-.3s0,0,0,0V100.63l-.06-.17h-9.37l-.06.22v30.68Zm9.43-.23Z" fill="#118669"/><path d="M160.41,125H142.55a7,7,0,0,0,.9-2.71,8.1,8.1,0,0,1,7.8-8.37,8,8,0,0,1,8.36,7.8v.57A5.72,5.72,0,0,0,160.41,125Z" fill="#fff"/><path d="M163.33,126.68h-23.7l1.45-2.54a5.26,5.26,0,0,0,.67-2,9.94,9.94,0,0,1,2.61-6.85,9.56,9.56,0,0,1,6.85-3.12,9.68,9.68,0,0,1,10.1,9.45v.61a4.09,4.09,0,0,0,.57,1.87ZM145,123.28h13a5.83,5.83,0,0,1-.09-1v-.57a6.3,6.3,0,0,0-6.63-6.1,6.17,6.17,0,0,0-4.43,2,6.5,6.5,0,0,0-1.71,4.6v.24A7.81,7.81,0,0,1,145,123.28Z"/><path d="M249.8,125.55H53.26c-.45,0-1.92.79-1.92,1.69V105c0,.9,1.47,1.69,1.92,1.69H249.8c.46,0,1.93-.79,1.93-1.69v22.26C251.73,126.22,250.26,125.55,249.8,125.55Z" fill="#514969"/><path d="M207.08,211.89h13.68a7.62,7.62,0,0,1,7.68,7.69v3.95a7.62,7.62,0,0,1-7.68,7.69H207.08a7.62,7.62,0,0,1-7.68-7.69v-3.95A7.7,7.7,0,0,1,207.08,211.89Z" fill="#12a37f"/><path d="M81.18,211.89H94.85a7.62,7.62,0,0,1,7.69,7.69v3.95a7.62,7.62,0,0,1-7.69,7.69H81.18a7.62,7.62,0,0,1-7.69-7.69v-3.95A7.7,7.7,0,0,1,81.18,211.89Z" fill="#12a37f"/><path d="M124,231.22h-4.07a7.69,7.69,0,0,1-7.68-7.69v-4.07a7.69,7.69,0,0,1,7.68-7.68H124a7.7,7.7,0,0,1,7.69,7.68v4.07A7.78,7.78,0,0,1,124,231.22Z" fill="#12a37f"/><path d="M153.06,231.22H149a7.7,7.7,0,0,1-7.69-7.69v-4.07a7.7,7.7,0,0,1,7.69-7.68h4.07a7.69,7.69,0,0,1,7.68,7.68v4.07A7.76,7.76,0,0,1,153.06,231.22Z" fill="#12a37f"/><path d="M182.1,231.22H178a7.69,7.69,0,0,1-7.69-7.69v-4.07a7.69,7.69,0,0,1,7.69-7.68h4.06a7.69,7.69,0,0,1,7.69,7.68v4.07A7.76,7.76,0,0,1,182.1,231.22Z" fill="#12a37f"/><path d="M85.25,202.17H81.18a7.7,7.7,0,0,1-7.69-7.68v-4.07a7.7,7.7,0,0,1,7.69-7.69h4.07a7.69,7.69,0,0,1,7.68,7.69v4.07A7.76,7.76,0,0,1,85.25,202.17Z" fill="#12a37f"/><path d="M114.29,202.17h-4.07a7.69,7.69,0,0,1-7.68-7.68v-4.07a7.7,7.7,0,0,1,7.68-7.69h4.07a7.7,7.7,0,0,1,7.69,7.69v4.07A7.77,7.77,0,0,1,114.29,202.17Z" fill="#12a37f"/><path d="M143.34,202.17h-4.07a7.7,7.7,0,0,1-7.69-7.68v-4.07a7.71,7.71,0,0,1,7.69-7.69h4.07a7.69,7.69,0,0,1,7.68,7.69v4.07A7.69,7.69,0,0,1,143.34,202.17Z" fill="#12a37f"/><path d="M172.39,202.17h-4.07a7.69,7.69,0,0,1-7.69-7.68v-4.07a7.7,7.7,0,0,1,7.69-7.69h4.07a7.69,7.69,0,0,1,7.68,7.69v4.07A7.69,7.69,0,0,1,172.39,202.17Z" fill="#12a37f"/><path d="M220.76,202.17h-23.4a7.62,7.62,0,0,1-7.68-7.68v-4a7.62,7.62,0,0,1,7.68-7.68h23.4a7.62,7.62,0,0,1,7.68,7.68v4A7.62,7.62,0,0,1,220.76,202.17Z" fill="#12a37f"/><path d="M180.86,260.38H121.07a8.83,8.83,0,0,1-8.81-8.82h0V243.2a2.23,2.23,0,0,1,2.15-2.15h73.23a2.23,2.23,0,0,1,2.15,2.15v8.36a9,9,0,0,1-8.93,8.82Z" fill="#12a37f"/><path d="M226.63,59.54v91.89H76.43V59.54a4.94,4.94,0,0,1,5-5H221.55a4.9,4.9,0,0,1,5.08,5Z" fill="#f7f5fd"/><path d="M126.05,92.66h3a6,6,0,0,1,6,6v3a6,6,0,0,1-6,6h-3a6,6,0,0,1-6-6v-3A6,6,0,0,1,126.05,92.66Z" fill="#514969"/><path d="M174,92.66H177a6,6,0,0,1,6,6v3a6,6,0,0,1-6,6H174a6,6,0,0,1-6-6v-3A6,6,0,0,1,174,92.66Z" fill="#514969"/><path d="M241.89,159.56a2.86,2.86,0,0,1-3,2.6H64.23a2.81,2.81,0,0,1-3.06-2.6l1-32.66H240.88Z" fill="#514969"/><path d="M64,163.87a4.55,4.55,0,0,1-3-1.08,4.46,4.46,0,0,1-1.57-3.1v-.18l1.07-34.3h182l1.07,34.39v.08a4.39,4.39,0,0,1-1.55,3.06,4.56,4.56,0,0,1-3.25,1.12H64Zm.16-3.4H239a1.28,1.28,0,0,0,.85-.3,1.09,1.09,0,0,0,.38-.66l-1-30.91H63.83l-1,30.91a1.16,1.16,0,0,0,.37.7,1.18,1.18,0,0,0,.86.26Z" fill="#514969"/><path d="M163.91,116.5c-4.3,0-2.94,9.5-.79,12,4.41,4.86,13.79,5.77,37.86,5.88h.68a7,7,0,0,1,3.61,1h0c3.28,2,5.09,6.67,4.19,11.07s-4.07,7.58-7.8,7.58H101.18c-3.73,0-7-3.17-7.8-7.58s.91-9,4.19-11.07h0a6.42,6.42,0,0,1,3.61-1H102c24.19-.11,33.46-1,37.87-5.88,2.26-2.48,3.5-12-.8-12H60.27a1.57,1.57,0,0,0-1.58,1.7l-1,48c0,2.15,1.47,4,3.16,4h181.4c1.81,0,3.17-1.81,3.17-4l-1-48a1.64,1.64,0,0,0-1.58-1.7Z" fill="#118669"/><path d="M242.23,171.88H60.83c-2.63,0-4.86-2.58-4.86-5.65l1-48a3.15,3.15,0,0,1,.79-2.32,3.33,3.33,0,0,1,2.49-1.13H139a4.1,4.1,0,0,1,3.87,2.67c1.56,3.51.29,9.82-1.82,12.14-4.87,5.37-14,6.32-39.11,6.44h-.8a4.78,4.78,0,0,0-2.67.73c-2.7,1.67-4.13,5.6-3.46,9.36.64,3.58,3.22,6.18,6.13,6.18H201.66c2.86,0,5.38-2.56,6.13-6.22s-.72-7.62-3.41-9.29a5.24,5.24,0,0,0-2.72-.76H201c-25.08-.12-34.25-1.07-39.12-6.44-2.07-2.4-3.3-8.87-1.76-12.24a4.06,4.06,0,0,1,3.81-2.57H242.8a3.34,3.34,0,0,1,3.27,3.39l1,48C247.09,169.4,245,171.88,242.23,171.88ZM60.38,118.2v0l-1,48c0,1.21.81,2.22,1.47,2.22h181.4c.8,0,1.47-1,1.47-2.26l-1-48s0,0,0,0H163.91c-.2,0-.45,0-.72.59-1,2.21,0,7.23,1.21,8.59,4,4.42,14.07,5.18,36.59,5.29h.67a8.79,8.79,0,0,1,4.49,1.25c3.92,2.44,6,7.84,5,12.87-1.08,5.26-5,8.93-9.46,8.93H101.18c-4.55,0-8.53-3.77-9.46-9s1.11-10.43,5-12.81a8.14,8.14,0,0,1,4.51-1.27H102c22.51-.11,32.57-.87,36.61-5.33,1.17-1.28,2.23-6.23,1.23-8.49-.29-.65-.56-.65-.77-.65Z" fill="#118669"/><path d="M198.83,153.24H103a10.14,10.14,0,0,1-10.17-10.18V138.2A2.22,2.22,0,0,1,95,136.06H206.86A2.21,2.21,0,0,1,209,138.2h0v4.86a10,10,0,0,1-10.17,10.18Z" fill="#514969"/><path d="M165.49,71h34.92a5.43,5.43,0,0,1,5.43,5.42v5.31a5.43,5.43,0,0,1-5.43,5.43H165.49a5.42,5.42,0,0,1-5.42-5.43V76.38A5.42,5.42,0,0,1,165.49,71Z" fill="#514969"/><path d="M109,71H143.9a5.43,5.43,0,0,1,5.43,5.42v5.31a5.43,5.43,0,0,1-5.43,5.43H109a5.42,5.42,0,0,1-5.42-5.43V76.38A5.49,5.49,0,0,1,109,71Z" fill="#514969"/><rect x="35.18" y="98.31" width="16.16" height="1.02" fill="#514969"/><rect x="35.18" y="100.45" width="16.16" height="1.02" fill="#514969"/><rect x="35.18" y="109.04" width="16.16" height="1.02" fill="#514969"/><rect x="35.18" y="111.19" width="16.16" height="1.02" fill="#514969"/><rect x="35.18" y="110.06" width="16.16" height="1.02" fill="#514969"/><rect x="35.18" y="101.47" width="16.16" height="1.02" fill="#514969"/><rect x="35.18" y="112.21" width="16.16" height="1.02" fill="#514969"/><rect x="35.18" y="107.91" width="16.16" height="1.02" fill="#514969"/><rect x="35.18" y="120.91" width="16.16" height="1.02" fill="#514969"/><rect x="35.18" y="119.78" width="16.16" height="1.02" fill="#514969"/><rect x="35.18" y="123.06" width="16.16" height="1.02" fill="#514969"/><rect x="35.18" y="118.65" width="16.16" height="1.02" fill="#514969"/><rect x="35.18" y="121.93" width="16.16" height="1.02" fill="#514969"/><rect x="35.18" y="129.5" width="16.16" height="1.02" fill="#514969"/><rect x="35.18" y="130.52" width="16.16" height="1.02" fill="#514969"/><rect x="35.18" y="131.65" width="16.16" height="1.02" fill="#514969"/><rect x="35.18" y="99.32" width="16.16" height="1.02" fill="#514969"/><rect x="35.18" y="132.67" width="16.16" height="1.02" fill="#514969"/><path d="M51.23,98.31a2.18,2.18,0,0,0-1.92-1.13H37.21a2.18,2.18,0,0,0-1.92,1.13Z" fill="#514969"/><path d="M51.34,133.8a2.2,2.2,0,0,1-1.92,1.13H37.1a2.2,2.2,0,0,1-1.92-1.13Z" fill="#514969"/><rect x="251.73" y="98.31" width="16.16" height="1.02" fill="#514969"/><rect x="251.73" y="100.45" width="16.16" height="1.02" fill="#514969"/><rect x="251.73" y="109.04" width="16.16" height="1.02" fill="#514969"/><rect x="251.73" y="111.19" width="16.16" height="1.02" fill="#514969"/><rect x="251.73" y="110.06" width="16.16" height="1.02" fill="#514969"/><rect x="251.73" y="101.47" width="16.16" height="1.02" fill="#514969"/><rect x="251.73" y="112.21" width="16.16" height="1.02" fill="#514969"/><rect x="251.73" y="107.91" width="16.16" height="1.02" fill="#514969"/><rect x="251.73" y="120.91" width="16.16" height="1.02" fill="#514969"/><rect x="251.73" y="119.78" width="16.16" height="1.02" fill="#514969"/><rect x="251.73" y="123.06" width="16.16" height="1.02" fill="#514969"/><rect x="251.73" y="118.65" width="16.16" height="1.02" fill="#514969"/><rect x="251.73" y="121.93" width="16.16" height="1.02" fill="#514969"/><rect x="251.73" y="129.5" width="16.16" height="1.02" fill="#514969"/><rect x="251.73" y="130.52" width="16.16" height="1.02" fill="#514969"/><rect x="251.73" y="131.65" width="16.16" height="1.02" fill="#514969"/><rect x="251.73" y="99.32" width="16.16" height="1.02" fill="#514969"/><rect x="251.73" y="132.67" width="16.16" height="1.02" fill="#514969"/><path d="M267.77,98.31a2.17,2.17,0,0,0-1.92-1.13H253.76a2.18,2.18,0,0,0-1.92,1.13Z" fill="#514969"/><path d="M267.89,133.8a2.2,2.2,0,0,1-1.92,1.13H253.65a2.19,2.19,0,0,1-1.92-1.13Z" fill="#514969"/></svg>