<svg xmlns="http://www.w3.org/2000/svg" width="300" height="300" viewBox="0 0 300 300"><title>typewriter</title><circle cx="150" cy="150" r="150" fill="#f7f5fd"/><path d="M231.2,125.9H69.9l2.9-62.5a8.92,8.92,0,0,1,8.9-8.9l60.9-4.2a126.78,126.78,0,0,1,15.1,0l61.9,4.2a8.92,8.92,0,0,1,8.9,8.9Z" fill="#118669"/><path d="M60.4,133.5V106.4a1.27,1.27,0,0,0-.1-.6,1.38,1.38,0,0,0-1.3-1.1H50.4a1.38,1.38,0,0,0-1.3,1.1,1.27,1.27,0,0,0-.1.6v27.1a1.27,1.27,0,0,0,.1.6,1.38,1.38,0,0,0,1.3,1.1H59a1.38,1.38,0,0,0,1.3-1.1A1.27,1.27,0,0,0,60.4,133.5Z" fill="#118669" stroke="#118669" stroke-miterlimit="10" stroke-width="3"/><path d="M218.4,250H82.6a9.57,9.57,0,0,1-9.5-9.2l-1.6-79H229.6l-1.6,79A9.59,9.59,0,0,1,218.4,250Z" fill="#514969"/><path d="M35.9,111.9H47.5v16.2H35.9a3.54,3.54,0,0,1-3.5-3.5h0v-9.3A3.46,3.46,0,0,1,35.9,111.9Z" fill="#12a37f"/><path d="M252.1,133.5V106.4a1.27,1.27,0,0,0-.1-.6,1.38,1.38,0,0,0-1.3-1.1h-8.6a1.38,1.38,0,0,0-1.3,1.1,1.27,1.27,0,0,0-.1.6v27.1a1.27,1.27,0,0,0,.1.6,1.38,1.38,0,0,0,1.3,1.1h8.6a1.38,1.38,0,0,0,1.3-1.1C252,133.9,252.1,133.7,252.1,133.5Z" fill="#118669" stroke="#118669" stroke-miterlimit="10" stroke-width="3"/><path d="M158.4,127.9H142.6a6.19,6.19,0,0,0,.8-2.4,7.15,7.15,0,1,1,14.3-.5v.5A5.13,5.13,0,0,0,158.4,127.9Z" fill="#fff" stroke="#000" stroke-miterlimit="10" stroke-width="3"/><path d="M237.5,128.4H63.6c-.4,0-1.7.7-1.7,1.5V110.2c0,.8,1.3,1.5,1.7,1.5H237.5c.4,0,1.7-.7,1.7-1.5v19.7C239.2,129,237.9,128.4,237.5,128.4Z" fill="#514969"/><path d="M199.7,204.8h12.1a6.74,6.74,0,0,1,6.8,6.8v3.5a6.74,6.74,0,0,1-6.8,6.8H199.7a6.74,6.74,0,0,1-6.8-6.8v-3.5A6.81,6.81,0,0,1,199.7,204.8Z" fill="#118669"/><path d="M88.3,204.8h12.1a6.74,6.74,0,0,1,6.8,6.8v3.5a6.74,6.74,0,0,1-6.8,6.8H88.3a6.74,6.74,0,0,1-6.8-6.8v-3.5A6.81,6.81,0,0,1,88.3,204.8Z" fill="#118669"/><path d="M126.2,221.9h-3.6a6.81,6.81,0,0,1-6.8-6.8v-3.6a6.81,6.81,0,0,1,6.8-6.8h3.6a6.81,6.81,0,0,1,6.8,6.8v3.6A6.87,6.87,0,0,1,126.2,221.9Z" fill="#118669"/><path d="M151.9,221.9h-3.6a6.81,6.81,0,0,1-6.8-6.8v-3.6a6.81,6.81,0,0,1,6.8-6.8h3.6a6.81,6.81,0,0,1,6.8,6.8v3.6A6.87,6.87,0,0,1,151.9,221.9Z" fill="#118669"/><path d="M177.6,221.9H174a6.81,6.81,0,0,1-6.8-6.8v-3.6a6.81,6.81,0,0,1,6.8-6.8h3.6a6.81,6.81,0,0,1,6.8,6.8v3.6A6.87,6.87,0,0,1,177.6,221.9Z" fill="#118669"/><path d="M91.9,196.2H88.3a6.81,6.81,0,0,1-6.8-6.8v-3.6a6.81,6.81,0,0,1,6.8-6.8h3.6a6.81,6.81,0,0,1,6.8,6.8v3.6A6.87,6.87,0,0,1,91.9,196.2Z" fill="#118669"/><path d="M117.6,196.2H114a6.81,6.81,0,0,1-6.8-6.8v-3.6A6.81,6.81,0,0,1,114,179h3.6a6.81,6.81,0,0,1,6.8,6.8v3.6A6.87,6.87,0,0,1,117.6,196.2Z" fill="#118669"/><path d="M143.3,196.2h-3.6a6.81,6.81,0,0,1-6.8-6.8v-3.6a6.81,6.81,0,0,1,6.8-6.8h3.6a6.81,6.81,0,0,1,6.8,6.8v3.6A6.81,6.81,0,0,1,143.3,196.2Z" fill="#118669"/><path d="M169,196.2h-3.6a6.81,6.81,0,0,1-6.8-6.8v-3.6a6.81,6.81,0,0,1,6.8-6.8H169a6.81,6.81,0,0,1,6.8,6.8v3.6A6.81,6.81,0,0,1,169,196.2Z" fill="#118669"/><path d="M211.8,196.2H191.1a6.74,6.74,0,0,1-6.8-6.8v-3.5a6.74,6.74,0,0,1,6.8-6.8h20.7a6.74,6.74,0,0,1,6.8,6.8v3.5A6.74,6.74,0,0,1,211.8,196.2Z" fill="#118669"/><path d="M176.5,247.7H123.6a7.81,7.81,0,0,1-7.8-7.8h0v-7.4a2,2,0,0,1,1.9-1.9h64.8a2,2,0,0,1,1.9,1.9v7.4a8,8,0,0,1-7.9,7.8Z" fill="#12a37f"/><path d="M217,70v81.3H84.1V70a4.37,4.37,0,0,1,4.4-4.4h124A4.34,4.34,0,0,1,217,70Z" fill="#f7f5fd"/><path d="M128,99.3h2.7a5.34,5.34,0,0,1,5.3,5.3v2.7a5.34,5.34,0,0,1-5.3,5.3H128a5.34,5.34,0,0,1-5.3-5.3v-2.7A5.27,5.27,0,0,1,128,99.3Z" fill="#514969"/><path d="M170.4,99.3h2.7a5.34,5.34,0,0,1,5.3,5.3v2.7a5.34,5.34,0,0,1-5.3,5.3h-2.7a5.34,5.34,0,0,1-5.3-5.3v-2.7A5.34,5.34,0,0,1,170.4,99.3Z" fill="#514969"/><path d="M230.5,158.5a2.54,2.54,0,0,1-2.7,2.3H73.3a2.48,2.48,0,0,1-2.7-2.3l.9-28.9H229.6Z" fill="#514969" stroke="#514969" stroke-miterlimit="10" stroke-width="3"/><path d="M161.5,120.4c-3.8,0-2.6,8.4-.7,10.6,3.9,4.3,12.2,5.1,33.5,5.2h.6a6.2,6.2,0,0,1,3.2.9h0c2.9,1.8,4.5,5.9,3.7,9.8s-3.6,6.7-6.9,6.7H106c-3.3,0-6.2-2.8-6.9-6.7s.8-8,3.7-9.8h0a5.71,5.71,0,0,1,3.2-.9h.7c21.4-.1,29.6-.9,33.5-5.2,2-2.2,3.1-10.6-.7-10.6H69.8a1.39,1.39,0,0,0-1.4,1.5l-.9,42.5c0,1.9,1.3,3.5,2.8,3.5H230.8c1.6,0,2.8-1.6,2.8-3.5l-.9-42.5a1.45,1.45,0,0,0-1.4-1.5Z" fill="#118669" stroke="#118669" stroke-miterlimit="10" stroke-width="3"/><path d="M192.4,152.9H107.6a9,9,0,0,1-9-9v-4.3a2,2,0,0,1,1.9-1.9h99a2,2,0,0,1,1.9,1.9h0v4.3a8.84,8.84,0,0,1-9,9Z" fill="#514969"/><path d="M162.9,80.1h30.9a4.8,4.8,0,0,1,4.8,4.8v4.7a4.8,4.8,0,0,1-4.8,4.8H162.9a4.8,4.8,0,0,1-4.8-4.8V84.9A4.8,4.8,0,0,1,162.9,80.1Z" fill="#514969"/><path d="M112.9,80.1h30.9a4.8,4.8,0,0,1,4.8,4.8v4.7a4.8,4.8,0,0,1-4.8,4.8H112.9a4.8,4.8,0,0,1-4.8-4.8V84.9A4.87,4.87,0,0,1,112.9,80.1Z" fill="#514969"/><rect x="47.6" y="104.3" width="14.3" height="0.9" fill="#514969"/><rect x="47.6" y="106.2" width="14.3" height="0.9" fill="#514969"/><rect x="47.6" y="113.8" width="14.3" height="0.9" fill="#514969"/><rect x="47.6" y="115.7" width="14.3" height="0.9" fill="#514969"/><rect x="47.6" y="114.7" width="14.3" height="0.9" fill="#514969"/><rect x="47.6" y="107.1" width="14.3" height="0.9" fill="#514969"/><rect x="47.6" y="116.6" width="14.3" height="0.9" fill="#514969"/><rect x="47.6" y="112.8" width="14.3" height="0.9" fill="#514969"/><rect x="47.6" y="124.3" width="14.3" height="0.9" fill="#514969"/><rect x="47.6" y="123.3" width="14.3" height="0.9" fill="#514969"/><rect x="47.6" y="126.2" width="14.3" height="0.9" fill="#514969"/><rect x="47.6" y="122.3" width="14.3" height="0.9" fill="#514969"/><rect x="47.6" y="125.2" width="14.3" height="0.9" fill="#514969"/><rect x="47.6" y="131.9" width="14.3" height="0.9" fill="#514969"/><rect x="47.6" y="132.8" width="14.3" height="0.9" fill="#514969"/><rect x="47.6" y="133.8" width="14.3" height="0.9" fill="#514969"/><rect x="47.6" y="105.2" width="14.3" height="0.9" fill="#514969"/><rect x="47.6" y="134.7" width="14.3" height="0.9" fill="#514969"/><path d="M61.8,104.3a1.94,1.94,0,0,0-1.7-1H49.4a1.94,1.94,0,0,0-1.7,1Z" fill="#514969"/><path d="M61.9,135.7a1.94,1.94,0,0,1-1.7,1H49.3a1.94,1.94,0,0,1-1.7-1Z" fill="#514969"/><rect x="239.2" y="104.3" width="14.3" height="0.9" fill="#514969"/><rect x="239.2" y="106.2" width="14.3" height="0.9" fill="#514969"/><rect x="239.2" y="113.8" width="14.3" height="0.9" fill="#514969"/><rect x="239.2" y="115.7" width="14.3" height="0.9" fill="#514969"/><rect x="239.2" y="114.7" width="14.3" height="0.9" fill="#514969"/><rect x="239.2" y="107.1" width="14.3" height="0.9" fill="#514969"/><rect x="239.2" y="116.6" width="14.3" height="0.9" fill="#514969"/><rect x="239.2" y="112.8" width="14.3" height="0.9" fill="#514969"/><rect x="239.2" y="124.3" width="14.3" height="0.9" fill="#514969"/><rect x="239.2" y="123.3" width="14.3" height="0.9" fill="#514969"/><rect x="239.2" y="126.2" width="14.3" height="0.9" fill="#514969"/><rect x="239.2" y="122.3" width="14.3" height="0.9" fill="#514969"/><rect x="239.2" y="125.2" width="14.3" height="0.9" fill="#514969"/><rect x="239.2" y="131.9" width="14.3" height="0.9" fill="#514969"/><rect x="239.2" y="132.8" width="14.3" height="0.9" fill="#514969"/><rect x="239.2" y="133.8" width="14.3" height="0.9" fill="#514969"/><rect x="239.2" y="105.2" width="14.3" height="0.9" fill="#514969"/><rect x="239.2" y="134.7" width="14.3" height="0.9" fill="#514969"/><path d="M253.4,104.3a1.94,1.94,0,0,0-1.7-1H241a1.94,1.94,0,0,0-1.7,1Z" fill="#514969"/><path d="M253.5,135.7a1.94,1.94,0,0,1-1.7,1H240.9a1.94,1.94,0,0,1-1.7-1Z" fill="#514969"/></svg>