<svg xmlns="http://www.w3.org/2000/svg" width="144" height="144" viewBox="0 0 144 144"><title>144x144</title><rect width="144" height="144" fill="#514969"/><path d="M85.21,13.27l-.14-.07Z" fill="#2c1c5a"/><path d="M136.78,110.48,105.69,67.09l24-31.73C137.42,25,142,22.4,151,22.4h2.6v-24H88.21v24h3.23c11,0,14.25,5.19,4.54,18.79L83,58,69.42,38c-7.12-9.72-5.18-14.9,3.89-14.9h3.24v-24H-5.7v24h2.59C7.25,23.05,9.2,25.64,17,37.3l24,36.27L15,109.83c-7.77,11.66-11,13-19.42,13h-5.83c-11.66,0-13.6-2-13.6-13V-1.56H-114.5v-22c0-20.72,9.71-29.79,24.61-29.79a26.72,26.72,0,0,1,19.43,5.83,21.66,21.66,0,0,0-.65,11c1.3,6.48,7.12,14.25,22,14.9A20.4,20.4,0,0,0-26-38.9a20,20,0,0,0,.2-3.46c0-18.78-29.79-29.14-63.46-29.14-47.28,0-71.24,19.43-72.54,59.58V-1.56h-18.78V21.76h18.78v88.07c0,10.37-1.94,13-12.3,13h-4.53v22h84.83v-22h-2.59c-14.89,0-17.48-2-17.48-13V21.76h27.2c10.36,0,15.54,2.59,15.54,16.84v71.23c0,9.72-1.94,13-11,13h-3.24v22H59.06v-22H54.53c-11.66,0-14.25-5.83-5.18-18.14L64.89,82,81.08,106.6c7.13,11.65,5.83,15.54-5.18,15.54H72.66v22h83.55V122.79h-1.3C145.84,122.79,143.25,118.9,136.78,110.48Z" fill="#f7f5fd"/></svg>